<?xml version="1.0" standalone="no"?>
<!DOCTYPE svg PUBLIC "-//W3C//DTD SVG 1.1//EN" "http://www.w3.org/Graphics/SVG/1.1/DTD/svg11.dtd" >
<svg xmlns="http://www.w3.org/2000/svg" xmlns:xlink="http://www.w3.org/1999/xlink" version="1.1">
<metadata>
Created by FontForge 20161013 at Thu Aug 11 19:14:16 2011
 By ,,,
Copyright (c) 2007-2011 by Radim Pesko. All rights reserved.
</metadata>
<defs>
<font id="LarishAlte-SemiBold" horiz-adv-x="400" >
  <font-face 
    font-family="Larish Alte"
    font-weight="400"
    font-stretch="normal"
    units-per-em="1000"
    panose-1="2 0 5 5 0 0 0 2 0 3"
    ascent="760"
    descent="-240"
    x-height="456"
    cap-height="721"
    bbox="-129 -312 1198.53 1185"
    underline-thickness="0"
    underline-position="0"
    unicode-range="U+000D-FB04"
  />
<missing-glyph horiz-adv-x="260" 
 />
    <glyph glyph-name="ff" unicode="ff" horiz-adv-x="679" 
d="M362 760q49 0 88 -16.5t56 -43.5q62 60 144 60q49 0 84 -27.5t35 -67.5t-40 -59l-79 -36q-5 -2 -10 0.5t-5 7.5v19q0 3 12 24q16 28 4 53t-44 25q-36 0 -58.5 -31.5t-22.5 -91.5v-120h127q14 0 14 -13v-37q0 -13 -14 -13h-119v-264q0 -40 13.5 -57.5t47.5 -23.5
q13 -3 12 -15l-2 -21q-2 -12 -14 -12h-247q-12 0 -14 12l-2 21q-2 13 12 15q40 6 55.5 23.5t15.5 57.5v156q0 49 -21.5 79t-56.5 30h-108v-265q0 -40 13.5 -57.5t47.5 -23.5q14 -3 12 -15l-2 -21q-2 -12 -14 -12h-247q-12 0 -14 12l-2 21q-2 13 12 15q40 6 55.5 23.5
t15.5 57.5v155q0 86 -61 114q-13 6 -13 17v28q0 13 14 13h60q3 129 73.5 216.5t186.5 87.5zM217 456h194q0 72 25 135l-51 -21q-5 -2 -10 0.5t-5 7.5v19q0 12 7 24q17 28 4.5 54t-45.5 26q-53 0 -85.5 -38.5t-33.5 -104.5v-102z" />
    <glyph glyph-name="fi" unicode="fi" horiz-adv-x="623" 
d="M301 456q119 0 192 30q16 7 22 7q10 0 10 -8v-356q0 -40 15.5 -57.5t54.5 -23.5q14 -2 12 -15l-2 -21q-2 -12 -14 -12h-245q-12 0 -14 12l-2 21q-2 12 12 15q35 6 50 25t15 56v198q0 28 -18 46.5t-48 19.5l-118 3v-267q0 -37 14 -56t49 -25q14 -3 12 -15l-2 -21
q-2 -12 -14 -12h-247q-12 0 -14 12l-2 21q-2 13 12 15q40 6 55.5 23.5t15.5 57.5v155q0 86 -61 114q-13 6 -13 17v28q0 13 14 13h60q3 129 73.5 216.5t186.5 87.5q66 0 110 -27t44 -68t-41 -58l-90 -37q-5 -2 -10 0.5t-5 7.5v19q0 12 7 24q17 28 4.5 54t-45.5 26
q-53 0 -85.5 -39t-32.5 -104v-102h83z" />
    <glyph glyph-name="fl" unicode="fl" horiz-adv-x="623" 
d="M344 393h-119v-264q0 -40 13.5 -57.5t47.5 -23.5q14 -3 12 -15l-2 -21q-2 -12 -14 -12h-247q-12 0 -14 12l-2 21q-2 13 12 15q40 6 55.5 23.5t15.5 57.5v155q0 86 -61 114q-13 6 -13 17v28q0 13 14 13h60q0 75 27.5 143.5t83.5 114.5t128 46q62 0 99 -42q18 15 37 34
q8 8 19 8h17q12 -2 12 -13v-618q0 -40 15.5 -57.5t54.5 -23.5q14 -2 12 -15l-2 -21q-2 -12 -14 -12h-245q-12 0 -14 12l-2 21q-2 12 12 15q35 6 50 24t15 57v438q0 19 -6 30l-60 -27q-5 -2 -10 0.5t-5 7.5v19q0 3 12 24q16 28 4 53t-44 25q-36 0 -58.5 -31.5t-22.5 -91.5
v-120h127q14 0 14 -13v-37q0 -13 -14 -13z" />
    <glyph glyph-name="ffi" unicode="ffi" horiz-adv-x="933" 
d="M412 129v155q0 49 -21.5 79.5t-56.5 30.5h-109v-265q0 -40 13.5 -57.5t47.5 -23.5q14 -3 12 -15l-2 -21q-2 -12 -14 -12h-247q-12 0 -14 12l-2 21q-2 13 12 15q40 6 55.5 23.5t15.5 57.5v155q0 86 -61 114q-13 6 -13 17v28q0 13 14 13h60q3 129 73.5 216.5t186.5 87.5
q52 0 91.5 -17.5t54.5 -46.5q67 64 164 64q66 0 110 -27t44 -68t-41 -58l-90 -37q-5 -2 -10 0.5t-5 7.5v19q0 12 7 24q17 28 4.5 54t-45.5 26q-53 0 -85.5 -39t-32.5 -104v-102h83q119 0 192 30q16 7 22 7q10 0 10 -8v-356q0 -40 15.5 -57.5t54.5 -23.5q14 -2 12 -15l-2 -21
q-2 -12 -14 -12h-245q-12 0 -14 12l-2 21q-2 12 12 15q35 6 50 25t15 56v198q0 28 -18 46.5t-48 19.5l-118 3v-267q0 -37 14 -56t49 -25q14 -3 12 -15l-2 -21q-2 -12 -14 -12h-247q-12 0 -14 12l-2 21q-2 13 12 15q40 6 55.5 23.5t15.5 57.5zM412 456q2 73 26 136l-53 -22
q-5 -2 -10 0.5t-5 7.5v19q0 12 7 24q17 28 4.5 54t-45.5 26q-53 0 -85.5 -38.5t-33.5 -104.5v-102h195z" />
    <glyph glyph-name="ffl" unicode="ffl" horiz-adv-x="932" 
d="M225 394v-265q0 -40 13.5 -57.5t47.5 -23.5q14 -3 12 -15l-2 -21q-2 -12 -14 -12h-247q-12 0 -14 12l-2 21q-2 13 12 15q40 6 55.5 23.5t15.5 57.5v155q0 86 -61 114q-13 6 -13 17v28q0 13 14 13h60q3 129 73.5 216.5t186.5 87.5q49 0 88 -16.5t56 -43.5q62 60 144 60
q62 0 99 -42q18 15 37 34q8 8 19 8h17q12 -2 12 -13v-618q0 -40 15.5 -57.5t54.5 -23.5q14 -2 12 -15l-2 -21q-2 -12 -14 -12h-245q-12 0 -14 12l-2 21q-1 12 12 15q35 6 50 24t15 57v438q0 19 -6 30l-60 -27q-5 -2 -10 0.5t-5 7.5v19q0 3 12 24q16 28 4 53t-44 25
q-36 0 -58.5 -31.5t-22.5 -91.5v-120h127q14 0 14 -13v-37q0 -13 -14 -13h-119v-264q0 -40 13.5 -57.5t47.5 -23.5q13 -3 12 -15l-2 -21q-2 -12 -14 -12h-247q-12 0 -14 12l-2 21q-2 13 12 15q40 6 55.5 23.5t15.5 57.5v156q0 49 -21.5 79t-56.5 30h-108zM411 456
q0 72 25 135l-51 -21q-5 -2 -10 0.5t-5 7.5v19q0 12 7 24q17 28 4.5 54t-45.5 26q-53 0 -85.5 -38.5t-33.5 -104.5v-102h194z" />
    <glyph glyph-name="q_j" unicode="qj" horiz-adv-x="867" 
d="M695 725q23 21 45 -1q30 -28 57 -57q23 -23 1 -44q-25 -29 -58 -57q-22 -22 -45 0q-39 37 -56 57q-22 22 -1 45q26 29 57 57zM366 -115l4 149q-56 -49 -134 -49q-97 0 -152.5 69.5t-55.5 174.5q0 106 66.5 174.5t169.5 68.5q70 0 139 -46q42 26 61 41q8 7 16 7q9 0 9 -8
l-1 -581q0 -34 18.5 -52t39.5 -18q47 0 82 31.5t35 87.5l-1 334q0 27 -16 43.5t-42 21.5q-13 3 -13 14v15q0 12 10 16q80 29 159 91q10 8 16 8q9 0 9 -8l-1 -409q0 -134 -73.5 -219t-176.5 -85h-245q-12 0 -14 12l-2 21q-2 13 12 15q41 6 60.5 24t20.5 57zM149 188
q28 -63 76.5 -87t94.5 -5t59.5 68.5t-14.5 121.5q-31 72 -84 100t-101 4q-44 -22 -53 -76.5t22 -125.5z" />
    <glyph glyph-name="f_b" unicode="fb" horiz-adv-x="912" 
d="M344 393h-119v-264q0 -40 13.5 -57.5t47.5 -23.5q14 -3 12 -15l-2 -21q-2 -12 -14 -12h-247q-12 0 -14 12l-2 21q-2 13 12 15q40 6 55.5 23.5t15.5 57.5v155q0 86 -61 114q-13 6 -13 17v28q0 13 14 13h60q0 75 27.5 143.5t83.5 114.5t128 46q37 0 67 -16.5t44 -43.5
q19 13 62 52q8 8 19 8h17q12 -2 12 -13l-2 -331q57 55 139 55t133.5 -50.5t51.5 -139.5q0 -131 -93.5 -213.5t-225.5 -82.5q-57 0 -90 29.5t-33 87.5l-1 457q0 31 -21 47l-79 -36q-5 -2 -10 0.5t-5 7.5v19q0 3 12 24q16 28 4 53t-44 25q-36 0 -58.5 -31.5t-22.5 -91.5v-120
h127q14 0 14 -13v-37q0 -13 -14 -13zM560 329v-195q0 -33 20 -51.5t51 -18.5q61 0 103.5 43t42.5 111q0 67 -38 106.5t-97 39.5q-50 0 -82 -35z" />
    <glyph glyph-name="f_k" unicode="fk" horiz-adv-x="937" 
d="M549 244l93 97q20 21 16.5 40t-24.5 27q-11 4 -10 16l2 20q2 12 14 12h213q12 0 14 -12l2 -20q2 -12 -10 -16q-52 -18 -91 -40.5t-85 -65.5l-23 -22l121 -120q83 -83 143 -112q11 -5 9 -16l-4 -20q-2 -12 -15 -12h-242q-12 0 -14 12l-2 19q-1 10 10 16q21 10 26.5 27
t-12.5 38l-95 97l-35 -33v-47q0 -42 10.5 -58.5t42.5 -22.5q13 -3 12 -15l-2 -21q-2 -12 -14 -12h-230q-12 0 -14 12l-2 21q-2 13 12 15q39 6 53 23t14 58l-1 422q0 30 -22 50l-68 -31q-5 -2 -10 0.5t-5 7.5v19q0 3 12 24q16 28 4 53t-44 25q-36 0 -58.5 -31.5t-22.5 -91.5
v-120h127q14 0 14 -13v-37q0 -13 -14 -13h-119v-264q0 -40 13.5 -57.5t47.5 -23.5q14 -3 12 -15l-2 -21q-2 -12 -14 -12h-247q-12 0 -14 12l-2 21q-2 13 12 15q40 6 55.5 23.5t15.5 57.5v155q0 86 -61 114q-13 6 -13 17v28q0 13 14 13h60q0 75 27.5 143.5t83.5 114.5t128 46
q73 0 107 -54q25 16 58 46q8 8 19 8h17q12 -2 12 -13z" />
    <glyph glyph-name="f_h" unicode="fh" horiz-adv-x="937" 
d="M344 393h-119v-264q0 -40 13.5 -57.5t47.5 -23.5q14 -3 12 -15l-2 -21q-2 -12 -14 -12h-247q-12 0 -14 12l-2 21q-2 13 12 15q40 6 55.5 23.5t15.5 57.5v155q0 86 -61 114q-13 6 -13 17v28q0 13 14 13h60q0 75 27.5 143.5t83.5 114.5t128 46q35 0 64.5 -15t43.5 -40
q22 15 57 47q8 8 19 8h17q12 -2 12 -13l-5 -386q43 46 82 70.5t89 24.5q57 0 90.5 -39t33.5 -97v-191q0 -41 13.5 -58t51.5 -23q14 -2 12 -15l-2 -21q-2 -12 -14 -12h-241q-12 0 -14 12l-2 21q-2 13 12 15q38 6 49.5 22.5t11.5 58.5v187q0 26 -14.5 41.5t-38.5 15.5
q-63 0 -119 -77v-167q0 -42 11 -58.5t49 -22.5q14 -2 12 -15l-2 -21q-2 -12 -14 -12h-236q-12 0 -14 12l-2 21q-2 13 12 15q39 6 53 23t14 58l-1 426q0 30 -21 46l-69 -31q-5 -2 -10 0.5t-5 7.5v19q0 3 12 24q16 28 4 53t-44 25q-36 0 -58.5 -31.5t-22.5 -91.5v-120h127
q14 0 14 -13v-37q0 -13 -14 -13z" />
    <glyph glyph-name=".notdef" horiz-adv-x="260" 
 />
    <glyph glyph-name=".null" horiz-adv-x="0" 
 />
    <glyph glyph-name="nonmarkingreturn" horiz-adv-x="333" 
 />
    <glyph glyph-name="CR" unicode="&#xd;" horiz-adv-x="220" 
 />
    <glyph glyph-name="space" unicode=" " horiz-adv-x="255" 
 />
    <glyph glyph-name="exclam" unicode="!" horiz-adv-x="326" 
d="M140 155q23 21 45 -1q29 -28 55 -55q22 -23 1 -44q-24 -29 -56 -55q-22 -22 -45 0q-38 35 -54 55q-22 22 -1 45q25 28 55 55zM166 216h-8q-12 0 -14 14q-29 216 -66 401q-6 29 12 47q15 15 49 43q24 19 47 0q34 -28 49 -43q18 -18 12 -47q-41 -204 -66 -401
q-2 -14 -15 -14z" />
    <glyph glyph-name="quotedbl" unicode="&#x22;" horiz-adv-x="470" 
d="M115 331q-13 101 -31 194q-4 21 -10.5 53t-10 49t-3.5 20q0 32 22 53t56 21t55.5 -21t21.5 -53q0 -3 -3.5 -20t-10 -49t-10.5 -53q-5 -28 -11 -66.5t-11.5 -77.5t-7.5 -50q-2 -12 -13 -12h-20q-12 0 -13 12zM309 331q-16 118 -30 194q-4 21 -10.5 53t-10 49t-3.5 20
q0 32 21.5 53t55.5 21t56 -21t22 -53q0 -3 -3.5 -20t-10 -49t-10.5 -53q-2 -11 -31 -194q-2 -12 -13 -12h-20q-12 0 -13 12z" />
    <glyph glyph-name="numbersign" unicode="#" horiz-adv-x="647" 
d="M409 12v190h-171v-188q0 -14 -13 -14h-47q-13 0 -13 12v190h-83q-12 0 -12 13v47q0 13 14 13h81v181h-81q-14 0 -14 13v47q0 13 13 13h82v178q0 14 13 14h47q13 0 13 -13v-179h171v178q0 14 13 14h47q13 0 13 -13v-179h81q14 0 14 -13v-47q0 -5 -4.5 -9t-9.5 -4h-81v-181
h82q13 0 13 -13v-47q0 -13 -14 -13h-81v-188q0 -14 -13 -14h-47q-13 0 -13 12zM410 274v183h-173v-183h173z" />
    <glyph glyph-name="dollar" unicode="$" horiz-adv-x="660" 
d="M116 0q-11 0 -11 11l-2 202q0 14 14 14h23q13 0 18 -12q29 -64 59 -102t79 -51v259q-35 26 -83 64q-56 43 -83 83t-27 92q0 73 53.5 118.5t137.5 50.5v70q0 13 13 13h54q13 0 13 -14v-72q14 -2 47 -10t50 -8q12 0 24.5 6.5t20.5 6.5h21q11 0 11 -11l2 -156q0 -14 -14 -14
h-22q-11 0 -18 12q-34 59 -61 82q-28 25 -65 35v-241q23 -17 86 -59q64 -43 95.5 -87t31.5 -102q0 -78 -58 -126t-151 -53v-194q0 -12 -13 -12h-54q-13 0 -13 14v192q-13 0 -23.5 0.5t-18.5 1t-21 0.5zM462 148q0 37 -19 61t-60 51l-11 7v-209q41 6 65.5 30.5t24.5 59.5z
M214 590q0 -39 66 -93q2 -2 5 -4.5t6.5 -5t5.5 -4.5v191q-38 -5 -60.5 -28t-22.5 -56z" />
    <glyph glyph-name="percent" unicode="%" horiz-adv-x="805" 
d="M77 16l575 692q10 13 24 13h48q6 0 8.5 -5.5t-1.5 -10.5l-575 -692q-9 -13 -24 -13h-48q-6 0 -8.5 6t1.5 10zM367 561q4 -77 -44 -125t-122 -48q-72 0 -119 51t-47 128q0 75 45.5 121t119.5 46q69 0 116 -48.5t51 -124.5zM126 529q20 -49 52 -70t68 -8q33 13 40 54
t-13 90t-53 70.5t-66 7.5t-41 -54.5t13 -89.5zM434 160q0 75 49 125.5t118 50.5q74 0 120 -45.5t46 -120.5q0 -77 -47 -128.5t-119 -51.5q-74 0 -120.5 46.5t-46.5 123.5zM676 131q21 49 13 89.5t-41 54.5t-67 -7.5t-53 -70.5q-20 -49 -12.5 -90t40.5 -54q36 -13 68 8t52 70
z" />
    <glyph glyph-name="ampersand" unicode="&#x26;" horiz-adv-x="948" 
d="M183 579q0 58 48 103t111 45q69 0 111 -34.5t42 -96.5q0 -36 -25.5 -74.5t-64.5 -65.5q110 -40 162 -109q31 73 35 123q4 58 -47 76q-11 4 -10 16l2 20q2 12 14 12h238q12 0 14 -12l2 -20q2 -12 -10 -16q-81 -26 -115 -86q-10 -18 -24 -44t-32 -61.5t-29 -56.5
q15 -23 40 -63t36.5 -57t29.5 -39t34.5 -30t35.5 -8q23 0 38 9.5t36 32.5q12 12 25 2l21 -16q11 -8 4 -24q-23 -49 -67.5 -82t-102.5 -33q-69 0 -116.5 40t-88.5 127q-87 -167 -250 -167q-82 0 -138 54t-56 136q0 158 195 249q-98 63 -98 150zM502 217q-25 66 -62 105
t-108 76q-142 -69 -130 -185q5 -49 43 -80.5t93 -29.5q97 3 164 114zM252 582q0 -27 31.5 -56t70.5 -47q37 41 37 92q0 31 -22 50.5t-53 19.5q-29 0 -46.5 -17t-17.5 -42z" />
    <glyph glyph-name="quotesingle" unicode="'" horiz-adv-x="276" 
d="M115 331q-13 101 -31 194q-4 21 -10.5 53t-10 49t-3.5 20q0 32 22 53t56 21t56 -21t22 -53q0 -3 -3.5 -20t-10 -49t-10.5 -53q-2 -11 -31 -194q-2 -12 -13 -12h-20q-12 0 -13 12z" />
    <glyph glyph-name="parenleft" unicode="(" horiz-adv-x="380" 
d="M98 242q0 93 23 176.5t59.5 142t71.5 98t70 63.5q9 6 15 0l20 -22q6 -8 -1 -15q-153 -164 -153 -443t153 -443q7 -7 1 -15l-20 -22q-6 -6 -15 0q-35 24 -70 63.5t-71.5 98t-59.5 142t-23 176.5z" />
    <glyph glyph-name="parenright" unicode=")" horiz-adv-x="380" 
d="M282 242q0 -93 -23 -176.5t-59.5 -142t-71.5 -98t-70 -63.5q-9 -6 -15 0l-20 22q-6 8 1 15q153 164 153 443t-153 443q-7 7 -1 15l20 22q6 6 15 0q35 -24 70 -63.5t71.5 -98t59.5 -142t23 -176.5z" />
    <glyph glyph-name="asterisk" unicode="*" horiz-adv-x="456" 
d="M153 341q0 1 9.5 23t14.5 35.5t13 39.5t13 52q-32 -7 -59 -17.5t-49.5 -22t-28.5 -14.5q-14 -5 -25 2.5t-11 23.5v99q0 16 11 23.5t25 2.5q6 -3 28.5 -14.5t49.5 -22t59 -17.5q-5 26 -12.5 52t-13 40t-14 34.5t-10.5 24.5q-5 14 2.5 25t23.5 11h99q16 0 23.5 -11t2.5 -25
q-2 -4 -10.5 -24.5t-14 -34.5t-13 -40t-12.5 -52q32 7 58.5 17.5t49 22t28.5 14.5q14 5 25 -2.5t11 -23.5v-99q0 -16 -11 -23.5t-25 -2.5q-8 3 -29 14.5t-48.5 22t-58.5 17.5q5 -26 13 -52t13 -39.5t14.5 -35.5t9.5 -23q5 -14 -2.5 -25t-23.5 -11h-99q-16 0 -23.5 11
t-2.5 25z" />
    <glyph glyph-name="plus" unicode="+" horiz-adv-x="722" 
d="M395 619v-253h253q14 0 14 -13v-42q0 -13 -14 -13h-253v-253q0 -14 -13 -14h-42q-13 0 -13 14v253h-253q-14 0 -14 13v42q0 13 14 13h253v253q0 14 13 14h42q13 0 13 -14z" />
    <glyph glyph-name="comma" unicode="," horiz-adv-x="330" 
d="M134 -21q0 42 -50 88q-25 23 -1 49q45 50 60 64q26 22 49 -1q4 -4 62 -65q17 -19 7 -45q-29 -75 -62 -132t-86 -117q-5 -5 -12 -5t-12 5l-19 18q-11 11 0 23q24 27 35 41t20 35t9 42z" />
    <glyph glyph-name="hyphen" unicode="-" horiz-adv-x="380" 
d="M270 165h-201q-10 0 -15.5 6.5t-1.5 16.5l28 74q7 19 30 19h201q10 0 15.5 -6.5t1.5 -16.5l-28 -74q-7 -19 -30 -19z" />
    <glyph glyph-name="period" unicode="." horiz-adv-x="330" 
d="M140 171q25 23 49 -1q32 -30 61 -61q24 -24 1 -49q-25 -28 -61 -60q-25 -23 -50 0q-41 38 -60 60q-24 26 -1 50q28 31 61 61z" />
    <glyph glyph-name="slash" unicode="/" horiz-adv-x="494" 
d="M442 686l-321 -882q-5 -12 -16 -7l-46 16q-12 5 -7 18l321 881q1 5 6 7.5t10 0.5l46 -16q12 -5 7 -18z" />
    <glyph glyph-name="zero" unicode="0" horiz-adv-x="610" 
d="M40 360q0 160 74.5 270.5t190.5 110.5t190.5 -110.5t74.5 -270.5t-74.5 -270t-190.5 -110t-190.5 110t-74.5 270zM136 314q30 -110 96.5 -172t141.5 -42q75 21 103 110t-2 196q-30 110 -96.5 172.5t-141.5 42.5q-75 -21 -103 -110.5t2 -196.5z" />
    <glyph glyph-name="one" unicode="1" horiz-adv-x="435" 
d="M59 626q72 38 138 88q10 7 21 7h57q12 -1 12 -13l-1 -579q0 -38 22 -56t64 -25q14 -2 12 -15l-2 -21q-2 -12 -14 -12h-286q-12 0 -14 12l-2 21q-2 13 12 15q43 7 65 25t22 56l-1 413q0 46 -49 41l-43 -4q-14 -2 -17 11l-4 19q-3 11 8 17z" />
    <glyph glyph-name="two" unicode="2" horiz-adv-x="557" 
d="M20 12v26q0 10 6 22q37 69 97 137.5t164 169.5q78 74 75 147q-1 47 -34 78.5t-80 33.5q-56 2 -93 -25.5t-73 -79.5q-11 -16 -25 -5l-23 17q-12 10 -5 23q42 77 112.5 131t151.5 54q92 0 153 -54t61 -143q0 -76 -43 -134.5t-124 -112.5q-141 -95 -196 -164h191
q37 0 59.5 11.5t57.5 40.5q10 9 20 9h28q12 0 12 -12v-21q0 -11 -5 -19l-91 -132q-7 -10 -19 -10h-365q-12 0 -12 12z" />
    <glyph glyph-name="three" unicode="3" horiz-adv-x="571" 
d="M235 -17q-104 0 -160.5 44t-56.5 93q0 35 30 48l128 64q6 2 11 -1t5 -8v-18q0 -12 -4 -21q-11 -25 -12.5 -52.5t17.5 -52t62 -24.5q58 0 94.5 36t36.5 92q0 85 -59.5 137t-134.5 50q-16 0 -16 13v40q0 12 14 14l26 5q52 10 88.5 41t36.5 75q0 38 -25 62.5t-62 24.5
q-61 0 -124 -73q-11 -14 -24 -4l-23 20q-15 10 -4 24q100 130 231 130q69 0 114.5 -38.5t45.5 -104.5q0 -51 -41 -94t-99 -62q68 -5 129.5 -60t61.5 -139q0 -113 -82 -187t-204 -74z" />
    <glyph glyph-name="four" unicode="4" horiz-adv-x="585" 
d="M35 178l-13 48q-3 13 3 24l308 462q6 9 21 9h71q12 -1 12 -13v-463h84q14 0 14 -13v-54q0 -13 -14 -13h-84v-36q0 -38 21.5 -56.5t63.5 -24.5q14 -2 12 -15l-2 -21q-2 -12 -14 -12h-286q-12 0 -14 12l-2 21q-2 13 12 15q42 7 64 25t22 56v36h-262q-14 0 -17 13zM315 563
l-209 -318h209v318z" />
    <glyph glyph-name="five" unicode="5" horiz-adv-x="557" 
d="M92 411l11 297q0 13 13 13h29q15 0 57.5 -9.5t67.5 -9.5q79 0 147 35q15 9 23 -2l14 -18q7 -10 0 -21q-15 -22 -32.5 -39.5t-33.5 -29.5t-35.5 -20.5t-33.5 -13t-33.5 -6t-30.5 -2.5t-29.5 1.5t-25 3.5t-22.5 4l-15 4l-5 -107q50 24 109 24q111 0 179.5 -64.5
t68.5 -182.5q0 -108 -84 -196t-205 -88q-90 0 -142.5 42.5t-59.5 90.5q-7 42 24 59l108 55q5 3 11 0.5t6 -9.5v-23q0 -14 -4 -23q-19 -44 1.5 -82.5t75.5 -38.5q63 0 104.5 48.5t41.5 121.5q0 74 -44.5 121t-108.5 47q-50 0 -100 -24q-12 -6 -22 4l-17 15q-8 9 -8 23z" />
    <glyph glyph-name="six" unicode="6" horiz-adv-x="617" 
d="M183 307q0 -94 53 -169.5t119 -75.5q51 0 79.5 34t28.5 84q0 97 -55 172t-121 75q-50 0 -77 -35.5t-27 -84.5zM518 639q7 -17 0 -30t-23 -18l-111 -37q-6 -2 -11 1t-5 8v18q0 12 4 21q16 36 -0.5 57.5t-50.5 21.5q-49 0 -85 -37.5t-52.5 -90t-16.5 -108.5q73 68 176 67
q100 -1 169.5 -83t69.5 -192q0 -117 -67.5 -187t-175.5 -70q-128 0 -213.5 104.5t-85.5 276.5q0 96 35 181.5t105 142t161 56.5q63 0 110 -26t67 -76z" />
    <glyph glyph-name="seven" unicode="7" horiz-adv-x="500" 
d="M244 14q1 -6 -3 -10t-10 -4h-123q-6 0 -10 4t-3 10q27 113 71.5 214t82.5 157.5t83.5 120t61.5 91.5l-196 -2q-74 0 -113 -68q-7 -12 -21 -6l-20 10q-9 5 -9 19v177q0 8 7.5 10.5t14.5 -1.5q31 -15 90 -15h324q14 0 14 -13v-53q0 -13 -6 -24q-3 -6 -42 -72t-66.5 -120
t-62 -131.5t-51.5 -153.5t-13 -140z" />
    <glyph glyph-name="eight" unicode="8" horiz-adv-x="602" 
d="M433 171q0 32 -12 58t-36 47t-43 34t-51.5 30.5t-43.5 24.5q-123 -63 -123 -170q0 -62 48.5 -102t116.5 -40q63 0 103.5 32t40.5 86zM337 476q65 42 65 98q0 50 -33.5 78.5t-82.5 28.5q-36 0 -61.5 -20.5t-25.5 -51.5q0 -9 2 -17t4.5 -14.5t8.5 -14.5t10 -13t14 -12.5
t15 -11.5t18.5 -12t19.5 -11.5t22.5 -13t23.5 -13.5zM190 400q-111 72 -111 166q0 79 64.5 127t144.5 48q82 0 139 -43t57 -113q0 -47 -30 -85.5t-68 -54.5q92 -50 134.5 -100.5t42.5 -128.5q0 -103 -81.5 -168t-194.5 -65q-110 0 -183 58t-73 152q0 76 49 128t110 79z" />
    <glyph glyph-name="nine" unicode="9" horiz-adv-x="615" 
d="M429 427q0 92 -54.5 167.5t-117.5 75.5q-50 0 -79 -34t-29 -84q0 -97 55 -171t121 -74q50 0 77 35.5t27 84.5zM97 82q-7 17 0 30t23 18l111 37q6 2 11 -1t5 -8v-18q0 -12 -4 -21q-14 -36 1 -55.5t47 -19.5q72 0 114.5 72.5t42.5 161.5q-80 -66 -178 -66q-101 0 -168 79
t-67 189q0 118 67 189.5t174 71.5q128 0 213.5 -104.5t85.5 -276.5q0 -96 -34 -181.5t-104.5 -142t-162.5 -56.5q-63 0 -110 26t-67 76z" />
    <glyph glyph-name="colon" unicode=":" horiz-adv-x="330" 
d="M140 457q25 23 49 -1q32 -30 61 -61q24 -24 1 -49q-25 -28 -61 -60q-25 -23 -50 0q-41 38 -60 60q-24 26 -1 50q28 31 61 61zM140 171q25 23 49 -1q32 -30 61 -61q24 -24 1 -49q-25 -28 -61 -60q-25 -23 -50 0q-41 38 -60 60q-24 26 -1 50q28 31 61 61z" />
    <glyph glyph-name="semicolon" unicode=";" horiz-adv-x="330" 
d="M144 457q25 23 49 -1q32 -30 61 -61q24 -24 1 -49q-25 -28 -61 -60q-25 -23 -50 0q-41 38 -60 60q-24 26 -1 50q28 31 61 61zM134 -21q0 -31 -14.5 -55t-49.5 -63q-11 -12 0 -23l19 -18q5 -5 12 -5t12 5q53 60 86 117t62 132q10 26 -7 45q-58 61 -62 65q-23 23 -49 1
q-15 -14 -60 -64q-24 -26 1 -49q50 -46 50 -88z" />
    <glyph glyph-name="less" unicode="&#x3c;" horiz-adv-x="722" 
d="M538 60l-396 229q-10 6 -10 20v47q0 14 10 20l396 229q12 7 18 -4l21 -36q7 -13 -5 -20l-370 -210l370 -215q12 -7 5 -20l-21 -36q-6 -11 -18 -4z" />
    <glyph glyph-name="equal" unicode="=" horiz-adv-x="722" 
d="M74 434h574q14 0 14 -13v-42q0 -13 -14 -13h-574q-14 0 -14 13v42q0 13 14 13zM74 298h574q14 0 14 -13v-42q0 -13 -14 -13h-574q-14 0 -14 13v42q0 13 14 13z" />
    <glyph glyph-name="greater" unicode="&#x3e;" horiz-adv-x="722" 
d="M571 289l-396 -229q-12 -7 -18 4l-21 36q-7 13 5 20l370 215l-370 210q-12 7 -5 20l21 36q6 11 18 4l396 -229q10 -6 10 -20v-47q0 -14 -10 -20z" />
    <glyph glyph-name="question" unicode="?" horiz-adv-x="421" 
d="M88 576q-2 -14 -18 -11l-22 4q-12 3 -12 17q-2 61 47 104.5t131 43.5q75 0 123.5 -45t48.5 -118q0 -43 -20.5 -80t-50 -62t-59 -47t-50 -44t-20.5 -43q0 -39 36 -39q39 0 36 50q-2 14 12 14h30q13 0 15 -14q4 -49 -22.5 -77.5t-74.5 -28.5q-43 0 -70.5 27t-27.5 69
q0 34 15 63.5t37 51.5t44 43.5t37 50t15 61.5q0 41 -24.5 65.5t-63.5 24.5t-63 -23t-29 -57zM190 155q23 21 45 -1q29 -28 55 -55q22 -23 1 -44q-24 -29 -56 -55q-22 -22 -45 0q-38 35 -54 55q-22 22 -1 45q25 28 55 55z" />
    <glyph glyph-name="at" unicode="@" horiz-adv-x="940" 
d="M363 230q25 -54 71.5 -75.5t87.5 -3.5q40 17 49.5 66.5t-17.5 112.5q-28 65 -75.5 89.5t-91.5 4.5q-40 -18 -47 -73t23 -121zM596 -143q-101 -13 -187.5 4.5t-147.5 58t-104.5 98t-64 125t-20.5 139.5q0 173 118 290.5t287 117.5q165 0 279 -110t114 -271
q0 -112 -64 -187t-146 -75q-39 0 -54.5 32.5t-8.5 79.5q-22 -53 -65 -83.5t-93 -30.5q-84 0 -134 62.5t-50 158.5q0 102 53.5 165.5t145.5 63.5q35 0 73.5 -15t63.5 -38q17 11 58 50q9 7 15 7q8 0 8 -8v-329q0 -32 32 -32q36 0 66 51t30 127q0 138 -92 228.5t-233 90.5
q-142 0 -236 -97.5t-94 -246.5q0 -77 27.5 -145.5t79.5 -121.5t138.5 -78t194.5 -11q12 2 15 -10l7 -45q3 -13 -11 -15z" />
    <glyph glyph-name="A" unicode="A" horiz-adv-x="731" 
d="M474 124l-26 88h-222l-30 -88q-10 -30 1 -47.5t49 -23.5q14 -2 12 -15l-2 -26q-2 -12 -14 -12h-220q-12 0 -14 12l-2 26q-2 13 12 15q78 12 104 81l215 576q4 11 15 11h64q11 0 15 -11l185 -576q14 -37 36.5 -56t60.5 -25q14 -2 12 -15l-2 -26q-2 -12 -14 -12h-281
q-12 0 -14 12l-2 26q-2 13 12 15q71 11 50 71zM347 560l-99 -276h186z" />
    <glyph glyph-name="B" unicode="B" horiz-adv-x="705" 
d="M372 0h-325q-12 0 -14 12l-2 26q-2 13 12 15q41 6 60.5 24t19.5 57v453q0 39 -19.5 57t-60.5 24q-14 2 -12 15l2 26q2 12 14 12h267q134 0 218.5 -52.5t84.5 -141.5q0 -52 -38 -90t-100 -49q75 -18 130.5 -66.5t55.5 -127.5q0 -97 -79.5 -145.5t-213.5 -48.5zM263 364
v-249q0 -23 16 -39.5t41 -16.5h51q61 0 106 37.5t45 97.5q0 79 -58 124.5t-140 45.5h-61zM253 420h101q62 0 99 30t37 83q0 62 -50.5 99t-129.5 37q-57 0 -57 -48v-201z" />
    <glyph glyph-name="C" unicode="C" horiz-adv-x="718" 
d="M559 710q11 0 21.5 5.5t19.5 5.5h21q11 0 11 -11l2 -201q0 -14 -14 -14h-31q-13 0 -19 13q-33 81 -82 125t-125 44q-96 0 -148.5 -72.5t-52.5 -182.5q0 -66 16 -127t47 -110.5t81 -79t113 -29.5q165 0 237 192q5 12 17 7l34 -15q9 -5 5 -17q-31 -115 -112 -189t-206 -74
q-110 0 -193 53.5t-124.5 139.5t-41.5 190q0 96 38.5 181t116 141t177.5 56q57 0 123 -15.5t69 -15.5z" />
    <glyph glyph-name="D" unicode="D" horiz-adv-x="769" 
d="M370 0h-323q-12 0 -14 12l-2 26q-2 13 12 15q41 6 61 24t20 57l-1 453q0 39 -19.5 57t-60.5 24q-14 2 -12 15l2 26q2 12 14 12h265q105 0 199.5 -48t158 -145t63.5 -223q0 -79 -28 -139t-78.5 -95.5t-114.5 -53t-142 -17.5zM310 59h57q107 0 170.5 63t63.5 182
q0 158 -79.5 258.5t-212.5 100.5q-26 0 -41.5 -15.5t-15.5 -38.5l1 -494q0 -23 16 -39.5t41 -16.5z" />
    <glyph glyph-name="E" unicode="E" horiz-adv-x="710" 
d="M446 0h-399q-12 0 -14 12l-2 26q-2 13 12 15q41 6 61 24t20 57l-1 453q0 39 -19.5 57t-60.5 24q-14 2 -12 15l2 26q2 12 14 12h369l186 3q12 0 14 -12l2 -19q2 -12 -5 -21q-12 -18 -36 -53.5t-30 -44.5q-7 -11 -18 -11h-14q-10 0 -17 11q-14 20 -22 30t-28 29t-45.5 28
t-57.5 9h-36q-56 0 -56 -49v-221h111q76 0 88 70q3 14 15 12l26 -2q12 -2 12 -14v-197q0 -12 -12 -14l-26 -2q-12 -1 -15 12q-12 69 -88 69h-101v-219q0 -55 58 -55h32q103 0 162.5 43t119.5 135q7 10 19 10h24q12 0 12 -12v-21q0 -7 -4 -21q-11 -33 -33 -105.5t-24 -79.5
q-3 -11 -17 -11q-53 2 -166 2z" />
    <glyph glyph-name="F" unicode="F" horiz-adv-x="644" 
d="M273 335v-201q0 -38 23.5 -56t66.5 -25q14 -2 12 -15l-2 -26q-2 -12 -14 -12h-312q-12 0 -14 12l-2 26q-2 13 12 15q91 14 91 81l-1 453q0 39 -19.5 57t-60.5 24q-14 2 -12 15l2 26q2 12 14 12h369l181 3q12 0 14 -12l2 -19q2 -12 -5 -21q-42 -64 -61 -98q-6 -11 -18 -11
h-14q-10 0 -17 11q-1 1 -8 11.5t-9.5 14t-10 13.5t-13 14.5t-15 12.5t-18.5 12.5t-20.5 9t-24.5 6.5t-28 2h-42q-56 0 -56 -52v-217h103q38 0 64 18t32 52q3 13 15 12l26 -2q12 -2 12 -14v-207q0 -12 -12 -14l-26 -2q-12 -2 -15 12q-6 35 -32.5 57t-63.5 22h-93z" />
    <glyph glyph-name="G" unicode="G" horiz-adv-x="753" 
d="M656 221l2 -156q0 -11 -11 -18q-114 -67 -249 -67q-160 0 -261.5 112.5t-101.5 270.5q0 71 23.5 138t66.5 121t110 86.5t146 32.5q57 0 127 -15.5t73 -15.5q11 0 21.5 5.5t19.5 5.5h21q11 0 11 -11l2 -194q0 -14 -14 -14h-27q-12 0 -18 12q-81 163 -222 163
q-99 0 -156 -78t-57 -190q0 -54 8 -103t27 -95t47.5 -79.5t72.5 -53.5t98 -20q59 0 94 30q9 8 9 21v107q0 40 -27.5 56.5t-77.5 24.5q-14 2 -12 15l2 31q2 12 14 12h299q12 0 14 -12l2 -26q2 -13 -12 -15q-38 -6 -51 -23t-13 -58z" />
    <glyph glyph-name="H" unicode="H" horiz-adv-x="956" 
d="M832 587l1 -453q0 -39 19.5 -57t60.5 -24q14 -2 12 -15l-2 -26q-2 -12 -14 -12h-291q-12 0 -14 12l-2 26q-2 13 12 15q41 6 60.5 24t19.5 57v199h-432v-199q0 -39 19.5 -57t60.5 -24q14 -2 12 -15l-2 -26q-2 -12 -14 -12h-291q-12 0 -14 12l-2 26q-2 13 12 15q41 6 61 24
t20 57l-1 453q0 39 -19.5 57t-60.5 24q-14 2 -12 15l2 26q2 12 14 12h282q12 0 14 -12l2 -26q2 -13 -12 -15q-41 -6 -60.5 -24t-19.5 -57v-178h450v178q0 39 -19.5 57t-60.5 24q-14 2 -12 15l2 26q2 12 14 12h282q12 0 14 -12l2 -26q2 -13 -12 -15q-41 -6 -61 -24t-20 -57z
" />
    <glyph glyph-name="I" unicode="I" horiz-adv-x="396" 
d="M264 587l1 -453q0 -38 20.5 -56.5t62.5 -24.5q14 -2 12 -15l-2 -26q-2 -12 -14 -12h-292q-12 0 -14 12l-2 26q-2 13 12 15q42 6 63 24.5t21 56.5l-1 453q0 38 -20.5 56.5t-62.5 24.5q-14 2 -12 15l2 26q2 12 14 12h292q12 0 14 -12l2 -26q2 -13 -12 -15q-42 -6 -63 -24.5
t-21 -56.5z" />
    <glyph glyph-name="J" unicode="J" horiz-adv-x="528" 
d="M12 65l70 78q11 9 20 8l23 -2q12 -1 15 -14l9 -38q11 -38 45 -38q79 0 79 147l-1 366q0 39 -25 64.5t-65 31.5q-14 2 -12 15l2 26q2 12 14 12h302q12 0 14 -12l2 -26q2 -13 -12 -15q-41 -6 -60.5 -24t-19.5 -57l1 -355q0 -109 -80 -178t-186 -69q-88 0 -134 44
q-8 8 -7.5 19t6.5 17z" />
    <glyph glyph-name="K" unicode="K" horiz-adv-x="789" 
d="M258 342l231 238q24 25 17.5 51.5t-40.5 35.5q-13 3 -11 16l2 26q2 12 14 12h252q12 0 14 -12l2 -25q2 -12 -9 -16q-75 -24 -152 -98l-171 -167l249 -260q58 -60 118 -91q10 -6 9 -17l-3 -22q-2 -13 -15 -13h-290q-12 0 -14 12l-2 26q-1 11 11 15q18 5 30 16.5t14 29
t-16 37.5l-176 184l-69 -68v-118q0 -40 15.5 -57.5t54.5 -23.5q14 -2 12 -15l-2 -26q-2 -12 -14 -12h-272q-12 0 -14 12l-2 26q-2 13 12 15q41 6 61 24t20 57l-1 453q0 39 -19.5 57t-60.5 24q-14 2 -12 15l2 26q2 12 14 12h278q12 0 14 -12l2 -26q2 -13 -12 -15
q-40 -6 -55.5 -23.5t-15.5 -57.5v-245z" />
    <glyph glyph-name="L" unicode="L" horiz-adv-x="665" 
d="M560 11q-6 -11 -17 -11q-35 2 -148 2l-348 -2q-12 0 -14 12l-2 26q-2 13 12 15q41 6 61 24t20 57l-1 453q0 39 -19.5 57t-60.5 24q-14 2 -12 15l2 26q2 12 14 12h292q12 0 14 -12l2 -26q2 -13 -12 -15q-42 -6 -63 -24.5t-21 -56.5l1 -467q0 -55 53 -55q46 0 86.5 11.5
t76.5 37.5t56 43.5t54 51.5l7 7l6 6q10 10 19 10h15q12 0 12 -12v-42q0 -13 -7 -25q-74 -134 -78 -142z" />
    <glyph glyph-name="M" unicode="M" horiz-adv-x="990" 
d="M734 548l-225 -547q-6 -12 -17 -12h-36q-11 0 -17 12l-241 548l1 -415q0 -39 19.5 -57t60.5 -24q14 -2 12 -15l-2 -26q-2 -12 -14 -12h-228q-12 0 -14 12l-2 26q-2 13 12 15q41 6 61 24t20 57l-1 453q0 39 -19.5 57t-60.5 24q-14 2 -12 15l2 26q2 12 14 12h308
q12 0 14 -12l2 -26q2 -13 -12 -15q-37 -6 -48 -23.5t-1 -40.5l193 -450l177 447q9 23 -2.5 42t-47.5 25q-14 2 -12 15l2 26q2 12 14 12h309q12 0 14 -12l2 -26q2 -13 -12 -15q-41 -6 -61 -24t-20 -57l1 -453q0 -39 19.5 -57t60.5 -24q14 -2 12 -15l-2 -26q-2 -12 -14 -12
h-284q-12 0 -14 12l-2 26q-2 13 12 15q41 6 60.5 24t19.5 57z" />
    <glyph glyph-name="N" unicode="N" horiz-adv-x="878" 
d="M761 0h-36q-9 0 -18 9l-509 561l1 -436q0 -39 19.5 -57t60.5 -24q14 -2 12 -15l-2 -26q-2 -12 -14 -12h-228q-12 0 -14 12l-2 26q-2 13 12 15q41 6 61 24t20 57l-1 450q0 39 -19.5 58.5t-60.5 25.5q-14 2 -12 15l2 26q2 12 14 12h191q10 0 18 -8l444 -486l-1 360
q0 39 -19.5 57t-60.5 24q-14 2 -12 15l2 26q2 12 14 12h228q12 0 14 -12l2 -26q2 -13 -12 -15q-41 -6 -61 -24t-20 -57l1 -575q0 -12 -14 -12z" />
    <glyph glyph-name="O" unicode="O" horiz-adv-x="844" 
d="M35 355q0 165 112 275.5t271 110.5q160 0 275.5 -108.5t115.5 -267.5q0 -166 -114 -275.5t-275 -109.5q-159 0 -272 108t-113 267zM392 664q-107 0 -166.5 -68t-59.5 -183q0 -154 82 -250t199 -96q107 0 166.5 68t59.5 183q0 154 -82 250t-199 96z" />
    <glyph glyph-name="P" unicode="P" horiz-adv-x="665" 
d="M58 721h318q118 0 193.5 -55t75.5 -156t-75.5 -160t-190.5 -59h-106v-157q0 -66 100 -81q14 -2 12 -15l-2 -26q-2 -12 -14 -12h-322q-12 0 -14 12l-2 26q-2 13 12 15q91 14 91 81l-1 453q0 39 -19.5 57t-60.5 24q-14 2 -12 15l2 26q2 12 15 12zM354 667h-25
q-30 0 -48 -16t-18 -43v-250h90q73 0 117 39t44 113q0 75 -49 116t-111 41z" />
    <glyph glyph-name="Q" unicode="Q" horiz-adv-x="864" 
d="M552 -11q43 -39 71.5 -61.5t74 -53t89.5 -45.5t102.5 -27t129.5 -9.5t155 17.5q16 4 19 -10l5 -24q3 -15 -11 -18q-113 -27 -223.5 -31t-216 16.5t-192 81t-134.5 155.5h-1q-159 0 -272 108t-113 267q0 165 112 275.5t271 110.5q161 0 277 -107t116 -265
q0 -132 -70 -223.5t-187 -139.5q-5 -2 -6 -7.5t4 -9.5zM393 670q-109 0 -169.5 -69.5t-60.5 -186.5q0 -157 83.5 -255t203.5 -98q109 0 169.5 69.5t60.5 186.5q0 157 -83.5 255t-203.5 98z" />
    <glyph glyph-name="R" unicode="R" horiz-adv-x="822" 
d="M273 311v-177q0 -38 23.5 -56t66.5 -25q14 -2 12 -15l-2 -26q-2 -12 -14 -12h-312q-12 0 -14 12l-2 26q-2 13 12 15q91 14 91 81l-1 453q0 39 -19.5 57t-60.5 24q-14 2 -12 15l2 26q2 12 15 12h304q120 0 198.5 -55.5t78.5 -154.5q0 -55 -35 -96t-97 -59q2 -3 35.5 -51
t52.5 -71t55.5 -64.5t76.5 -73.5t84 -56q11 -6 6 -19l-12 -25q-6 -13 -21 -7q-100 37 -234 171q-10 9 -15 14q-77 77 -133.5 107.5t-128.5 29.5zM263 613v-227h64q75 0 125 32.5t50 97.5q0 70 -41.5 110.5t-111.5 40.5h-25q-26 0 -43.5 -15t-17.5 -39z" />
    <glyph glyph-name="S" unicode="S" horiz-adv-x="607" 
d="M58 0q-11 0 -11 11l-2 202q0 14 14 14h23q13 0 18 -12q32 -71 89.5 -115t140.5 -44q52 0 84.5 27.5t32.5 68.5q0 38 -20.5 64t-60.5 49q-137 77 -200 126q-56 44 -83 83.5t-27 90.5q0 77 60 121t152 44q47 0 96.5 -11t64.5 -11q12 0 24.5 6.5t20.5 6.5h21q11 0 11 -11
l2 -156q0 -14 -14 -14h-22q-11 0 -18 12q-14 24 -24.5 39t-33 38t-54.5 35t-72 12q-44 0 -73 -22t-29 -59q0 -43 65 -92q70 -53 208 -129q131 -72 131 -189q0 -85 -67 -136t-171 -50q-49 1 -100 3t-68 2z" />
    <glyph glyph-name="T" unicode="T" horiz-adv-x="810" 
d="M464 659l1 -525q0 -38 23.5 -56t66.5 -25q14 -2 12 -15l-2 -26q-2 -12 -14 -12h-312q-12 0 -14 12l-2 26q-2 13 12 15q91 14 91 81l-1 525h-53q-47 0 -82.5 -8.5t-59.5 -24.5t-37.5 -30.5t-28.5 -36.5q-8 -12 -20 -12h-28q-6 0 -9 4.5t-1 9.5l53 166q5 13 17 13h25
q8 0 18 -10q9 -9 30 -9h562q24 0 37 11q10 8 19 8h27q6 0 9 -4.5t1 -10.5l-52 -167q-5 -11 -15 -11h-18q-12 0 -16 11q-12 31 -28.5 50.5t-57 35t-103.5 15.5h-50z" />
    <glyph glyph-name="U" unicode="U" horiz-adv-x="772" 
d="M668 587v-368q0 -114 -75.5 -174t-198.5 -60q-122 0 -199 62.5t-77 176.5v363q0 39 -19.5 57t-60.5 24q-14 2 -12 15l2 26q2 12 14 12h282q12 0 14 -12l2 -26q2 -13 -12 -15q-41 -6 -60.5 -24t-19.5 -57v-369q0 -74 49.5 -117t127.5 -43q82 0 129.5 44.5t47.5 114.5v370
q0 39 -19.5 57t-60.5 24q-14 2 -12 15l2 26q2 12 14 12h218q12 0 14 -12l2 -26q2 -13 -12 -15q-41 -6 -60.5 -24t-19.5 -57z" />
    <glyph glyph-name="V" unicode="V" horiz-adv-x="730" 
d="M257 597l140 -408l137 408q12 29 3.5 47t-44.5 24q-14 2 -12 15l2 26q2 12 14 12h211q12 0 14 -12l2 -26q2 -13 -12 -15q-78 -12 -104 -81l-209 -576q-4 -11 -15 -11h-38q-11 0 -15 11l-216 576q-14 37 -36.5 56t-60.5 25q-14 2 -12 15l2 26q2 12 14 12h271q12 0 14 -12
l2 -26q2 -13 -12 -15q-36 -6 -44 -24.5t4 -46.5z" />
    <glyph glyph-name="W" unicode="W" horiz-adv-x="1147" 
d="M693 597l146 -406l127 406q11 29 2 47t-43 24q-13 3 -12 15l2 26q2 12 14 12h196q12 0 14 -12l2 -26q2 -13 -12 -15q-35 -6 -55 -24.5t-34 -56.5l-199 -576q-4 -11 -15 -11h-38q-11 0 -15 11l-203 524l-195 -524q-4 -11 -15 -11h-38q-11 0 -15 11l-207 576q-15 39 -32 57
t-50 24q-14 3 -12 15l2 26q2 12 14 12h256q12 0 14 -12l2 -26q2 -12 -12 -15q-61 -10 -40 -71l131 -406l142 406q11 29 2 47t-43 24q-14 3 -12 15l2 26q2 12 14 12h251q12 0 14 -12l2 -26q1 -12 -12 -15q-61 -10 -40 -71z" />
    <glyph glyph-name="X" unicode="X" horiz-adv-x="761" 
d="M424 414l197 -280q48 -71 112 -81q14 -2 12 -15l-2 -26q-2 -12 -14 -12h-306q-12 0 -14 12l-2 26q-2 13 12 15q39 6 53 28t-4 47l-107 160l-123 -159q-19 -24 -6.5 -47t50.5 -29q14 -2 12 -15l-2 -26q-2 -12 -14 -12h-246q-12 0 -14 12l-2 26q-2 13 12 15q64 10 121 81
l175 209l-171 244q-48 70 -102 81q-13 3 -12 15l2 26q2 12 14 12h285q12 0 14 -12l2 -26q2 -13 -12 -15q-37 -6 -47 -28t8 -47l83 -125l108 125q20 23 11 46t-46 29q-14 2 -12 15l2 26q2 12 14 12h228q12 0 14 -12l2 -26q2 -13 -12 -15q-63 -10 -120 -81z" />
    <glyph glyph-name="Y" unicode="Y" horiz-adv-x="665" 
d="M274 134v212l-159 241q-44 70 -97 81q-14 3 -12 15l2 26q2 12 14 12h272q12 0 14 -12l2 -26q2 -13 -12 -15q-37 -6 -46 -26.5t9 -44.5l105 -181l98 181q32 60 -41 71q-14 2 -12 15l2 26q2 12 14 12h216q12 0 14 -12l2 -26q2 -13 -12 -15q-74 -11 -114 -81l-125 -220
l1 -233q0 -39 20 -57t61 -24q14 -2 12 -15l-2 -26q-2 -12 -14 -12h-289q-12 0 -14 12l-2 26q-2 13 12 15q41 6 61 24t20 57z" />
    <glyph glyph-name="Z" unicode="Z" horiz-adv-x="696" 
d="M472 663l-108 -3q-94 -6 -146.5 -30t-101.5 -95q-8 -12 -21 -6l-20 10q-13 5 -6 19l92 174q7 14 22 3q16 -14 59 -14h420q5 0 7 -4.5t-1 -8.5l-482 -644l192 10q154 10 257 140q9 13 22 6l20 -11q14 -6 7 -20l-107 -211q-2 -6 -9.5 -6t-11.5 5q-22 23 -61 23h-468
q-12 0 -12 12v20q0 9 8 21z" />
    <glyph glyph-name="bracketleft" unicode="[" horiz-adv-x="310" 
d="M60 -230v937q0 14 13 14h208q14 0 14 -13v-38q0 -13 -14 -13h-118v-837h118q14 0 14 -13v-38q0 -13 -14 -13h-208q-13 0 -13 14z" />
    <glyph glyph-name="backslash" unicode="\" horiz-adv-x="494" 
d="M373 -196l-321 882q-5 13 7 18l46 16q5 2 10 -0.5t6 -7.5l321 -881q5 -13 -7 -18l-46 -16q-11 -5 -16 7z" />
    <glyph glyph-name="bracketright" unicode="]" horiz-adv-x="310" 
d="M250 707v-937q0 -14 -13 -14h-208q-14 0 -14 13v38q0 13 14 13h118v837h-118q-14 0 -14 13v38q0 13 14 13h208q13 0 13 -14z" />
    <glyph glyph-name="asciicircum" unicode="^" horiz-adv-x="722" 
d="M404 709l229 -396q7 -12 -4 -18l-36 -21q-13 -7 -20 5l-215 370l-210 -370q-7 -12 -20 -5l-36 21q-11 6 -4 18l229 396q7 12 20 12h47q13 0 20 -12z" />
    <glyph glyph-name="underscore" unicode="_" 
d="M386 -70h-372q-14 0 -14 13v44q0 13 14 13h372q14 0 14 -13v-44q0 -13 -14 -13z" />
    <glyph glyph-name="grave" unicode="`" horiz-adv-x="500" 
d="M286 740l1 -207q0 -10 -10 -10h-26q-9 0 -14 9l-87 206q-2 4 -0.5 8t6.5 4h120q10 0 10 -10z" />
    <glyph glyph-name="a" unicode="a" horiz-adv-x="503" 
d="M272 121l1 114q-52 -18 -96 -44q-47 -29 -47 -66q0 -22 13.5 -35t35.5 -13q43 0 93 44zM113 359q-14 -7 -20 6l-11 24q-5 11 6 18q93 56 200 56q104 0 104 -98l-3 -251q0 -15 9 -24t24 -9q26 0 54 14q5 3 10.5 1.5t6.5 -7.5l4 -28q2 -12 -7 -21q-49 -47 -119 -47t-91 68
q-75 -71 -155 -71q-48 0 -78.5 30.5t-30.5 77.5q0 92 141 145q51 20 112 37l1 69q0 41 -41 41q-54 0 -116 -31z" />
    <glyph glyph-name="b" unicode="b" horiz-adv-x="549" 
d="M198 329v-194q0 -33 20 -51.5t51 -18.5q61 0 103 42.5t42 110.5q0 67 -37.5 106.5t-96.5 39.5q-50 0 -82 -35zM198 747l-2 -332q56 56 140 56q81 0 132 -50.5t51 -139.5q0 -132 -92.5 -214t-224.5 -82q-57 0 -91 29.5t-34 87.5l-1 449q0 27 -16 44t-42 22q-13 3 -13 14
v20q0 12 10 16q76 31 135 85q8 8 19 8h17q12 -2 12 -13z" />
    <glyph glyph-name="c" unicode="c" horiz-adv-x="471" 
d="M395 331l-34 -27q-9 -7 -19 -7h-10q-10 0 -13 10q-14 49 -34.5 74.5t-59.5 25.5q-40 0 -63.5 -33t-23.5 -83q0 -89 44.5 -144t122.5 -55q70 0 115 54q9 11 21 4l14 -10q10 -8 4 -19q-23 -56 -74.5 -96t-125.5 -40q-102 0 -166.5 70t-64.5 172q0 108 67 176t169 68
q78 0 124 -41q26 -21 29 -49.5t-22 -49.5z" />
    <glyph glyph-name="d" unicode="d" horiz-adv-x="607" 
d="M243 467q72 0 131 -48l-4 132q-2 56 -59 66q-13 3 -13 14v20q0 12 10 16q77 32 136 85q8 8 19 8h17q12 -2 12 -13l-1 -633q0 -33 34 -33q27 0 55 14q5 3 10.5 1.5t6.5 -7.5l4 -28q2 -12 -7 -21q-49 -47 -119 -47q-68 0 -89 67q-24 -33 -62 -54t-83 -21q-96 0 -154 70
t-58 172q0 105 57.5 172.5t156.5 67.5zM153 186q27 -62 75.5 -86t95.5 -7q45 17 58.5 70t-14.5 125q-30 71 -82 97.5t-101 3.5q-44 -20 -53 -76t21 -127z" />
    <glyph glyph-name="e" unicode="e" horiz-adv-x="470" 
d="M143 248l154 70q7 39 -12 66t-57 27q-56 0 -79.5 -49t-5.5 -114zM258 -15q-99 -1 -163.5 70t-64.5 171q0 105 63.5 175t161.5 70q68 0 107.5 -37.5t53.5 -92.5q2 -8 2 -16v-14q0 -12 -10 -15l-258 -98q16 -51 54.5 -80t95.5 -28q71 2 119 59q9 11 21 4l14 -10
q10 -8 4 -19q-23 -56 -74.5 -97t-125.5 -42z" />
    <glyph glyph-name="f" unicode="f" horiz-adv-x="370" 
d="M344 393h-119l-1 -264q0 -40 15.5 -57.5t55.5 -23.5q14 -2 12 -15l-2 -21q-2 -12 -14 -12h-256q-12 0 -14 12l-2 21q-2 13 12 15q40 6 56 23.5t16 57.5l-1 155q0 86 -61 114q-13 6 -13 17v28q0 13 14 13h60q0 75 27.5 143.5t83.5 114.5t128 46q49 0 84 -27.5t35 -67.5
t-40 -59l-79 -36q-5 -2 -10 0.5t-5 7.5v19q0 12 7 24q17 28 6.5 53t-41.5 25q-36 0 -58.5 -31.5t-22.5 -91.5v-120h127q14 0 14 -13v-37q0 -13 -14 -13z" />
    <glyph glyph-name="g" unicode="g" horiz-adv-x="536" 
d="M37 288q0 80 58 132.5t142 52.5q55 0 101.5 -22.5t74.5 -62.5q32 68 77 68q23 0 37 -13t14 -35t-16.5 -36.5t-39.5 -14.5q2 8 -2.5 14.5t-14.5 6.5q-18 0 -34 -35q8 -26 8 -51q0 -83 -58.5 -135t-143.5 -52q-35 0 -62 7q-32 -12 -32 -32q0 -25 46 -32q28 -4 91.5 -5
t88.5 -3q62 -5 98.5 -35t36.5 -84q0 -69 -75 -112t-182 -43q-112 0 -173.5 32.5t-61.5 82.5q0 55 79 82q-60 32 -60 83q0 31 26.5 53.5t64.5 32.5q-88 49 -88 156zM335 248q0 55 -35 100.5t-89 45.5q-38 0 -63 -24t-25 -68q0 -53 35.5 -98.5t88.5 -45.5q38 0 63 23t25 67z
M113 -109q0 -71 137 -71q64 0 108 17.5t44 47.5q0 17 -13 27.5t-36 11.5q-146 4 -191 14l-21 6q-28 -21 -28 -53z" />
    <glyph glyph-name="h" unicode="h" horiz-adv-x="600" 
d="M212 296v-167q0 -42 11 -58.5t49 -22.5q14 -2 12 -15l-2 -21q-2 -12 -14 -12h-236q-12 0 -14 12l-2 21q-2 13 12 15q39 6 53 23t14 58l-1 422q0 27 -16 44t-42 22q-13 3 -13 14v20q0 12 10 16q77 32 136 85q8 8 19 8h17q12 -2 12 -13l-5 -386q43 46 82 70.5t89 24.5
q57 0 90.5 -39t33.5 -97v-191q0 -41 13.5 -58t51.5 -23q14 -2 12 -15l-2 -21q-2 -12 -14 -12h-241q-12 0 -14 12l-2 21q-2 13 12 15q38 6 49.5 22.5t11.5 58.5v187q0 26 -14.5 41.5t-38.5 15.5q-63 0 -119 -77z" />
    <glyph glyph-name="i" unicode="i" horiz-adv-x="325" 
d="M44 378q78 29 158 91q10 8 16 8q9 0 9 -8l-1 -340q0 -40 15.5 -57.5t55.5 -23.5q14 -2 12 -15l-2 -21q-2 -12 -14 -12h-256q-12 0 -14 12l-2 21q-2 13 12 15q40 6 58 24t18 57l-1 139q0 27 -17 43.5t-44 21.5q-13 3 -13 14v15q0 12 10 16zM137 725q23 21 45 -1
q30 -28 57 -57q23 -23 1 -44q-25 -29 -58 -57q-22 -22 -45 0q-39 37 -56 57q-22 22 -1 45q26 29 57 57z" />
    <glyph glyph-name="j" unicode="j" horiz-adv-x="297" 
d="M105 -66l-1 334q0 27 -16 43.5t-42 21.5q-13 3 -13 14v15q0 12 10 16q80 29 159 91q10 8 16 8q9 0 9 -8l-1 -409q0 -135 -68 -219.5t-170 -84.5q-72 0 -110 42q-7 9 -7 21t7 20l54 62q8 9 20 8l13 -2q12 -1 15 -14l14 -36q14 -38 44 -38t48.5 29t18.5 86zM137 725
q24 20 45 -1q30 -28 57 -57q21 -21 1 -44q-32 -34 -58 -57q-22 -19 -45 0q-27 22 -56 57q-22 22 -1 45q26 29 57 57z" />
    <glyph glyph-name="k" unicode="k" horiz-adv-x="600" 
d="M212 244l93 97q20 21 16.5 40t-24.5 27q-11 4 -10 16l2 20q2 12 14 12h213q12 0 14 -12l2 -20q2 -12 -10 -16q-52 -18 -91 -40.5t-85 -65.5l-23 -22l121 -120q83 -83 143 -112q11 -5 9 -16l-4 -20q-2 -12 -15 -12h-242q-12 0 -14 12l-2 19q-1 10 10 16q21 10 26.5 27
t-12.5 38l-95 97l-35 -33v-47q0 -42 10.5 -58.5t42.5 -22.5q14 -3 12 -15l-2 -21q-2 -12 -14 -12h-230q-12 0 -14 12l-2 21q-2 13 12 15q39 6 53 23t14 58l-1 422q0 27 -16 44t-42 22q-13 3 -13 14v20q0 12 10 16q77 32 136 85q8 8 19 8h17q12 -2 12 -13z" />
    <glyph glyph-name="l" unicode="l" horiz-adv-x="320" 
d="M38 667q77 32 136 85q8 8 19 8h17q12 -2 12 -13l-1 -618q0 -40 15.5 -57.5t55.5 -23.5q14 -2 12 -15l-2 -21q-2 -12 -14 -12h-256q-12 0 -14 12l-2 21q-2 13 12 15q40 6 56.5 23.5t16.5 57.5l-1 422q0 27 -16.5 44t-42.5 22q-13 3 -13 14v20q0 12 10 16z" />
    <glyph glyph-name="m" unicode="m" horiz-adv-x="881" 
d="M614 0q-12 0 -14 12l-2 21q-2 12 12 15q35 6 47.5 23t12.5 58v187q0 26 -14.5 41.5t-38.5 15.5q-28 0 -60.5 -20.5t-59.5 -57.5v-177q0 -33 10.5 -48.5t38.5 -21.5q14 -3 12 -15l-2 -21q-2 -12 -14 -12h-202q-12 0 -14 12l-2 21q-2 12 12 15q24 6 34.5 21.5t10.5 48.5
v196q0 26 -14.5 42.5t-38.5 16.5q-59 0 -116 -78v-166q0 -41 12.5 -58t47.5 -23q14 -3 12 -15l-2 -21q-2 -12 -14 -12h-236q-12 0 -14 12l-2 21q-2 13 12 15q39 6 53 23t14 58l-1 151q0 27 -16 44t-42 22q-13 3 -13 14v21q0 12 10 15q84 25 164 70q11 7 22 7t9 -11l-22 -102
q43 45 83.5 70.5t90.5 25.5q46 0 75.5 -24.5t39.5 -66.5q87 91 174 91q57 0 90.5 -39t33.5 -97v-191q0 -41 13.5 -58t51.5 -23q14 -2 12 -15l-2 -21q-2 -12 -14 -12h-240z" />
    <glyph glyph-name="n" unicode="n" horiz-adv-x="595" 
d="M212 296v-167q0 -42 11 -58.5t49 -22.5q14 -2 12 -15l-2 -21q-2 -12 -14 -12h-236q-12 0 -14 12l-2 21q-2 13 12 15q39 6 53 23t14 58l-1 151q0 27 -16 44t-42 22q-13 3 -13 14v21q0 12 10 15q84 25 164 70q11 7 22 7t9 -11l-22 -102q90 96 177 96q57 0 90.5 -39
t33.5 -97v-191q0 -41 13.5 -58t51.5 -23q14 -2 12 -15l-2 -21q-2 -12 -14 -12h-241q-12 0 -14 12l-2 21q-2 13 12 15q38 6 49.5 22.5t11.5 58.5v187q0 26 -14.5 41.5t-38.5 15.5q-63 0 -119 -77z" />
    <glyph glyph-name="o" unicode="o" horiz-adv-x="548" 
d="M517 228q0 -109 -69 -177.5t-176 -68.5q-104 0 -172.5 71.5t-68.5 175.5q0 106 67 174t174 68q102 0 173.5 -69.5t71.5 -173.5zM159 182q31 -73 82.5 -105.5t105.5 -9.5q51 21 60.5 81t-22.5 130q-32 73 -85.5 105.5t-103.5 10.5t-59 -81.5t22 -130.5z" />
    <glyph glyph-name="p" unicode="p" horiz-adv-x="603" 
d="M222 462l-18 -97q22 44 65.5 74.5t99.5 30.5q91 0 146 -70.5t55 -177.5q0 -111 -59 -174t-156 -63q-74 0 -141 52l3 -152q1 -39 20.5 -57t60.5 -24q14 -2 12 -15l-2 -21q-2 -12 -14 -12h-267q-12 0 -14 12l-2 21q-2 13 12 15q40 6 56 23.5t16 57.5l-1 395q0 27 -16 44
t-42 22q-13 3 -13 14v21q0 12 10 15q71 21 158 70q11 7 21 7q12 0 10 -11zM232 157q27 -63 76.5 -87.5t96.5 -7.5q45 17 58.5 71.5t-15.5 126.5q-30 71 -82.5 96t-101.5 3q-44 -20 -53 -74.5t21 -127.5z" />
    <glyph glyph-name="q" unicode="q" horiz-adv-x="558" 
d="M489 466l-1 -586q0 -36 14.5 -53t47.5 -23q14 -3 12 -15l-2 -21q-2 -12 -14 -12h-257q-12 0 -14 12l-2 21q-2 13 12 15q41 6 61 24t20 57l4 149q-56 -49 -134 -49q-97 0 -151.5 69t-54.5 175t65.5 174.5t168.5 68.5q70 0 139 -46q42 26 61 41q8 7 16 7q9 0 9 -8zM149 188
q28 -63 76.5 -87t94.5 -5t59.5 68.5t-14.5 121.5q-31 72 -84 100t-101 4q-44 -22 -53 -76.5t22 -125.5z" />
    <glyph glyph-name="r" unicode="r" horiz-adv-x="425" 
d="M176 288q37 66 87 115.5t89 49.5q31 0 49.5 -17.5t18.5 -47.5q0 -36 -28 -57l-45 -34q-5 -3 -9.5 -1.5t-6.5 6.5q-12 35 -44 35q-44 0 -75 -73v-135q0 -41 18.5 -58t60.5 -23q14 -2 12 -15l-2 -21q-2 -12 -14 -12h-255q-12 0 -14 12l-2 21q-2 13 12 15q39 6 53 23t14 58
l-1 151q0 27 -16 44t-42 22q-13 3 -13 14v21q0 11 10 15q98 35 182 100q11 8 19 8q5 0 8 -4t1 -9q-45 -106 -67 -203z" />
    <glyph glyph-name="s" unicode="s" horiz-adv-x="451" 
d="M132 1q-45 3 -78 -1q-13 -2 -13 11l-2 131q0 14 14 14h17q10 0 18 -11q70 -101 161 -101q29 0 47.5 12.5t18.5 33.5t-15.5 34.5t-55.5 33.5q-52 26 -104 59q-91 57 -91 132q0 56 40 88t104 32q29 0 70 -12.5t51 -12.5q11 0 22.5 6t18.5 6h14q11 0 11 -11l2 -117
q0 -14 -13 -14h-16q-10 0 -18 12q-68 94 -136 94q-21 0 -35 -11.5t-14 -29.5q0 -19 15 -34t45 -34q59 -36 110 -62q97 -50 97 -127q0 -60 -45 -96t-115 -36q-24 0 -73 5.5t-52 5.5z" />
    <glyph glyph-name="t" unicode="t" horiz-adv-x="365" 
d="M208 456h129q6 0 9 -4t2 -10l-8 -37q-3 -12 -16 -12h-98l-17 1l-1 -280q0 -41 36 -41q14 0 36 13t35 26q5 5 11.5 4t9.5 -6l18 -25q7 -12 -3 -20q-87 -79 -159 -79q-50 0 -78 29t-27 78v242q0 25 -11 37.5t-36 18.5q-13 3 -14 15l-5 31q-1 12 9 19q93 61 150 164
q6 11 19 11h33q14 0 11 -14z" />
    <glyph glyph-name="u" unicode="u" horiz-adv-x="590" 
d="M470 -10q-89 0 -104 81q-94 -86 -173 -86q-54 0 -86 31.5t-31 87.5q0 46 4 117t4 107q0 37 -13.5 55.5t-47.5 24.5q-13 3 -12 15l2 21q2 12 14 12h164q13 0 13 -12q0 -88 -10 -300q-1 -30 16 -46.5t47 -16.5q47 0 109 66v180q0 38 -13.5 56.5t-47.5 24.5q-13 3 -12 15
l2 21q2 12 14 12h164q13 0 13 -12l-1 -336q0 -15 9.5 -24t25.5 -9q17 0 44 10q14 6 16 -8l4 -24q1 -12 -7 -20q-43 -43 -107 -43z" />
    <glyph glyph-name="v" unicode="v" horiz-adv-x="530" 
d="M428 321l-130 -310q-5 -11 -16 -11h-20q-11 0 -16 12l-148 309q-19 37 -35 55.5t-47 31.5q-12 4 -10 16l2 20q2 12 14 12h223q12 0 14 -12l2 -20q1 -12 -10 -16q-22 -8 -31 -26.5t2 -46.5l79 -181l74 181q9 28 0.5 46.5t-29.5 26.5q-11 4 -10 16l2 20q2 12 14 12h156
q12 0 14 -12l2 -20q2 -12 -10 -16q-33 -14 -53 -33.5t-33 -53.5z" />
    <glyph glyph-name="w" unicode="w" horiz-adv-x="818" 
d="M716 321l-122 -310q-5 -11 -16 -11h-25q-11 0 -16 12l-127 270l-114 -271q-5 -11 -16 -11h-25q-11 0 -16 12l-141 309q-19 37 -35 55.5t-47 31.5q-12 4 -10 16l2 20q2 12 14 12h223q12 0 14 -12l2 -20q1 -12 -10 -16q-22 -8 -31 -26.5t2 -46.5l75 -182l73 182
q10 26 -1.5 45.5t-33.5 27.5q-11 4 -10 16l2 20q2 12 14 12h197q12 0 14 -12l2 -20q1 -12 -10 -16q-22 -8 -31 -26.5t2 -46.5l80 -181l68 181q9 28 0.5 46.5t-29.5 26.5q-11 4 -10 16l2 20q2 12 14 12h156q12 0 14 -12l2 -20q2 -12 -10 -16q-33 -14 -53 -33.5t-33 -53.5z
" />
    <glyph glyph-name="x" unicode="x" horiz-adv-x="635" 
d="M50 408q-11 5 -9 16l4 20q2 12 15 12h236q12 0 14 -12l2 -19q1 -10 -10 -16q-20 -9 -22.5 -26.5t16.5 -38.5l38 -41l40 38q20 21 19 40.5t-21 27.5q-11 4 -10 16l2 19q2 12 14 12h207q12 0 14 -12l2 -20q2 -12 -10 -16q-91 -31 -177 -104l-44 -38l104 -106
q83 -83 143 -112q11 -5 9 -16l-4 -20q-2 -12 -15 -12h-249q-12 0 -14 12l-2 19q-1 10 10 16q21 10 27 28t-12 39l-63 66l-67 -65q-20 -21 -18 -40.5t22 -27.5q11 -4 10 -16l-3 -19q-2 -12 -14 -12h-210q-12 0 -14 12l-2 20q-2 12 10 16q94 32 175 106l73 66l-72 76
q-74 79 -144 112z" />
    <glyph glyph-name="y" unicode="y" horiz-adv-x="525" 
d="M154 -172l-34 18q-12 7 -5 20l117 213l-134 242q-20 35 -37.5 53.5t-44.5 33.5q-11 6 -10 16l2 20q2 12 14 12h223q12 0 14 -12l2 -20q1 -12 -10 -16q-21 -8 -29 -28.5t5 -46.5l71 -138l63 140q11 27 2.5 46t-29.5 27q-11 4 -10 16l2 20q2 12 14 12h163q12 0 14 -12
l2 -20q2 -12 -10 -16q-31 -13 -49.5 -32.5t-36.5 -54.5l-249 -488q-7 -12 -20 -5z" />
    <glyph glyph-name="z" unicode="z" horiz-adv-x="480" 
d="M17 49l293 356q-90 0 -148.5 -20t-94.5 -68q-9 -13 -23 -4l-17 10q-12 7 -6 19l63 125q3 6 10 7t13 -4q20 -14 55 -14h297q7 0 10 -5t-1 -11l-310 -381q195 0 262 89q10 13 23 6l19 -10q13 -8 6 -21l-64 -134q-7 -13 -23 -3q-22 14 -70 14h-290q-12 0 -12 12v15
q0 10 8 22z" />
    <glyph glyph-name="braceleft" unicode="{" horiz-adv-x="380" 
d="M286 133q3 -30 -10 -66.5t-26.5 -65t-21 -56.5t8 -50t59.5 -36q11 -4 8 -16l-7 -21q-3 -12 -17 -8q-51 11 -81.5 38t-41.5 52t-8 69t7 61.5t16 57.5q3 10 4 15q14 48 -1.5 80t-52.5 44q-26 8 -50 8q-13 0 -13 13v33q0 13 13 13q29 0 50 8q81 29 54 124q-25 87 -27 123
q-10 139 131 170q14 4 17 -8l7 -21q3 -12 -8 -16q-44 -14 -59.5 -36t-8 -50t21 -56.5t26.5 -65t10 -66.5q-7 -64 -54.5 -98t-106.5 -37q58 -3 106 -37.5t55 -98.5z" />
    <glyph glyph-name="bar" unicode="|" horiz-adv-x="390" 
d="M235 707v-939q0 -12 -13 -12h-54q-13 0 -13 14v938q0 13 13 13h54q13 0 13 -14z" />
    <glyph glyph-name="braceright" unicode="}" horiz-adv-x="380" 
d="M94 133q6 64 54.5 98.5t106.5 37.5q-59 3 -107 37t-54 98q-3 30 10 66.5t26.5 65t21 56.5t-8 50t-59.5 36q-11 4 -8 16l7 21q3 12 17 8q51 -11 81.5 -38t41.5 -52t8 -69t-7 -61.5t-16 -57.5q-3 -10 -4 -15q-27 -95 54 -124q21 -8 50 -8q13 0 13 -13v-33q0 -13 -13 -13
q-24 0 -50 -8q-37 -12 -52.5 -44t-1.5 -80q25 -87 27 -123q10 -139 -131 -170q-14 -4 -17 8l-7 21q-3 12 8 16q44 14 59.5 36t8 50t-21 56.5t-26.5 65t-10 66.5z" />
    <glyph glyph-name="asciitilde" unicode="~" horiz-adv-x="722" 
d="M504 263q-45 0 -149 44.5t-142 44.5q-62 0 -74 -79q-2 -13 -15 -10l-29 6q-12 3 -10 17q5 76 34.5 116t99.5 40q57 0 160 -44.5t131 -44.5q64 0 74 79q2 13 15 10l29 -6q12 -3 10 -17q-5 -76 -34.5 -116t-99.5 -40z" />
    <glyph glyph-name="uni00A0" unicode="&#xa0;" horiz-adv-x="260" 
 />
    <glyph glyph-name="exclamdown" unicode="&#xa1;" horiz-adv-x="326" 
d="M140 302q-30 27 -55 55q-21 23 1 45q16 20 54 55q23 22 45 0q32 -26 56 -55q21 -22 -1 -44q-26 -27 -55 -55q-22 -22 -45 -1zM158 241h8q13 0 15 -14q25 -197 66 -401q6 -29 -12 -47q-15 -15 -49 -43q-23 -19 -47 0q-34 28 -49 43q-18 18 -12 47q37 185 66 401
q2 14 14 14z" />
    <glyph glyph-name="cent" unicode="&#xa2;" horiz-adv-x="660" 
d="M510 461l-33 -27q-9 -7 -20 -7h-10q-10 0 -13 10q-29 100 -106 101l116 -315q53 16 86 57q9 11 21 4l14 -10q10 -8 4 -19q-28 -69 -94 -109l61 -166q3 -11 -9 -16l-50 -18q-14 -5 -17 9l-60 163q-18 -3 -38 -3q-103 0 -170.5 70.5t-67.5 171.5q0 69 30.5 123t82.5 86
l-64 177q-5 11 8 17l50 18q13 5 17 -9l64 -174q25 6 55 6q89 0 135 -41q26 -21 29 -49.5t-21 -49.5zM226 421q-2 -80 35 -137t106 -67l-106 291q-35 -35 -35 -87z" />
    <glyph glyph-name="sterling" unicode="&#xa3;" horiz-adv-x="660" 
d="M349 360h136q14 0 14 -13v-42q0 -13 -14 -13h-129q-6 -130 -151 -198l122 4q77 2 126 29t91 88q7 10 19 10h24q12 0 12 -12v-21q0 -12 -4 -21q-28 -72 -57 -162q-3 -11 -17 -11q-53 2 -166 2h-304q-12 0 -12 12v24q0 13 10 19q7 4 41.5 23.5t43.5 25t37 23t37.5 27
t27.5 28t24.5 33t13 35t6.5 42.5h-146q-14 0 -14 13v42q0 13 14 13h135q-5 15 -46 98.5t-42 131.5q0 71 43.5 111t117.5 40q126 0 229 -128q10 -12 -2 -24l-23 -22q-13 -13 -24 2q-65 75 -127 75q-44 0 -69 -24.5t-25 -70.5q0 -39 23 -109.5t25 -79.5z" />
    <glyph glyph-name="currency" unicode="&#xa4;" horiz-adv-x="666" 
d="M333 167q70 0 117 47.5t47 117.5t-47 117.5t-117 47.5t-117 -47.5t-47 -117.5t47 -117.5t117 -47.5zM333 99q-79 0 -140 45l-39 -39q-9 -9 -19 -1l-30 30q-8 10 1 19l39 39q-45 61 -45 140q0 78 45 139l-39 40q-9 9 -1 19l30 30q10 8 19 -1l39 -40q62 46 140 46
q77 0 139 -46l40 40q9 9 19 1l30 -30q8 -10 -1 -19l-40 -40q46 -62 46 -139q0 -78 -46 -140l40 -39q9 -9 1 -19l-30 -30q-10 -8 -19 1l-40 39q-61 -45 -139 -45z" />
    <glyph glyph-name="yen" unicode="&#xa5;" horiz-adv-x="660" 
d="M400 320h189q14 0 14 -13v-42q0 -13 -14 -13h-189v-118q0 -39 20 -57t61 -24q14 -2 12 -15l-2 -26q-2 -12 -14 -12h-286q-12 0 -14 12l-2 26q-2 13 12 15q41 6 61 24t20 57v118h-197q-14 0 -14 13v42q0 13 14 13h197v68h-197q-14 0 -14 13v42q0 13 14 13h156l-88 131
q-47 71 -97 81q-14 3 -12 15l2 26q2 12 14 12h254q12 0 14 -12l2 -26q2 -13 -12 -15q-66 -10 -32 -71l86 -159l83 159q33 60 -36 71q-14 2 -12 15l2 26q2 12 14 12h205q12 0 14 -12l2 -26q2 -13 -12 -15q-69 -11 -109 -81l-75 -131h155q14 0 14 -13v-42q0 -13 -14 -13h-189
v-68z" />
    <glyph glyph-name="brokenbar" unicode="&#xa6;" horiz-adv-x="390" 
d="M235 707v-288q0 -12 -13 -12h-54q-13 0 -13 14v287q0 13 13 13h54q13 0 13 -14zM235 56v-288q0 -12 -13 -12h-54q-13 0 -13 14v287q0 13 13 13h54q13 0 13 -14z" />
    <glyph glyph-name="section" unicode="&#xa7;" horiz-adv-x="620" 
d="M100 570q0 77 49.5 118.5t128.5 41.5q42 0 86.5 -11t60.5 -11q12 0 24.5 6.5t20.5 6.5h21q11 0 11 -11l2 -161q0 -14 -14 -14h-22q-11 0 -18 12q-15 26 -24.5 40.5t-31.5 39t-51.5 37t-64.5 12.5q-36 0 -58 -20.5t-22 -55.5q0 -51 64 -94q27 -18 187 -114q55 -32 82 -71
t24 -95q-3 -51 -38 -88.5t-83 -57.5q89 -76 89 -150q0 -77 -50.5 -118.5t-130.5 -41.5q-42 0 -91.5 11t-65.5 11q-12 0 -24.5 -6.5t-20.5 -6.5h-21q-11 0 -11 11l-2 161q0 14 14 14h22q11 0 18 -12q73 -129 182 -129q36 0 58 20.5t22 55.5q0 51 -64 94q-27 18 -187 114
q-55 32 -82 71t-24 95q3 50 38 88t83 58q-86 73 -86 150zM449 189q2 24 -11.5 46t-29 34t-43.5 30q-114 71 -136 87q-55 -29 -58 -75q-2 -24 11.5 -46t29 -34t43.5 -30q109 -67 136 -87q55 28 58 75z" />
    <glyph glyph-name="dieresis" unicode="&#xa8;" horiz-adv-x="496" 
d="M123 713q22 20 43 -1q30 -28 51 -52q19 -23 1 -44q-27 -29 -52 -52q-22 -19 -43 0q-20 18 -51 52q-20 23 -1 45q22 26 52 52zM330 713q22 20 43 -1q30 -28 51 -52q19 -23 1 -44q-27 -29 -52 -52q-22 -19 -43 0q-20 18 -51 52q-20 23 -1 45q22 26 52 52z" />
    <glyph glyph-name="copyright" unicode="&#xa9;" horiz-adv-x="827" 
d="M112 361q0 -133 85.5 -224t215.5 -91t216.5 91.5t86.5 223.5q0 133 -86.5 226t-216.5 93t-215.5 -93t-85.5 -226zM50 361q0 155 104.5 264t258.5 109t259 -109t105 -264t-105 -263t-259 -108t-258.5 108t-104.5 263zM536 425q-42 114 -130 114q-57 0 -88 -38.5
t-32 -103.5q-1 -80 38 -135t106 -55q97 0 135 106q5 12 17 7l32 -14q9 -5 5 -17q-21 -69 -72.5 -116t-126.5 -47q-99 0 -158.5 70.5t-59.5 166.5q0 91 57 158.5t150 67.5q35 0 74 -9.5t40 -9.5q11 0 21.5 5.5t19.5 5.5h17q11 0 11 -11l2 -144q0 -14 -14 -14h-25
q-15 0 -19 13z" />
    <glyph glyph-name="ordfeminine" unicode="&#xaa;" horiz-adv-x="460" 
d="M244 452l1 91q-36 -12 -81 -34q-37 -19 -37 -53q0 -17 10.5 -28t28.5 -11q37 0 78 35zM113 637q-11 -5 -16 5l-9 19q-3 10 5 15q74 45 160 45q83 0 83 -79l-3 -196q0 -26 27 -26q20 0 44 11q11 7 13 -5l3 -22q2 -9 -5 -17q-39 -37 -95 -37q-57 0 -73 52q-58 -55 -120 -55
q-40 0 -64.5 25t-24.5 64q0 74 110 113q19 6 92 29l1 51q0 33 -34 33q-45 0 -94 -25z" />
    <glyph glyph-name="guillemotleft" unicode="&#xab;" horiz-adv-x="600" 
d="M128 286l188 -149q11 -9 11 -22v-62q0 -6 -5.5 -8t-10.5 2l-248 200q-8 6 -8 15v48q0 9 8 15l248 200q5 4 10.5 2t5.5 -8v-61q0 -13 -11 -22zM356 286l188 -149q11 -9 11 -22v-62q0 -6 -5.5 -8t-10.5 2l-248 200q-8 6 -8 15v48q0 9 8 15l248 200q5 4 10.5 2t5.5 -8v-61
q0 -13 -11 -22z" />
    <glyph glyph-name="logicalnot" unicode="&#xac;" horiz-adv-x="722" 
d="M589 14v284h-515q-14 0 -14 13v42q0 13 14 13h574q14 0 14 -13v-339q0 -14 -13 -14h-47q-13 0 -13 14z" />
    <glyph glyph-name="uni00AD" unicode="&#xad;" horiz-adv-x="300" 
d="M230 165h-201q-10 0 -15.5 6.5t-1.5 16.5l28 74q7 19 30 19h201q10 0 15.5 -6.5t1.5 -16.5l-28 -74q-7 -19 -30 -19z" />
    <glyph glyph-name="registered" unicode="&#xae;" horiz-adv-x="827" 
d="M50 361q0 155 104.5 264t258.5 109t259 -109t105 -264t-105 -263t-259 -108t-258.5 108t-104.5 263zM112 361q0 -133 85.5 -224t215.5 -91q139 0 228 104q-18 7 -38 21t-30 23t-32 32t-26 27q-46 46 -75 61t-73 14v-47q0 -69 68 -81q13 -3 12 -15l-2 -24q-2 -12 -14 -12
h-213q-12 0 -14 12l-2 24q-2 12 12 15q69 12 69 81v172q0 35 -14.5 53t-48.5 24q-14 3 -12 15l2 24q2 12 14 12h197q78 0 128 -32t50 -91q0 -32 -24.5 -58.5t-64.5 -40.5q10 -11 38 -49.5t58 -71t63 -50.5q47 78 47 173q0 133 -86.5 226t-216.5 93t-215.5 -93t-85.5 -226z
M363 486v-104h39q44 0 73.5 19t29.5 56t-24.5 56.5t-66.5 19.5q-23 0 -37 -12.5t-14 -34.5z" />
    <glyph glyph-name="macron" unicode="&#xaf;" horiz-adv-x="433" 
d="M328 577h-254q-8 0 -12 5.5t-1 13.5l21 50q7 15 22 15h253q8 0 12 -5.5t1 -13.5l-20 -50q-7 -15 -22 -15z" />
    <glyph glyph-name="degree" unicode="&#xb0;" horiz-adv-x="397" 
d="M50 577q0 61 43 102.5t105 41.5q63 0 106 -41.5t43 -102.5t-43 -102t-106 -41t-105.5 41t-42.5 102zM115 577q0 -36 23.5 -61t59.5 -25t60 25t24 61t-24 61.5t-60 25.5t-59.5 -25t-23.5 -62z" />
    <glyph glyph-name="plusminus" unicode="&#xb1;" horiz-adv-x="722" 
d="M434 707v-251h253q14 0 14 -13v-42q0 -13 -14 -13h-253v-251q0 -14 -13 -14h-42q-13 0 -13 14v251h-253q-14 0 -14 13v42q0 13 14 13h253v251q0 14 13 14h42q13 0 13 -14zM113 68h574q14 0 14 -13v-42q0 -13 -14 -13h-574q-14 0 -14 13v42q0 13 14 13z" />
    <glyph glyph-name="twosuperior" unicode="&#xb2;" 
d="M29 541v15q0 10 5 18q48 81 156 154q59 39 59 79q0 27 -16.5 41.5t-42.5 14.5q-20 0 -40 -10.5t-32.5 -22t-33.5 -33.5q-9 -11 -20 -2l-16 15q-9 7 -1 19q37 48 76.5 74.5t92.5 26.5q57 0 90.5 -28.5t33.5 -77.5q0 -44 -32 -77t-96 -65q-54 -27 -100 -69l105 2
q32 1 48.5 7t40.5 27q7 7 16 7h20q10 0 10 -9v-17q0 -10 -4 -15l-58 -77q-5 -8 -15 -8h-236q-10 0 -10 11z" />
    <glyph glyph-name="threesuperior" unicode="&#xb3;" 
d="M158 516q-64 0 -97 21t-33 51q0 23 21 38l70 47q4 2 8 0.5t4 -6.5v-17q0 -11 -4 -17q-9 -13 -10.5 -28.5t10 -29t39.5 -13.5q40 0 71 29.5t31 67.5q0 46 -39 55.5t-94 -5.5q-4 -1 -7.5 2t-3.5 8v23q0 10 11 12l20 4q39 8 61.5 28t22.5 44q0 44 -52 44q-46 0 -99 -51
q-10 -9 -19 0l-13 15q-10 10 0 19q39 37 75 55t84 18q46 0 73.5 -20.5t27.5 -58.5q0 -60 -83 -92q58 9 92 -14.5t34 -72.5q0 -62 -63.5 -109t-137.5 -47z" />
    <glyph glyph-name="acute" unicode="&#xb4;" horiz-adv-x="500" 
d="M220 533l1 207q0 10 10 10h120q5 0 6.5 -4t-0.5 -8l-87 -206q-4 -9 -14 -9h-26q-10 0 -10 10z" />
    <glyph glyph-name="mu" unicode="&#xb5;" horiz-adv-x="591" 
d="M69 -232l10 336q5 152 5 224q0 37 -13.5 55.5t-47.5 24.5q-13 3 -12 15l2 21q2 12 14 12h164q13 0 13 -12q0 -109 -9 -300q0 -30 16.5 -46.5t46.5 -16.5q47 0 109 66v180q0 38 -13.5 56.5t-47.5 24.5q-14 3 -12 15l2 21q2 12 14 12h164q13 0 13 -12l-1 -336
q0 -15 9.5 -24t25.5 -9q17 0 44 10q14 6 16 -8l4 -24q1 -12 -7 -20q-43 -43 -107 -43q-89 0 -104 81q-94 -103 -178 -71l-5 -232q-2 -12 -14 -12h-87q-12 0 -14 12z" />
    <glyph glyph-name="mu" unicode="&#x3bc;" horiz-adv-x="591" 
d="M69 -232l10 336q5 152 5 224q0 37 -13.5 55.5t-47.5 24.5q-13 3 -12 15l2 21q2 12 14 12h164q13 0 13 -12q0 -109 -9 -300q0 -30 16.5 -46.5t46.5 -16.5q47 0 109 66v180q0 38 -13.5 56.5t-47.5 24.5q-14 3 -12 15l2 21q2 12 14 12h164q13 0 13 -12l-1 -336
q0 -15 9.5 -24t25.5 -9q17 0 44 10q14 6 16 -8l4 -24q1 -12 -7 -20q-43 -43 -107 -43q-89 0 -104 81q-94 -103 -178 -71l-5 -232q-2 -12 -14 -12h-87q-12 0 -14 12z" />
    <glyph glyph-name="paragraph" unicode="&#xb6;" horiz-adv-x="465" 
d="M331 549v-779q0 -14 -13 -14h-41q-13 0 -13 14v883h-52v-883q0 -14 -13 -14h-42q-13 0 -13 14v663q-63 0 -103.5 42t-40.5 102t40.5 102t103.5 42h247q14 0 14 -13v-28q0 -10 -13 -17q-61 -28 -61 -114z" />
    <glyph glyph-name="periodcentered" unicode="&#xb7;" horiz-adv-x="330" 
d="M140 457q25 23 49 -1q32 -30 61 -61q24 -24 1 -49q-25 -28 -61 -60q-25 -23 -50 0q-41 38 -60 60q-24 26 -1 50q28 31 61 61z" />
    <glyph glyph-name="cedilla" unicode="&#xb8;" horiz-adv-x="341" 
d="M99 -129l-14 11q-7 5 -4 14l39 105q4 11 16 11h53q4 0 6 -4t0 -8l-69 -89q35 25 79 25q40 0 67 -24t27 -65q0 -46 -38 -75.5t-97 -29.5q-67 0 -109 51q-7 10 2 17l16 15q9 9 17 0q33 -31 68 -31q26 0 42.5 13.5t16.5 35.5t-14.5 34t-35.5 12q-24 0 -51 -18q-9 -6 -17 0z
" />
    <glyph glyph-name="onesuperior" unicode="&#xb9;" 
d="M84 840q48 26 97 69q10 8 19 8h40q10 -1 10 -11l-1 -273q0 -31 16 -45t50 -20q10 0 10 -12l-2 -16q-2 -10 -11 -10h-213q-9 0 -11 10l-2 16q-2 12 10 12q33 6 49.5 20t16.5 45v141q0 35 -39 32l-29 -3q-11 -2 -14 9l-3 14q-1 10 7 14z" />
    <glyph glyph-name="ordmasculine" unicode="&#xba;" horiz-adv-x="460" 
d="M422 534q0 -82 -55.5 -136t-138.5 -54q-80 0 -135 55t-55 136q0 80 54 134.5t136 54.5q78 0 136 -55.5t58 -134.5zM136 499q25 -57 65 -81t83 -8q41 15 50.5 62t-15.5 102q-24 57 -66 81.5t-82 7.5q-41 -16 -50.5 -62.5t15.5 -101.5z" />
    <glyph glyph-name="guillemotright" unicode="&#xbb;" horiz-adv-x="600" 
d="M284 137l188 149l-188 150q-11 9 -11 22v61q0 6 5.5 8t10.5 -2l248 -200q8 -6 8 -15v-48q0 -9 -8 -15l-248 -200q-5 -4 -10.5 -2t-5.5 8v62q0 13 11 22zM56 137l188 149l-188 150q-11 9 -11 22v61q0 6 5.5 8t10.5 -2l248 -200q8 -6 8 -15v-48q0 -9 -8 -15l-248 -200
q-5 -4 -10.5 -2t-5.5 8v62q0 13 11 22z" />
    <glyph glyph-name="onequarter" unicode="&#xbc;" horiz-adv-x="776" 
d="M402 108l-10 39q-3 11 4 20l175 211q7 9 18 9h54q11 0 11 -11v-225h70q11 0 11 -10v-33q0 -10 -11 -10h-70q0 -31 15 -42.5t50 -17.5q10 0 10 -12l-2 -16q-2 -10 -11 -10h-214q-9 0 -11 10l-2 16q-2 12 10 12q36 6 52 18t16 42h-151q-11 0 -14 10zM65 16l572 692
q10 13 24 13h43q6 0 8.5 -5.5t-1.5 -10.5l-572 -692q-11 -13 -24 -13h-43q-6 0 -8.5 6t1.5 10zM47 644q48 26 97 69q10 8 19 8h40q10 -1 10 -11l-1 -273q0 -31 16 -45t50 -20q10 0 10 -12l-2 -16q-2 -10 -11 -10h-213q-9 0 -11 10l-2 16q-2 12 10 12q33 6 49.5 20t16.5 45
v141q0 37 -39 32l-29 -3q-11 -2 -14 9l-3 14q-1 10 7 14zM568 308l-124 -157h124v157z" />
    <glyph glyph-name="onehalf" unicode="&#xbd;" horiz-adv-x="776" 
d="M422 11v15q0 10 5 18q48 81 156 154q59 39 59 79q0 27 -16.5 41.5t-42.5 14.5q-20 0 -40 -10.5t-32.5 -22t-33.5 -33.5q-9 -11 -20 -2l-16 15q-9 7 -1 19q37 48 76.5 74.5t92.5 26.5q57 0 90.5 -28.5t33.5 -77.5q0 -44 -32 -77t-96 -65q-54 -27 -100 -69l105 2
q32 1 48.5 7t40.5 27q7 7 16 7h20q10 0 10 -9v-17q0 -10 -4 -15l-58 -77q-5 -8 -15 -8h-236q-10 0 -10 11zM65 16l572 692q10 13 24 13h43q6 0 8.5 -5.5t-1.5 -10.5l-572 -692q-11 -13 -24 -13h-43q-6 0 -8.5 6t1.5 10zM47 644q48 26 97 69q10 8 19 8h40q10 -1 10 -11
l-1 -273q0 -31 16 -45t50 -20q10 0 10 -12l-2 -16q-2 -10 -11 -10h-213q-9 0 -11 10l-2 16q-2 12 10 12q33 6 49.5 20t16.5 45v141q0 37 -39 32l-29 -3q-11 -2 -14 9l-3 14q-1 10 7 14z" />
    <glyph glyph-name="threequarters" unicode="&#xbe;" horiz-adv-x="776" 
d="M399 108l-10 39q-3 11 4 20l175 211q7 9 18 9h54q11 0 11 -11v-225h70q11 0 11 -10v-33q0 -10 -11 -10h-70q0 -31 15 -42.5t50 -17.5q10 0 10 -12l-2 -16q-2 -10 -11 -10h-214q-9 0 -11 10l-2 16q-2 12 10 12q36 6 52 18t16 42h-151q-11 0 -14 10zM565 308l-124 -157h124
v157zM160 320q-64 0 -97 21t-33 51q0 23 21 38l70 47q4 2 8 0.5t4 -6.5v-17q0 -11 -4 -17q-9 -13 -10.5 -28.5t10 -29t39.5 -13.5q40 0 71 29.5t31 67.5q0 46 -39 55.5t-94 -5.5q-4 -1 -7.5 2t-3.5 8v23q0 10 11 12l20 4q39 8 61.5 28t22.5 44q0 44 -52 44q-46 0 -99 -51
q-10 -9 -19 0l-13 15q-10 10 0 19q39 37 75 55t84 18q46 0 73.5 -20.5t27.5 -58.5q0 -60 -83 -92q58 9 92 -14.5t34 -72.5q0 -62 -63.5 -109t-137.5 -47zM78 16l572 692q10 13 24 13h43q6 0 8.5 -5.5t-1.5 -10.5l-572 -692q-11 -13 -24 -13h-43q-6 0 -8.5 6t1.5 10z" />
    <glyph glyph-name="questiondown" unicode="&#xbf;" horiz-adv-x="421" 
d="M333 -119q2 14 18 11l22 -4q12 -3 12 -17q2 -61 -47 -104.5t-131 -43.5q-75 0 -123.5 45t-48.5 118q0 43 20.5 80t50 62t59 47t50 44t20.5 43q0 39 -36 39q-39 0 -36 -50q2 -14 -12 -14h-30q-13 0 -15 14q-4 49 22.5 77.5t74.5 28.5q43 0 70.5 -27t27.5 -69
q0 -34 -15 -63.5t-37 -51.5t-44 -43.5t-37 -50t-15 -61.5q0 -41 24.5 -65.5t63.5 -24.5t63 23t29 57zM235 302q-23 -21 -45 1q-29 28 -55 55q-10 10 -10.5 22t9.5 22q24 29 56 55q22 22 45 0q38 -35 54 -55q22 -22 1 -45q-25 -28 -55 -55z" />
    <glyph glyph-name="Agrave" unicode="&#xc0;" horiz-adv-x="731" 
d="M448 212l26 -88q21 -60 -50 -71q-14 -2 -12 -15l2 -26q2 -12 14 -12h281q12 0 14 12l2 26q2 13 -12 15q-38 6 -60.5 25t-36.5 56l-185 576q-4 11 -15 11h-64q-11 0 -15 -11l-215 -576q-26 -69 -104 -81q-14 -2 -12 -15l2 -26q2 -12 14 -12h220q12 0 14 12l2 26
q2 13 -12 15q-38 6 -49 23.5t-1 47.5l30 88h222zM248 284l99 276l87 -276h-186zM411 961l1 -180q0 -11 -11 -11h-26q-10 0 -14 9l-92 180q-2 4 0 8t7 4h125q10 0 10 -10z" />
    <glyph glyph-name="Aacute" unicode="&#xc1;" horiz-adv-x="731" 
d="M474 124l-26 88h-222l-30 -88q-10 -30 1 -47.5t49 -23.5q14 -2 12 -15l-2 -26q-2 -12 -14 -12h-220q-12 0 -14 12l-2 26q-2 13 12 15q78 12 104 81l215 576q4 11 15 11h64q11 0 15 -11l185 -576q14 -37 36.5 -56t60.5 -25q14 -2 12 -15l-2 -26q-2 -12 -14 -12h-281
q-12 0 -14 12l-2 26q-2 13 12 15q71 11 50 71zM347 560l-99 -276h186zM352 781l1 180q0 10 10 10h125q5 0 7 -4t0 -8l-92 -180q-4 -9 -14 -9h-26q-11 0 -11 11z" />
    <glyph glyph-name="Acircumflex" unicode="&#xc2;" horiz-adv-x="731" 
d="M448 212l26 -88q21 -60 -50 -71q-14 -2 -12 -15l2 -26q2 -12 14 -12h281q12 0 14 12l2 26q2 13 -12 15q-38 6 -60.5 25t-36.5 56l-185 576q-4 11 -15 11h-64q-11 0 -15 -11l-215 -576q-26 -69 -104 -81q-14 -2 -12 -15l2 -26q2 -12 14 -12h220q12 0 14 12l2 26
q2 13 -12 15q-38 6 -49 23.5t-1 47.5l30 88h222zM248 284l99 276l87 -276h-186zM341 971h78q11 0 16 -10l80 -177q3 -5 0.5 -9t-7.5 -4h-33q-12 0 -19 9l-75 103l-76 -102q-8 -10 -19 -10h-34q-5 0 -8 4t0 9l81 177q5 10 16 10z" />
    <glyph glyph-name="Atilde" unicode="&#xc3;" horiz-adv-x="731" 
d="M474 124l-26 88h-222l-30 -88q-10 -30 1 -47.5t49 -23.5q14 -2 12 -15l-2 -26q-2 -12 -14 -12h-220q-12 0 -14 12l-2 26q-2 13 12 15q78 12 104 81l215 576q4 11 15 11h64q11 0 15 -11l185 -576q14 -37 36.5 -56t60.5 -25q14 -2 12 -15l-2 -26q-2 -12 -14 -12h-281
q-12 0 -14 12l-2 26q-2 13 12 15q71 11 50 71zM347 560l-99 -276h186zM301 867q25 0 46.5 14.5t45 29.5t53.5 15q42 0 67 -28t33 -75q2 -13 -6 -18l-19 -11q-13 -7 -18 5q-16 37 -44 37q-21 0 -41.5 -14.5t-45.5 -29.5t-57 -15q-42 0 -67.5 28t-33.5 75q-2 13 6 18l19 11
q13 7 18 -5q16 -37 44 -37z" />
    <glyph glyph-name="Adieresis" unicode="&#xc4;" horiz-adv-x="731" 
d="M448 212l26 -88q21 -60 -50 -71q-14 -2 -12 -15l2 -26q2 -12 14 -12h281q12 0 14 12l2 26q2 13 -12 15q-38 6 -60.5 25t-36.5 56l-185 576q-4 11 -15 11h-64q-11 0 -15 -11l-215 -576q-26 -69 -104 -81q-14 -2 -12 -15l2 -26q2 -12 14 -12h220q12 0 14 12l2 26
q2 13 -12 15q-38 6 -49 23.5t-1 47.5l30 88h222zM248 284l99 276l87 -276h-186zM250 932q22 19 42 0q13 -11 50 -51q21 -23 1 -44q-34 -36 -51 -51q-23 -18 -42 0q-20 16 -50 51q-19 22 -1 45q32 35 51 50zM474 932q22 19 42 0q23 -20 50 -51q21 -23 1 -44q-24 -27 -51 -51
q-23 -18 -42 0q-23 20 -50 51q-20 23 -1 45q25 29 51 50z" />
    <glyph glyph-name="Aring" unicode="&#xc5;" horiz-adv-x="731" 
d="M448 212l26 -88q21 -60 -50 -71q-14 -2 -12 -15l2 -26q2 -12 14 -12h281q12 0 14 12l2 26q2 13 -12 15q-38 6 -60.5 25t-36.5 56l-185 576q-4 11 -15 11h-64q-11 0 -15 -11l-215 -576q-26 -69 -104 -81q-14 -2 -12 -15l2 -26q2 -12 14 -12h220q12 0 14 12l2 26
q2 13 -12 15q-38 6 -49 23.5t-1 47.5l30 88h222zM248 284l99 276l87 -276h-186zM385 968q44 0 74.5 -29t30.5 -72q0 -44 -30.5 -72.5t-74.5 -28.5t-74.5 28.5t-30.5 72.5q0 43 30.5 72t74.5 29zM385 817q21 0 35.5 14.5t14.5 35.5t-14.5 35t-35.5 14t-35.5 -14t-14.5 -35
t14.5 -35.5t35.5 -14.5z" />
    <glyph glyph-name="AE" unicode="&#xc6;" horiz-adv-x="994" 
d="M745 0h-370q-12 0 -14 12l-2 26q-2 13 12 15q41 6 60.5 24t19.5 57v78h-199l-38 -85q-29 -64 35 -74q14 -2 12 -15l-3 -26q-2 -12 -14 -12h-222q-12 0 -14 12l-2 26q-2 13 12 15q87 13 130 102l250 555q6 11 18 11h304l186 3q12 0 14 -12l2 -19q2 -12 -5 -21
q-12 -18 -36 -53.5t-30 -44.5q-7 -11 -18 -11h-14q-10 0 -17 11q-66 96 -158 96h-10q-56 0 -56 -49v-221h53q76 0 88 70q3 14 15 12l26 -2q12 -2 12 -14v-197q0 -12 -12 -14l-26 -2q-12 -1 -15 12q-12 69 -88 69h-43v-219q0 -55 58 -55h6q54 0 95.5 12t74.5 39t55 54t52 73
q7 10 19 10h24q12 0 12 -12v-21q0 -7 -4 -21q-18 -53 -57 -185q-3 -11 -17 -11q-48 2 -161 2zM284 284h172v385z" />
    <glyph glyph-name="Ccedilla" unicode="&#xc7;" horiz-adv-x="718" 
d="M322 -129l-14 11q-7 5 -4 14l32 88q-140 20 -220.5 127t-80.5 252q0 96 38.5 181t116 141t177.5 56q57 0 123 -15.5t69 -15.5q11 0 21.5 5.5t19.5 5.5h21q11 0 11 -11l2 -201q0 -14 -14 -14h-31q-13 0 -19 13q-33 81 -82 125t-125 44q-96 0 -148.5 -72.5t-52.5 -182.5
q0 -66 16 -127t47 -110.5t81 -79t113 -29.5q165 0 237 192q5 12 17 7l34 -15q9 -5 5 -17q-31 -113 -110 -186.5t-200 -76.5l-53 -69q35 25 79 25q40 0 67 -24t27 -65q0 -46 -38 -75.5t-97 -29.5q-67 0 -109 51q-7 10 2 17l16 15q9 9 17 0q33 -31 68 -31q26 0 42.5 13.5
t16.5 35.5t-14.5 34t-35.5 12q-24 0 -51 -18q-9 -6 -17 0z" />
    <glyph glyph-name="Egrave" unicode="&#xc8;" horiz-adv-x="710" 
d="M47 0h399l166 -2q14 0 17 11q2 7 24 79.5t33 105.5q4 14 4 21v21q0 12 -12 12h-24q-12 0 -19 -10q-60 -92 -119.5 -135t-162.5 -43h-32q-58 0 -58 55v219h101q76 0 88 -69q3 -13 15 -12l26 2q12 2 12 14v197q0 12 -12 14l-26 2q-12 2 -15 -12q-12 -70 -88 -70h-111v221
q0 49 56 49h36q32 0 57.5 -9t45.5 -28t28 -29t22 -30q7 -11 17 -11h14q11 0 18 11q6 9 30 44.5t36 53.5q7 9 5 21l-2 19q-2 12 -14 12q-63 -3 -186 -3h-369q-12 0 -14 -12l-2 -26q-2 -13 12 -15q41 -6 60.5 -24t19.5 -57l1 -453q0 -39 -20 -57t-61 -24q-14 -2 -12 -15l2 -26
q2 -12 14 -12zM372 961l1 -180q0 -11 -11 -11h-26q-10 0 -14 9l-92 180q-2 4 0 8t7 4h125q10 0 10 -10z" />
    <glyph glyph-name="Eacute" unicode="&#xc9;" horiz-adv-x="710" 
d="M446 0h-399q-12 0 -14 12l-2 26q-2 13 12 15q41 6 61 24t20 57l-1 453q0 39 -19.5 57t-60.5 24q-14 2 -12 15l2 26q2 12 14 12h369l186 3q12 0 14 -12l2 -19q2 -12 -5 -21q-12 -18 -36 -53.5t-30 -44.5q-7 -11 -18 -11h-14q-10 0 -17 11q-14 20 -22 30t-28 29t-45.5 28
t-57.5 9h-36q-56 0 -56 -49v-221h111q76 0 88 70q3 14 15 12l26 -2q12 -2 12 -14v-197q0 -12 -12 -14l-26 -2q-12 -1 -15 12q-12 69 -88 69h-101v-219q0 -55 58 -55h32q103 0 162.5 43t119.5 135q7 10 19 10h24q12 0 12 -12v-21q0 -7 -4 -21q-11 -33 -33 -105.5t-24 -79.5
q-3 -11 -17 -11q-53 2 -166 2zM303 781l1 180q0 10 10 10h125q5 0 7 -4t0 -8l-92 -180q-4 -9 -14 -9h-26q-11 0 -11 11z" />
    <glyph glyph-name="Ecircumflex" unicode="&#xca;" horiz-adv-x="710" 
d="M47 0h399l166 -2q14 0 17 11q2 7 24 79.5t33 105.5q4 14 4 21v21q0 12 -12 12h-24q-12 0 -19 -10q-60 -92 -119.5 -135t-162.5 -43h-32q-58 0 -58 55v219h101q76 0 88 -69q3 -13 15 -12l26 2q12 2 12 14v197q0 12 -12 14l-26 2q-12 2 -15 -12q-12 -70 -88 -70h-111v221
q0 49 56 49h36q32 0 57.5 -9t45.5 -28t28 -29t22 -30q7 -11 17 -11h14q11 0 18 11q6 9 30 44.5t36 53.5q7 9 5 21l-2 19q-2 12 -14 12q-63 -3 -186 -3h-369q-12 0 -14 -12l-2 -26q-2 -13 12 -15q41 -6 60.5 -24t19.5 -57l1 -453q0 -39 -20 -57t-61 -24q-14 -2 -12 -15l2 -26
q2 -12 14 -12zM301 971h78q11 0 16 -10l80 -177q3 -5 0.5 -9t-7.5 -4h-33q-11 0 -19 9l-75 103l-76 -102q-8 -10 -19 -10h-34q-5 0 -8 4t0 9l81 177q5 10 16 10z" />
    <glyph glyph-name="Edieresis" unicode="&#xcb;" horiz-adv-x="710" 
d="M47 0h399l166 -2q14 0 17 11q2 7 24 79.5t33 105.5q4 14 4 21v21q0 12 -12 12h-24q-12 0 -19 -10q-60 -92 -119.5 -135t-162.5 -43h-32q-58 0 -58 55v219h101q76 0 88 -69q3 -13 15 -12l26 2q12 2 12 14v197q0 12 -12 14l-26 2q-12 2 -15 -12q-12 -70 -88 -70h-111v221
q0 49 56 49h36q32 0 57.5 -9t45.5 -28t28 -29t22 -30q7 -11 17 -11h14q11 0 18 11q6 9 30 44.5t36 53.5q7 9 5 21l-2 19q-2 12 -14 12q-63 -3 -186 -3h-369q-12 0 -14 -12l-2 -26q-2 -13 12 -15q41 -6 60.5 -24t19.5 -57l1 -453q0 -39 -20 -57t-61 -24q-14 -2 -12 -15l2 -26
q2 -12 14 -12zM205 932q22 19 42 0q13 -11 50 -51q21 -23 1 -44q-34 -36 -51 -51q-23 -18 -42 0q-20 16 -50 51q-19 22 -1 45q32 35 51 50zM429 932q22 19 42 0q23 -20 50 -51q21 -23 1 -44q-24 -27 -51 -51q-23 -18 -42 0q-23 20 -50 51q-20 23 -1 45q25 29 51 50z" />
    <glyph glyph-name="Igrave" unicode="&#xcc;" horiz-adv-x="396" 
d="M265 134l-1 453q0 38 21 56.5t63 24.5q14 2 12 15l-2 26q-2 12 -14 12h-292q-12 0 -14 -12l-2 -26q-2 -13 12 -15q42 -6 62.5 -24.5t20.5 -56.5l1 -453q0 -38 -21 -56.5t-63 -24.5q-14 -2 -12 -15l2 -26q2 -12 14 -12h292q12 0 14 12l2 26q2 13 -12 15q-42 6 -62.5 24.5
t-20.5 56.5zM223 961l1 -180q0 -11 -11 -11h-26q-10 0 -14 9l-92 180q-2 4 0 8t7 4h125q10 0 10 -10z" />
    <glyph glyph-name="Iacute" unicode="&#xcd;" horiz-adv-x="396" 
d="M264 587l1 -453q0 -38 20.5 -56.5t62.5 -24.5q14 -2 12 -15l-2 -26q-2 -12 -14 -12h-292q-12 0 -14 12l-2 26q-2 13 12 15q42 6 63 24.5t21 56.5l-1 453q0 38 -20.5 56.5t-62.5 24.5q-14 2 -12 15l2 26q2 12 14 12h292q12 0 14 -12l2 -26q2 -13 -12 -15q-42 -6 -63 -24.5
t-21 -56.5zM175 781l1 180q0 10 10 10h125q5 0 7 -4t0 -8l-92 -180q-4 -9 -14 -9h-26q-11 0 -11 11z" />
    <glyph glyph-name="Icircumflex" unicode="&#xce;" horiz-adv-x="396" 
d="M265 134l-1 453q0 38 21 56.5t63 24.5q14 2 12 15l-2 26q-2 12 -14 12h-292q-12 0 -14 -12l-2 -26q-2 -13 12 -15q42 -6 62.5 -24.5t20.5 -56.5l1 -453q0 -38 -21 -56.5t-63 -24.5q-14 -2 -12 -15l2 -26q2 -12 14 -12h292q12 0 14 12l2 26q2 13 -12 15q-42 6 -62.5 24.5
t-20.5 56.5zM159 971h78q11 0 16 -10l80 -177q3 -5 0.5 -9t-7.5 -4h-33q-11 0 -19 9l-75 103l-76 -102q-8 -10 -19 -10h-34q-5 0 -8 4t0 9l81 177q5 10 16 10z" />
    <glyph glyph-name="Idieresis" unicode="&#xcf;" horiz-adv-x="396" 
d="M265 134l-1 453q0 38 21 56.5t63 24.5q14 2 12 15l-2 26q-2 12 -14 12h-292q-12 0 -14 -12l-2 -26q-2 -13 12 -15q42 -6 62.5 -24.5t20.5 -56.5l1 -453q0 -38 -21 -56.5t-63 -24.5q-14 -2 -12 -15l2 -26q2 -12 14 -12h292q12 0 14 12l2 26q2 13 -12 15q-42 6 -62.5 24.5
t-20.5 56.5zM65 932q22 19 42 0q13 -11 50 -51q21 -23 1 -44q-34 -36 -51 -51q-23 -18 -42 0q-20 16 -50 51q-19 22 -1 45q32 35 51 50zM289 932q22 19 42 0q23 -20 50 -51q21 -23 1 -44q-24 -27 -51 -51q-23 -18 -42 0q-23 20 -50 51q-20 23 -1 45q25 29 51 50z" />
    <glyph glyph-name="Eth" unicode="&#xd0;" horiz-adv-x="764" 
d="M123 335h-75q-14 0 -14 13v40q0 13 14 13h75v186q0 39 -19.5 57t-60.5 24q-14 2 -12 15l2 26q2 12 14 12h265q105 0 199.5 -48t158 -145t63.5 -223q0 -79 -28 -139t-78.5 -95.5t-114.5 -53t-142 -17.5h-323q-12 0 -14 12l-2 26q-2 13 12 15q41 6 61 24t20 57zM310 59h57
q107 0 170.5 63t63.5 182q0 158 -79.5 258.5t-212.5 100.5q-26 0 -41.5 -15.5t-15.5 -38.5v-208h137q14 0 14 -13v-40q0 -13 -14 -13h-137l1 -220q0 -23 16 -39.5t41 -16.5z" />
    <glyph glyph-name="Ntilde" unicode="&#xd1;" horiz-adv-x="878" 
d="M761 0h-36q-9 0 -18 9l-509 561l1 -436q0 -39 19.5 -57t60.5 -24q14 -2 12 -15l-2 -26q-2 -12 -14 -12h-228q-12 0 -14 12l-2 26q-2 13 12 15q41 6 61 24t20 57l-1 450q0 39 -19.5 58.5t-60.5 25.5q-14 2 -12 15l2 26q2 12 14 12h191q10 0 18 -8l444 -486l-1 360
q0 39 -19.5 57t-60.5 24q-14 2 -12 15l2 26q2 12 14 12h228q12 0 14 -12l2 -26q2 -13 -12 -15q-41 -6 -61 -24t-20 -57l1 -575q0 -12 -14 -12zM370 867q25 0 46.5 14.5t45 29.5t53.5 15q42 0 67 -28t33 -75q2 -13 -6 -18l-19 -11q-13 -7 -18 5q-16 37 -44 37
q-21 0 -41.5 -14.5t-45.5 -29.5t-57 -15q-42 0 -67.5 28t-33.5 75q-2 13 6 18l19 11q13 7 18 -5q16 -37 44 -37z" />
    <glyph glyph-name="Ograve" unicode="&#xd2;" horiz-adv-x="844" 
d="M35 355q0 -159 113 -267t272 -108q161 0 275 109.5t114 275.5q0 159 -115.5 267.5t-275.5 108.5q-159 0 -271 -110.5t-112 -275.5zM392 664q117 0 199 -96t82 -250q0 -115 -59.5 -183t-166.5 -68q-117 0 -199 96t-82 250q0 115 59.5 183t166.5 68zM433 961l1 -180
q0 -11 -11 -11h-26q-10 0 -14 9l-92 180q-2 4 0 8t7 4h125q10 0 10 -10z" />
    <glyph glyph-name="Oacute" unicode="&#xd3;" horiz-adv-x="844" 
d="M35 355q0 165 112 275.5t271 110.5q160 0 275.5 -108.5t115.5 -267.5q0 -166 -114 -275.5t-275 -109.5q-159 0 -272 108t-113 267zM392 664q-107 0 -166.5 -68t-59.5 -183q0 -154 82 -250t199 -96q107 0 166.5 68t59.5 183q0 154 -82 250t-199 96zM390 781l1 180
q0 10 10 10h125q5 0 7 -4t0 -8l-92 -180q-4 -9 -14 -9h-26q-11 0 -11 11z" />
    <glyph glyph-name="Ocircumflex" unicode="&#xd4;" horiz-adv-x="844" 
d="M35 355q0 -159 113 -267t272 -108q161 0 275 109.5t114 275.5q0 159 -115.5 267.5t-275.5 108.5q-159 0 -271 -110.5t-112 -275.5zM392 664q117 0 199 -96t82 -250q0 -115 -59.5 -183t-166.5 -68q-117 0 -199 96t-82 250q0 115 59.5 183t166.5 68zM383 971h78
q11 0 16 -10l80 -177q3 -5 0.5 -9t-7.5 -4h-33q-11 0 -19 9l-75 103l-76 -102q-8 -10 -19 -10h-34q-5 0 -8 4t0 9l81 177q5 10 16 10z" />
    <glyph glyph-name="Otilde" unicode="&#xd5;" horiz-adv-x="844" 
d="M35 355q0 165 112 275.5t271 110.5q160 0 275.5 -108.5t115.5 -267.5q0 -166 -114 -275.5t-275 -109.5q-159 0 -272 108t-113 267zM392 664q-107 0 -166.5 -68t-59.5 -183q0 -154 82 -250t199 -96q107 0 166.5 68t59.5 183q0 154 -82 250t-199 96zM343 867
q25 0 46.5 14.5t45 29.5t53.5 15q42 0 67 -28t33 -75q2 -13 -6 -18l-19 -11q-13 -7 -18 5q-16 37 -44 37q-21 0 -41.5 -14.5t-45.5 -29.5t-57 -15q-42 0 -67.5 28t-33.5 75q-2 13 6 18l19 11q13 7 18 -5q16 -37 44 -37z" />
    <glyph glyph-name="Odieresis" unicode="&#xd6;" horiz-adv-x="844" 
d="M35 355q0 -159 113 -267t272 -108q161 0 275 109.5t114 275.5q0 159 -115.5 267.5t-275.5 108.5q-159 0 -271 -110.5t-112 -275.5zM392 664q117 0 199 -96t82 -250q0 -115 -59.5 -183t-166.5 -68q-117 0 -199 96t-82 250q0 115 59.5 183t166.5 68zM289 932q22 19 42 0
q13 -11 50 -51q21 -23 1 -44q-34 -36 -51 -51q-23 -18 -42 0q-20 16 -50 51q-19 22 -1 45q32 35 51 50zM513 932q22 19 42 0q23 -20 50 -51q21 -23 1 -44q-24 -27 -51 -51q-23 -18 -42 0q-23 20 -50 51q-20 23 -1 45q25 29 51 50z" />
    <glyph glyph-name="multiply" unicode="&#xd7;" horiz-adv-x="722" 
d="M615 28l-255 254l-253 -253q-9 -9 -19 -1l-31 32q-9 8 0 19l253 253l-253 254q-9 11 0 19l31 32q10 8 19 -1l253 -254l255 255q11 9 19 0l32 -31q8 -10 -1 -19l-255 -255l255 -254q9 -9 1 -19l-32 -31q-8 -9 -19 0z" />
    <glyph glyph-name="Oslash" unicode="&#xd8;" horiz-adv-x="844" 
d="M36 355q0 157 104 268l-77 82q-4 5 -1.5 10.5t8.5 5.5h63q14 0 23 -11l36 -42q100 73 226 73q157 0 273.5 -109.5t116.5 -266.5q0 -156 -104 -265l79 -84q4 -4 1.5 -10t-8.5 -6h-63q-14 0 -24 12l-37 42q-102 -74 -232 -74q-157 0 -270.5 109t-113.5 266zM247 608
l385 -427l7 -10q35 61 35 147q0 154 -82 250t-200 96q-92 0 -150 -52zM165 413q0 -154 82.5 -250.5t199.5 -96.5q91 0 150 51l-6 6l-389 430l-4 5q-33 -60 -33 -145z" />
    <glyph glyph-name="Ugrave" unicode="&#xd9;" horiz-adv-x="786" 
d="M668 219v368q0 39 19.5 57t60.5 24q14 2 12 15l-2 26q-2 12 -14 12h-218q-12 0 -14 -12l-2 -26q-2 -13 12 -15q41 -6 60.5 -24t19.5 -57v-370q0 -70 -47.5 -114.5t-129.5 -44.5q-78 0 -127.5 43t-49.5 117v369q0 39 19.5 57t60.5 24q14 2 12 15l-2 26q-2 12 -14 12h-282
q-12 0 -14 -12l-2 -26q-2 -13 12 -15q41 -6 60.5 -24t19.5 -57v-363q0 -114 77 -176.5t199 -62.5q123 0 198.5 60t75.5 174zM447 961l1 -180q0 -11 -11 -11h-26q-10 0 -14 9l-92 180q-2 4 0 8t7 4h125q10 0 10 -10z" />
    <glyph glyph-name="Uacute" unicode="&#xda;" horiz-adv-x="786" 
d="M668 587v-368q0 -114 -75.5 -174t-198.5 -60q-122 0 -199 62.5t-77 176.5v363q0 39 -19.5 57t-60.5 24q-14 2 -12 15l2 26q2 12 14 12h282q12 0 14 -12l2 -26q2 -13 -12 -15q-41 -6 -60.5 -24t-19.5 -57v-369q0 -74 49.5 -117t127.5 -43q82 0 129.5 44.5t47.5 114.5v370
q0 39 -19.5 57t-60.5 24q-14 2 -12 15l2 26q2 12 14 12h218q12 0 14 -12l2 -26q2 -13 -12 -15q-41 -6 -60.5 -24t-19.5 -57zM407 781l1 180q0 10 10 10h125q5 0 7 -4t0 -8l-92 -180q-4 -9 -14 -9h-26q-11 0 -11 11z" />
    <glyph glyph-name="Ucircumflex" unicode="&#xdb;" horiz-adv-x="786" 
d="M668 219v368q0 39 19.5 57t60.5 24q14 2 12 15l-2 26q-2 12 -14 12h-218q-12 0 -14 -12l-2 -26q-2 -13 12 -15q41 -6 60.5 -24t19.5 -57v-370q0 -70 -47.5 -114.5t-129.5 -44.5q-78 0 -127.5 43t-49.5 117v369q0 39 19.5 57t60.5 24q14 2 12 15l-2 26q-2 12 -14 12h-282
q-12 0 -14 -12l-2 -26q-2 -13 12 -15q41 -6 60.5 -24t19.5 -57v-363q0 -114 77 -176.5t199 -62.5q123 0 198.5 60t75.5 174zM390 971h78q11 0 16 -10l80 -177q3 -5 0.5 -9t-7.5 -4h-33q-12 0 -19 9l-75 103l-76 -102q-8 -10 -19 -10h-34q-5 0 -8 4t0 9l81 177q5 10 16 10z
" />
    <glyph glyph-name="Udieresis" unicode="&#xdc;" horiz-adv-x="786" 
d="M668 219v368q0 39 19.5 57t60.5 24q14 2 12 15l-2 26q-2 12 -14 12h-218q-12 0 -14 -12l-2 -26q-2 -13 12 -15q41 -6 60.5 -24t19.5 -57v-370q0 -70 -47.5 -114.5t-129.5 -44.5q-78 0 -127.5 43t-49.5 117v369q0 39 19.5 57t60.5 24q14 2 12 15l-2 26q-2 12 -14 12h-282
q-12 0 -14 -12l-2 -26q-2 -13 12 -15q41 -6 60.5 -24t19.5 -57v-363q0 -114 77 -176.5t199 -62.5q123 0 198.5 60t75.5 174zM292 932q22 19 42 0q13 -11 50 -51q21 -23 1 -44q-34 -36 -51 -51q-23 -18 -42 0q-20 16 -50 51q-19 22 -1 45q32 35 51 50zM516 932q22 19 42 0
q23 -20 50 -51q21 -23 1 -44q-24 -27 -51 -51q-23 -18 -42 0q-23 20 -50 51q-20 23 -1 45q25 29 51 50z" />
    <glyph glyph-name="Yacute" unicode="&#xdd;" horiz-adv-x="665" 
d="M274 134v212l-159 241q-44 70 -97 81q-14 3 -12 15l2 26q2 12 14 12h272q12 0 14 -12l2 -26q2 -13 -12 -15q-37 -6 -46 -26.5t9 -44.5l105 -181l98 181q32 60 -41 71q-14 2 -12 15l2 26q2 12 14 12h216q12 0 14 -12l2 -26q2 -13 -12 -15q-74 -11 -114 -81l-125 -220
l1 -233q0 -39 20 -57t61 -24q14 -2 12 -15l-2 -26q-2 -12 -14 -12h-289q-12 0 -14 12l-2 26q-2 13 12 15q41 6 61 24t20 57zM335 781l1 180q0 10 10 10h125q5 0 7 -4t0 -8l-92 -180q-4 -9 -14 -9h-26q-11 0 -11 11z" />
    <glyph glyph-name="Thorn" unicode="&#xde;" horiz-adv-x="655" 
d="M134 134v453q0 67 -91 81q-14 2 -12 15l2 26q2 12 14 12h322q12 0 14 -12l2 -26q2 -13 -12 -15q-100 -15 -100 -81v-11h103q119 0 194 -51.5t75 -149.5q0 -99 -76.5 -154t-189.5 -55h-106v-32q0 -66 100 -81q14 -2 12 -15l-2 -26q-2 -12 -14 -12h-322q-12 0 -14 12l-2 26
q-2 13 12 15q91 14 91 81zM354 522h-25q-30 0 -48 -16t-18 -43v-230h90q71 0 116 35.5t45 106.5q0 72 -48.5 109.5t-111.5 37.5z" />
    <glyph glyph-name="germandbls" unicode="&#xdf;" horiz-adv-x="604" 
d="M141 -225q-22 10 -25 32.5t14 39.5l58 60q11 9 20 9h19q11 0 19 -9q31 -40 74 -40q60 0 106 43t46 107q0 33 -19 62t-58 46l-45 20q-10 5 -10 17v15q0 11 5 19l110 164h-140l-95 -109v-122q0 -40 15.5 -57.5t54.5 -23.5q14 -2 12 -15l-2 -21q-2 -12 -14 -12h-254
q-12 0 -14 12l-2 21q-2 13 12 15q40 6 56 23.5t16 57.5l-1 155q0 86 -61 114q-13 6 -13 17v28q0 13 14 13h60q0 75 27.5 143.5t83.5 114.5t128 46q49 0 84 -27.5t35 -67.5t-40 -59l-79 -36q-5 -2 -10 0.5t-5 7.5v19q0 12 7 24q17 28 6.5 53t-41.5 25q-36 0 -58.5 -31.5
t-22.5 -91.5v-120l6 -135l85 125q8 10 18 10h219q14 0 14 -13v-28q0 -10 -7 -21l-107 -149l30 -14q102 -46 102 -143q0 -74 -57 -151.5t-142 -127t-163 -49.5q-39 0 -71 15z" />
    <glyph glyph-name="agrave" unicode="&#xe0;" horiz-adv-x="503" 
d="M273 235l-1 -114q-50 -44 -93 -44q-22 0 -35.5 13t-13.5 35q0 37 47 66q44 26 96 44zM113 359q62 31 116 31q41 0 41 -41l-1 -69q-61 -17 -112 -37q-141 -53 -141 -145q0 -47 30.5 -77.5t78.5 -30.5q80 0 155 71q21 -68 91 -68t119 47q9 9 7 21l-4 28q-1 6 -6.5 7.5
t-10.5 -1.5q-28 -14 -54 -14q-15 0 -24 9t-9 24l3 251q0 98 -104 98q-107 0 -200 -56q-11 -7 -6 -18l11 -24q6 -13 20 -6zM298 740l1 -207q0 -10 -10 -10h-26q-9 0 -14 9l-87 206q-2 4 -0.5 8t6.5 4h120q10 0 10 -10z" />
    <glyph glyph-name="aacute" unicode="&#xe1;" horiz-adv-x="503" 
d="M272 121l1 114q-52 -18 -96 -44q-47 -29 -47 -66q0 -22 13.5 -35t35.5 -13q43 0 93 44zM113 359q-14 -7 -20 6l-11 24q-5 11 6 18q93 56 200 56q104 0 104 -98l-3 -251q0 -15 9 -24t24 -9q26 0 54 14q5 3 10.5 1.5t6.5 -7.5l4 -28q2 -12 -7 -21q-49 -47 -119 -47t-91 68
q-75 -71 -155 -71q-48 0 -78.5 30.5t-30.5 77.5q0 92 141 145q51 20 112 37l1 69q0 41 -41 41q-54 0 -116 -31zM220 533l1 207q0 10 10 10h120q5 0 6.5 -4t-0.5 -8l-87 -206q-4 -9 -14 -9h-26q-10 0 -10 10z" />
    <glyph glyph-name="acircumflex" unicode="&#xe2;" horiz-adv-x="503" 
d="M273 235l-1 -114q-50 -44 -93 -44q-22 0 -35.5 13t-13.5 35q0 37 47 66q44 26 96 44zM113 359q62 31 116 31q41 0 41 -41l-1 -69q-61 -17 -112 -37q-141 -53 -141 -145q0 -47 30.5 -77.5t78.5 -30.5q80 0 155 71q21 -68 91 -68t119 47q9 9 7 21l-4 28q-1 6 -6.5 7.5
t-10.5 -1.5q-28 -14 -54 -14q-15 0 -24 9t-9 24l3 251q0 98 -104 98q-107 0 -200 -56q-11 -7 -6 -18l11 -24q6 -13 20 -6zM214 750h67q10 0 15 -10l101 -204q2 -5 -0.5 -9t-7.5 -4h-33q-10 0 -18 10l-91 115l-89 -115q-8 -10 -18 -10h-35q-5 0 -7.5 4t-0.5 9l102 204
q5 10 15 10z" />
    <glyph glyph-name="atilde" unicode="&#xe3;" horiz-adv-x="503" 
d="M272 121l1 114q-52 -18 -96 -44q-47 -29 -47 -66q0 -22 13.5 -35t35.5 -13q43 0 93 44zM113 359q-14 -7 -20 6l-11 24q-5 11 6 18q93 56 200 56q104 0 104 -98l-3 -251q0 -15 9 -24t24 -9q26 0 54 14q5 3 10.5 1.5t6.5 -7.5l4 -28q2 -12 -7 -21q-49 -47 -119 -47t-91 68
q-75 -71 -155 -71q-48 0 -78.5 30.5t-30.5 77.5q0 92 141 145q51 20 112 37l1 69q0 41 -41 41q-54 0 -116 -31zM179 646q26 0 49 16t47.5 32t54.5 16q43 0 71.5 -36t31.5 -91q0 -13 -8 -18l-20 -12q-5 -3 -10.5 -1t-6.5 7q-10 51 -51 51q-24 0 -69 -31.5t-85 -31.5
q-44 0 -71 35.5t-30 90.5q0 14 8 19l20 11q14 8 17 -6q14 -51 52 -51z" />
    <glyph glyph-name="adieresis" unicode="&#xe4;" horiz-adv-x="503" 
d="M273 235l-1 -114q-50 -44 -93 -44q-22 0 -35.5 13t-13.5 35q0 37 47 66q44 26 96 44zM113 359q62 31 116 31q41 0 41 -41l-1 -69q-61 -17 -112 -37q-141 -53 -141 -145q0 -47 30.5 -77.5t78.5 -30.5q80 0 155 71q21 -68 91 -68t119 47q9 9 7 21l-4 28q-1 6 -6.5 7.5
t-10.5 -1.5q-28 -14 -54 -14q-15 0 -24 9t-9 24l3 251q0 98 -104 98q-107 0 -200 -56q-11 -7 -6 -18l11 -24q6 -13 20 -6zM127 713q22 20 43 -1q30 -28 51 -52q19 -23 1 -44q-27 -29 -52 -52q-22 -19 -43 0q-20 18 -51 52q-20 23 -1 45q22 26 52 52zM334 713q22 20 43 -1
q30 -28 51 -52q19 -23 1 -44q-27 -29 -52 -52q-22 -19 -43 0q-20 18 -51 52q-20 23 -1 45q22 26 52 52z" />
    <glyph glyph-name="aring" unicode="&#xe5;" horiz-adv-x="503" 
d="M273 235l-1 -114q-50 -44 -93 -44q-22 0 -35.5 13t-13.5 35q0 37 47 66q44 26 96 44zM113 359q62 31 116 31q41 0 41 -41l-1 -69q-61 -17 -112 -37q-141 -53 -141 -145q0 -47 30.5 -77.5t78.5 -30.5q80 0 155 71q21 -68 91 -68t119 47q9 9 7 21l-4 28q-1 6 -6.5 7.5
t-10.5 -1.5q-28 -14 -54 -14q-15 0 -24 9t-9 24l3 251q0 98 -104 98q-107 0 -200 -56q-11 -7 -6 -18l11 -24q6 -13 20 -6zM242 753q49 0 83 -32t34 -80t-34 -80t-83 -32t-83 32t-34 80t34 80t83 32zM242 580q25 0 43.5 17.5t18.5 43.5t-18.5 43.5t-43.5 17.5t-43.5 -17.5
t-18.5 -43.5t18.5 -43.5t43.5 -17.5z" />
    <glyph glyph-name="ae" unicode="&#xe6;" horiz-adv-x="712" 
d="M500 -15q-121 0 -181 102q-91 -97 -194 -97q-48 0 -78.5 30.5t-30.5 77.5q0 92 141 145q51 20 112 37l1 69q0 41 -41 41q-54 0 -116 -31q-14 -7 -20 6l-11 24q-5 11 6 18q93 56 194 56q56 0 79 -42q56 50 136 50q68 0 107.5 -37.5t53.5 -92.5q2 -8 2 -16v-14
q0 -12 -10 -15l-259 -98q34 -108 155 -107q68 2 115 58q9 11 21 4l14 -10q10 -8 4 -19q-23 -56 -74.5 -97t-125.5 -42zM385 248l154 70q7 39 -12 65.5t-57 26.5q-56 0 -79.5 -48.5t-5.5 -113.5zM272 121l1 114q-58 -22 -96 -44q-47 -29 -47 -66q0 -22 13.5 -35t35.5 -13
q43 0 93 44z" />
    <glyph glyph-name="ccedilla" unicode="&#xe7;" horiz-adv-x="466" 
d="M170 -129l-14 11q-7 5 -4 14l37 99q-74 22 -117.5 86t-43.5 146q0 108 67 176t169 68q78 0 124 -41q26 -21 29 -49.5t-22 -49.5l-34 -27q-9 -7 -19 -7h-10q-10 0 -13 10q-14 49 -34.5 74.5t-59.5 25.5q-40 0 -63.5 -33t-23.5 -83q0 -89 44.5 -144t122.5 -55q70 0 115 54
q9 11 21 4l14 -10q10 -8 4 -19q-23 -56 -74.5 -96t-125.5 -40h-5l-57 -74q35 25 79 25q40 0 67 -24t27 -65q0 -46 -38 -75.5t-97 -29.5q-67 0 -109 51q-7 10 2 17l16 15q9 9 17 0q33 -31 68 -31q26 0 42.5 13.5t16.5 35.5t-14.5 34t-35.5 12q-24 0 -51 -18q-9 -6 -17 0z" />
    <glyph glyph-name="egrave" unicode="&#xe8;" horiz-adv-x="470" 
d="M297 318l-154 -70q-18 65 5.5 114t79.5 49q38 0 57 -27t12 -66zM258 -15q74 1 125.5 42t74.5 97q6 11 -4 19l-14 10q-12 7 -21 -4q-48 -57 -119 -59q-57 -1 -95.5 28t-54.5 80l258 98q10 3 10 15v14q0 8 -2 16q-14 55 -53.5 92.5t-107.5 37.5q-98 0 -161.5 -70
t-63.5 -175q0 -100 64.5 -171t163.5 -70zM275 740l1 -207q0 -10 -10 -10h-26q-10 0 -14 9l-87 206q-2 4 -0.5 8t6.5 4h120q10 0 10 -10z" />
    <glyph glyph-name="eacute" unicode="&#xe9;" horiz-adv-x="470" 
d="M143 248l154 70q7 39 -12 66t-57 27q-56 0 -79.5 -49t-5.5 -114zM258 -15q-99 -1 -163.5 70t-64.5 171q0 105 63.5 175t161.5 70q68 0 107.5 -37.5t53.5 -92.5q2 -8 2 -16v-14q0 -12 -10 -15l-258 -98q16 -51 54.5 -80t95.5 -28q71 2 119 59q9 11 21 4l14 -10
q10 -8 4 -19q-23 -56 -74.5 -97t-125.5 -42zM214 533l1 207q0 10 10 10h120q5 0 6.5 -4t-0.5 -8l-87 -206q-4 -9 -14 -9h-26q-10 0 -10 10z" />
    <glyph glyph-name="ecircumflex" unicode="&#xea;" horiz-adv-x="470" 
d="M297 318l-154 -70q-18 65 5.5 114t79.5 49q38 0 57 -27t12 -66zM258 -15q74 1 125.5 42t74.5 97q6 11 -4 19l-14 10q-12 7 -21 -4q-48 -57 -119 -59q-57 -1 -95.5 28t-54.5 80l258 98q10 3 10 15v14q0 8 -2 16q-14 55 -53.5 92.5t-107.5 37.5q-98 0 -161.5 -70
t-63.5 -175q0 -100 64.5 -171t163.5 -70zM204 750h67q10 0 15 -10l101 -204q2 -5 -0.5 -9t-7.5 -4h-33q-10 0 -18 10l-91 115l-89 -115q-8 -10 -18 -10h-35q-5 0 -7.5 4t-0.5 9l102 204q5 10 15 10z" />
    <glyph glyph-name="edieresis" unicode="&#xeb;" horiz-adv-x="470" 
d="M297 318l-154 -70q-18 65 5.5 114t79.5 49q38 0 57 -27t12 -66zM258 -15q74 1 125.5 42t74.5 97q6 11 -4 19l-14 10q-12 7 -21 -4q-48 -57 -119 -59q-57 -1 -95.5 28t-54.5 80l258 98q10 3 10 15v14q0 8 -2 16q-14 55 -53.5 92.5t-107.5 37.5q-98 0 -161.5 -70
t-63.5 -175q0 -100 64.5 -171t163.5 -70zM113 713q22 20 43 -1q30 -28 51 -52q19 -23 1 -44q-27 -29 -52 -52q-22 -19 -43 0q-20 18 -51 52q-20 23 -1 45q22 26 52 52zM320 713q22 20 43 -1q30 -28 51 -52q19 -23 1 -44q-27 -29 -52 -52q-22 -19 -43 0q-20 18 -51 52
q-20 23 -1 45q22 26 52 52z" />
    <glyph glyph-name="igrave" unicode="&#xec;" horiz-adv-x="325" 
d="M44 378q-10 -4 -10 -16v-15q0 -11 13 -14q27 -5 44 -21.5t17 -43.5l1 -139q0 -39 -18 -57t-58 -24q-14 -2 -12 -15l2 -21q2 -12 14 -12h256q12 0 14 12l2 21q2 13 -12 15q-40 6 -55.5 23.5t-15.5 57.5l1 340q0 8 -9 8q-6 0 -16 -8q-80 -62 -158 -91zM190 740l1 -207
q0 -10 -10 -10h-26q-9 0 -14 9l-87 206q-2 4 -0.5 8t6.5 4h120q10 0 10 -10z" />
    <glyph glyph-name="iacute" unicode="&#xed;" horiz-adv-x="325" 
d="M44 378q78 29 158 91q10 8 16 8q9 0 9 -8l-1 -340q0 -40 15.5 -57.5t55.5 -23.5q14 -2 12 -15l-2 -21q-2 -12 -14 -12h-256q-12 0 -14 12l-2 21q-2 13 12 15q40 6 58 24t18 57l-1 139q0 27 -17 43.5t-44 21.5q-13 3 -13 14v15q0 12 10 16zM118 533l1 207q0 10 10 10h120
q5 0 6.5 -4t-0.5 -8l-87 -206q-4 -9 -14 -9h-26q-10 0 -10 10z" />
    <glyph glyph-name="icircumflex" unicode="&#xee;" horiz-adv-x="325" 
d="M44 378q-10 -4 -10 -16v-15q0 -11 13 -14q27 -5 44 -21.5t17 -43.5l1 -139q0 -39 -18 -57t-58 -24q-14 -2 -12 -15l2 -21q2 -12 14 -12h256q12 0 14 12l2 21q2 13 -12 15q-40 6 -55.5 23.5t-15.5 57.5l1 340q0 8 -9 8q-6 0 -16 -8q-80 -62 -158 -91zM130 750h67
q10 0 15 -10l101 -204q2 -5 -0.5 -9t-7.5 -4h-33q-10 0 -18 10l-91 115l-89 -115q-8 -10 -18 -10h-35q-5 0 -7.5 4t-0.5 9l102 204q5 10 15 10z" />
    <glyph glyph-name="idieresis" unicode="&#xef;" horiz-adv-x="325" 
d="M44 378q-10 -4 -10 -16v-15q0 -11 13 -14q27 -5 44 -21.5t17 -43.5l1 -139q0 -39 -18 -57t-58 -24q-14 -2 -12 -15l2 -21q2 -12 14 -12h256q12 0 14 12l2 21q2 13 -12 15q-40 6 -55.5 23.5t-15.5 57.5l1 340q0 8 -9 8q-6 0 -16 -8q-80 -62 -158 -91zM37 713q22 20 43 -1
q30 -28 51 -52q19 -23 1 -44q-27 -29 -52 -52q-22 -19 -43 0q-20 18 -51 52q-20 23 -1 45q22 26 52 52zM244 713q22 20 43 -1q30 -28 51 -52q19 -23 1 -44q-27 -29 -52 -52q-22 -19 -43 0q-20 18 -51 52q-20 23 -1 45q22 26 52 52z" />
    <glyph glyph-name="eth" unicode="&#xf0;" horiz-adv-x="581" 
d="M430 659l130 61q7 3 12 -0.5t3 -10.5l-12 -38q-4 -11 -17 -18l-78 -38q80 -110 80 -256q0 -157 -87.5 -267t-211.5 -110q-101 0 -160 62t-59 168q0 115 61.5 189t174.5 74q58 0 104.5 -25t69.5 -69q6 107 -45 199l-122 -59q-7 -3 -12 1.5t-3 11.5l12 39q4 12 16 18l77 36
q-50 58 -108 58q-37 0 -53 -22t0 -59q4 -9 4 -21v-18q0 -5 -5 -8t-11 -1l-100 37q-16 6 -22.5 18.5t-0.5 29.5q41 102 170 102q109 0 193 -84zM417 276q0 52 -29 86t-77 34q-68 0 -112 -64t-44 -161q0 -52 26.5 -84.5t73.5 -32.5q68 0 115 65.5t47 156.5z" />
    <glyph glyph-name="ntilde" unicode="&#xf1;" horiz-adv-x="595" 
d="M212 296v-167q0 -42 11 -58.5t49 -22.5q14 -2 12 -15l-2 -21q-2 -12 -14 -12h-236q-12 0 -14 12l-2 21q-2 13 12 15q39 6 53 23t14 58l-1 151q0 27 -16 44t-42 22q-13 3 -13 14v21q0 12 10 15q84 25 164 70q11 7 22 7t9 -11l-22 -102q90 96 177 96q57 0 90.5 -39
t33.5 -97v-191q0 -41 13.5 -58t51.5 -23q14 -2 12 -15l-2 -21q-2 -12 -14 -12h-241q-12 0 -14 12l-2 21q-2 13 12 15q38 6 49.5 22.5t11.5 58.5v187q0 26 -14.5 41.5t-38.5 15.5q-63 0 -119 -77zM221 646q26 0 49 16t47.5 32t54.5 16q43 0 71.5 -36t31.5 -91q0 -13 -8 -18
l-20 -12q-5 -3 -10.5 -1t-6.5 7q-10 51 -51 51q-24 0 -69 -31.5t-85 -31.5q-44 0 -71 35.5t-30 90.5q0 14 8 19l20 11q14 8 17 -6q14 -51 52 -51z" />
    <glyph glyph-name="ograve" unicode="&#xf2;" horiz-adv-x="548" 
d="M517 228q0 104 -71.5 173.5t-173.5 69.5q-107 0 -174 -68t-67 -174q0 -104 68.5 -175.5t172.5 -71.5q107 0 176 68.5t69 177.5zM159 182q-31 71 -22 130.5t59 81.5t103.5 -10.5t85.5 -105.5q32 -70 22.5 -130t-60.5 -81q-54 -23 -105.5 9.5t-82.5 105.5zM291 740l1 -207
q0 -10 -10 -10h-26q-10 0 -14 9l-87 206q-2 4 -0.5 8t6.5 4h120q10 0 10 -10z" />
    <glyph glyph-name="oacute" unicode="&#xf3;" horiz-adv-x="548" 
d="M517 228q0 -109 -69 -177.5t-176 -68.5q-104 0 -172.5 71.5t-68.5 175.5q0 106 67 174t174 68q102 0 173.5 -69.5t71.5 -173.5zM159 182q31 -73 82.5 -105.5t105.5 -9.5q51 21 60.5 81t-22.5 130q-32 73 -85.5 105.5t-103.5 10.5t-59 -81.5t22 -130.5zM229 533l1 207
q0 10 10 10h120q5 0 6.5 -4t-0.5 -8l-87 -206q-5 -9 -14 -9h-26q-10 0 -10 10z" />
    <glyph glyph-name="ocircumflex" unicode="&#xf4;" horiz-adv-x="548" 
d="M517 228q0 104 -71.5 173.5t-173.5 69.5q-107 0 -174 -68t-67 -174q0 -104 68.5 -175.5t172.5 -71.5q107 0 176 68.5t69 177.5zM159 182q-31 71 -22 130.5t59 81.5t103.5 -10.5t85.5 -105.5q32 -70 22.5 -130t-60.5 -81q-54 -23 -105.5 9.5t-82.5 105.5zM240 750h67
q10 0 15 -10l101 -204q2 -5 -0.5 -9t-7.5 -4h-33q-10 0 -18 10l-91 115l-89 -115q-8 -10 -18 -10h-35q-5 0 -7.5 4t-0.5 9l102 204q5 10 15 10z" />
    <glyph glyph-name="otilde" unicode="&#xf5;" horiz-adv-x="548" 
d="M517 228q0 -109 -69 -177.5t-176 -68.5q-104 0 -172.5 71.5t-68.5 175.5q0 106 67 174t174 68q102 0 173.5 -69.5t71.5 -173.5zM159 182q31 -73 82.5 -105.5t105.5 -9.5q51 21 60.5 81t-22.5 130q-32 73 -85.5 105.5t-103.5 10.5t-59 -81.5t22 -130.5zM190 646
q26 0 49 16t47.5 32t54.5 16q43 0 71.5 -36t31.5 -91q0 -13 -8 -18l-20 -12q-5 -3 -10.5 -1t-6.5 7q-10 51 -51 51q-24 0 -69 -31.5t-85 -31.5q-44 0 -71 35.5t-30 90.5q0 14 8 19l20 11q14 8 17 -6q14 -51 52 -51z" />
    <glyph glyph-name="odieresis" unicode="&#xf6;" horiz-adv-x="548" 
d="M517 228q0 104 -71.5 173.5t-173.5 69.5q-107 0 -174 -68t-67 -174q0 -104 68.5 -175.5t172.5 -71.5q107 0 176 68.5t69 177.5zM159 182q-31 71 -22 130.5t59 81.5t103.5 -10.5t85.5 -105.5q32 -70 22.5 -130t-60.5 -81q-54 -23 -105.5 9.5t-82.5 105.5zM143 713
q22 20 43 -1q30 -28 51 -52q19 -23 1 -44q-27 -29 -52 -52q-22 -19 -43 0q-20 18 -51 52q-20 23 -1 45q22 26 52 52zM350 713q22 20 43 -1q30 -28 51 -52q19 -23 1 -44q-27 -29 -52 -52q-22 -19 -43 0q-20 18 -51 52q-20 23 -1 45q22 26 52 52z" />
    <glyph glyph-name="divide" unicode="&#xf7;" horiz-adv-x="722" 
d="M74 363h574q14 0 14 -13v-42q0 -13 -14 -13h-574q-14 0 -14 13v42q0 13 14 13zM337 188q25 23 49 -1q34 -32 64 -64q24 -24 1 -49q-27 -30 -64 -63q-25 -23 -50 0q-43 40 -63 63q-24 26 -1 50q29 33 64 64zM337 478q-35 31 -64 64q-23 24 1 50q20 23 63 63q25 23 50 0
q37 -33 64 -63q23 -25 -1 -49q-30 -32 -64 -64q-24 -24 -49 -1z" />
    <glyph glyph-name="oslash" unicode="&#xf8;" horiz-adv-x="558" 
d="M524 228q0 -92 -62 -161l50 -51q4 -4 1.5 -10t-8.5 -6h-52q-14 0 -24 12l-14 14q-63 -41 -138 -41q-106 0 -174.5 68.5t-68.5 175.5q0 92 61 161l-48 50q-4 4 -1.5 10t8.5 6h52q14 0 23 -11l13 -14q62 40 135 40q103 0 175 -69t72 -174zM160 183q31 -72 81.5 -104
t104.5 -12q14 6 20 10l-220 255q-22 -66 14 -149zM392 279q-30 73 -83 105t-104 11q-12 -5 -18 -10l218 -256q22 64 -13 150z" />
    <glyph glyph-name="ugrave" unicode="&#xf9;" horiz-adv-x="590" 
d="M470 -10q64 0 107 43q8 8 7 20l-4 24q-2 14 -16 8q-27 -10 -44 -10q-16 0 -25.5 9t-9.5 24l1 336q0 12 -13 12h-164q-12 0 -14 -12l-2 -21q-1 -12 12 -15q34 -6 47.5 -24.5t13.5 -56.5v-180q-62 -66 -109 -66q-30 0 -47 16.5t-16 46.5q10 212 10 300q0 12 -13 12h-164
q-12 0 -14 -12l-2 -21q-1 -12 12 -15q34 -6 47.5 -24.5t13.5 -55.5q0 -36 -4 -107t-4 -117q-1 -56 31 -87.5t86 -31.5q79 0 173 86q15 -81 104 -81zM302 740l1 -207q0 -10 -10 -10h-26q-9 0 -14 9l-87 206q-2 4 -0.5 8t6.5 4h120q10 0 10 -10z" />
    <glyph glyph-name="uacute" unicode="&#xfa;" horiz-adv-x="590" 
d="M470 -10q-89 0 -104 81q-94 -86 -173 -86q-54 0 -86 31.5t-31 87.5q0 46 4 117t4 107q0 37 -13.5 55.5t-47.5 24.5q-13 3 -12 15l2 21q2 12 14 12h164q13 0 13 -12q0 -88 -10 -300q-1 -30 16 -46.5t47 -16.5q47 0 109 66v180q0 38 -13.5 56.5t-47.5 24.5q-13 3 -12 15
l2 21q2 12 14 12h164q13 0 13 -12l-1 -336q0 -15 9.5 -24t25.5 -9q17 0 44 10q14 6 16 -8l4 -24q1 -12 -7 -20q-43 -43 -107 -43zM250 533l1 207q0 10 10 10h120q5 0 6.5 -4t-0.5 -8l-87 -206q-4 -9 -14 -9h-26q-10 0 -10 10z" />
    <glyph glyph-name="ucircumflex" unicode="&#xfb;" horiz-adv-x="590" 
d="M470 -10q64 0 107 43q8 8 7 20l-4 24q-2 14 -16 8q-27 -10 -44 -10q-16 0 -25.5 9t-9.5 24l1 336q0 12 -13 12h-164q-12 0 -14 -12l-2 -21q-1 -12 12 -15q34 -6 47.5 -24.5t13.5 -56.5v-180q-62 -66 -109 -66q-30 0 -47 16.5t-16 46.5q10 212 10 300q0 12 -13 12h-164
q-12 0 -14 -12l-2 -21q-1 -12 12 -15q34 -6 47.5 -24.5t13.5 -55.5q0 -36 -4 -107t-4 -117q-1 -56 31 -87.5t86 -31.5q79 0 173 86q15 -81 104 -81zM250 750h67q10 0 15 -10l101 -204q2 -5 -0.5 -9t-7.5 -4h-33q-10 0 -18 10l-91 115l-89 -115q-8 -10 -18 -10h-35
q-5 0 -7.5 4t-0.5 9l102 204q5 10 15 10z" />
    <glyph glyph-name="udieresis" unicode="&#xfc;" horiz-adv-x="590" 
d="M470 -10q64 0 107 43q8 8 7 20l-4 24q-2 14 -16 8q-27 -10 -44 -10q-16 0 -25.5 9t-9.5 24l1 336q0 12 -13 12h-164q-12 0 -14 -12l-2 -21q-1 -12 12 -15q34 -6 47.5 -24.5t13.5 -56.5v-180q-62 -66 -109 -66q-30 0 -47 16.5t-16 46.5q10 212 10 300q0 12 -13 12h-164
q-12 0 -14 -12l-2 -21q-1 -12 12 -15q34 -6 47.5 -24.5t13.5 -55.5q0 -36 -4 -107t-4 -117q-1 -56 31 -87.5t86 -31.5q79 0 173 86q15 -81 104 -81zM152 713q22 20 43 -1q30 -28 51 -52q19 -23 1 -44q-27 -29 -52 -52q-22 -19 -43 0q-20 18 -51 52q-20 23 -1 45q22 26 52 52
zM359 713q22 20 43 -1q30 -28 51 -52q19 -23 1 -44q-27 -29 -52 -52q-22 -19 -43 0q-20 18 -51 52q-20 23 -1 45q22 26 52 52z" />
    <glyph glyph-name="yacute" unicode="&#xfd;" horiz-adv-x="525" 
d="M154 -172l-34 18q-12 7 -5 20l117 213l-134 242q-20 35 -37.5 53.5t-44.5 33.5q-11 6 -10 16l2 20q2 12 14 12h223q12 0 14 -12l2 -20q1 -12 -10 -16q-21 -8 -29 -28.5t5 -46.5l71 -138l63 140q11 27 2.5 46t-29.5 27q-11 4 -10 16l2 20q2 12 14 12h163q12 0 14 -12
l2 -20q2 -12 -10 -16q-31 -13 -49.5 -32.5t-36.5 -54.5l-249 -488q-7 -12 -20 -5zM257 533l1 207q0 10 10 10h120q5 0 6.5 -4t-0.5 -8l-87 -206q-5 -9 -14 -9h-26q-10 0 -10 10z" />
    <glyph glyph-name="thorn" unicode="&#xfe;" horiz-adv-x="593" 
d="M85 -115v666q0 27 -17.5 44t-44.5 22q-13 3 -13 14v20q0 12 10 16q79 33 137 85q8 8 19 8h17q12 -2 12 -13l-7 -371q23 40 65 67.5t97 27.5q92 0 147.5 -70t55.5 -179q0 -112 -60 -174.5t-158 -62.5q-76 0 -141 44l3 -144q0 -39 20 -57t61 -24q14 -2 12 -15l-2 -21
q-2 -12 -14 -12h-267q-12 0 -14 12l-2 21q-2 13 12 15q40 6 56 23.5t16 57.5zM224 156q27 -63 76.5 -87.5t96.5 -7.5q45 17 58 71t-16 126q-30 71 -82.5 96.5t-100.5 3.5q-44 -20 -53 -74.5t21 -127.5z" />
    <glyph glyph-name="ydieresis" unicode="&#xff;" horiz-adv-x="525" 
d="M154 -172q13 -7 20 5l249 488q18 35 36.5 54.5t49.5 32.5q12 4 10 16l-2 20q-2 12 -14 12h-163q-12 0 -14 -12l-2 -20q-1 -12 10 -16q21 -8 29.5 -27t-2.5 -46l-63 -140l-71 138q-13 26 -5 46.5t29 28.5q11 4 10 16l-2 20q-2 12 -14 12h-223q-12 0 -14 -12l-2 -20
q-1 -10 10 -16q27 -15 44.5 -33.5t37.5 -53.5l134 -242l-117 -213q-7 -13 5 -20zM162 713q22 20 43 -1q30 -28 51 -52q19 -23 1 -44q-27 -29 -52 -52q-22 -19 -43 0q-20 18 -51 52q-20 23 -1 45q22 26 52 52zM369 713q22 20 43 -1q30 -28 51 -52q19 -23 1 -44
q-27 -29 -52 -52q-22 -19 -43 0q-20 18 -51 52q-20 23 -1 45q22 26 52 52z" />
    <glyph glyph-name="Amacron" unicode="&#x100;" horiz-adv-x="731" 
d="M448 212l26 -88q21 -60 -50 -71q-14 -2 -12 -15l2 -26q2 -12 14 -12h281q12 0 14 12l2 26q2 13 -12 15q-38 6 -60.5 25t-36.5 56l-185 576q-4 11 -15 11h-64q-11 0 -15 -11l-215 -576q-26 -69 -104 -81q-14 -2 -12 -15l2 -26q2 -12 14 -12h220q12 0 14 12l2 26
q2 13 -12 15q-38 6 -49 23.5t-1 47.5l30 88h222zM248 284l99 276l87 -276h-186zM505 800h-260q-8 0 -12 5.5t-1 13.5l21 50q7 15 22 15h259q8 0 12 -5.5t1 -13.5l-20 -50q-7 -15 -22 -15z" />
    <glyph glyph-name="amacron" unicode="&#x101;" horiz-adv-x="503" 
d="M273 235l-1 -114q-50 -44 -93 -44q-22 0 -35.5 13t-13.5 35q0 37 47 66q44 26 96 44zM113 359q62 31 116 31q41 0 41 -41l-1 -69q-61 -17 -112 -37q-141 -53 -141 -145q0 -47 30.5 -77.5t78.5 -30.5q80 0 155 71q21 -68 91 -68t119 47q9 9 7 21l-4 28q-1 6 -6.5 7.5
t-10.5 -1.5q-28 -14 -54 -14q-15 0 -24 9t-9 24l3 251q0 98 -104 98q-107 0 -200 -56q-11 -7 -6 -18l11 -24q6 -13 20 -6zM377 577h-254q-8 0 -12 5.5t-1 13.5l21 50q7 15 22 15h253q8 0 12 -5.5t1 -13.5l-20 -50q-7 -15 -22 -15z" />
    <glyph glyph-name="Abreve" unicode="&#x102;" horiz-adv-x="731" 
d="M474 124l-26 88h-222l-30 -88q-10 -30 1 -47.5t49 -23.5q14 -2 12 -15l-2 -26q-2 -12 -14 -12h-220q-12 0 -14 12l-2 26q-2 13 12 15q78 12 104 81l215 576q4 11 15 11h64q11 0 15 -11l185 -576q14 -37 36.5 -56t60.5 -25q14 -2 12 -15l-2 -26q-2 -12 -14 -12h-281
q-12 0 -14 12l-2 26q-2 13 12 15q71 11 50 71zM347 560l-99 -276h186zM381 774q-80 0 -116 47t-35 114q0 12 12 12h31q11 0 13 -12q11 -74 95 -74q85 0 96 74q2 12 13 12h29q12 0 12 -12q1 -66 -35 -113.5t-115 -47.5z" />
    <glyph glyph-name="abreve" unicode="&#x103;" horiz-adv-x="503" 
d="M272 121l1 114q-52 -18 -96 -44q-47 -29 -47 -66q0 -22 13.5 -35t35.5 -13q43 0 93 44zM113 359q-14 -7 -20 6l-11 24q-5 11 6 18q93 56 200 56q104 0 104 -98l-3 -251q0 -15 9 -24t24 -9q26 0 54 14q5 3 10.5 1.5t6.5 -7.5l4 -28q2 -12 -7 -21q-49 -47 -119 -47t-91 68
q-75 -71 -155 -71q-48 0 -78.5 30.5t-30.5 77.5q0 92 141 145q51 20 112 37l1 69q0 41 -41 41q-54 0 -116 -31zM257 537q-43 0 -74 14.5t-47 39t-23 52t-7 58.5q0 12 11 12h31q11 0 13 -12q8 -71 96 -71t96 71q2 12 13 12h29q11 0 11 -12q1 -68 -34 -116t-115 -48z" />
    <glyph glyph-name="Aogonek" unicode="&#x104;" horiz-adv-x="731" 
d="M474 124l-26 88h-222l-30 -88q-10 -30 1 -47.5t49 -23.5q14 -2 12 -15l-2 -26q-2 -12 -14 -12h-220q-12 0 -14 12l-2 26q-2 13 12 15q78 12 104 81l215 576q4 11 15 11h64q11 0 15 -11l185 -576q14 -37 36.5 -56t60.5 -25q14 -2 12 -15l-2 -26q-2 -12 -14 -12h-91
q-102 -85 -101 -139q1 -33 39 -33q40 0 97 36q12 8 18 -3l9 -16q5 -10 -3 -18q-74 -74 -151 -74q-44 0 -71 22.5t-27 63.5q0 43 38 86.5t85 74.5h-123q-12 0 -14 12l-2 26q-2 13 12 15q71 11 50 71zM347 560l-99 -276h186z" />
    <glyph glyph-name="aogonek" unicode="&#x105;" horiz-adv-x="503" 
d="M113 359q-14 -7 -20 6l-11 24q-5 11 6 18q93 56 200 56q104 0 104 -98l-3 -251q0 -15 9 -24t24 -9q26 0 54 14q5 3 10.5 1.5t6.5 -7.5l4 -28q2 -12 -7 -21q-31 -29 -76 -41q-100 -84 -99 -138q1 -33 39 -33q40 0 97 36q12 8 18 -3l9 -16q5 -10 -3 -18q-74 -74 -151 -74
q-44 0 -71 22.5t-27 63.5q0 75 117 158q-47 12 -63 64q-75 -71 -155 -71q-48 0 -78.5 30.5t-30.5 77.5q0 92 141 145q51 20 112 37l1 69q0 41 -41 41q-54 0 -116 -31zM272 121l1 114q-52 -18 -96 -44q-47 -29 -47 -66q0 -22 13.5 -35t35.5 -13q43 0 93 44z" />
    <glyph glyph-name="Cacute" unicode="&#x106;" horiz-adv-x="718" 
d="M559 710q11 0 21.5 5.5t19.5 5.5h21q11 0 11 -11l2 -201q0 -14 -14 -14h-31q-13 0 -19 13q-33 81 -82 125t-125 44q-96 0 -148.5 -72.5t-52.5 -182.5q0 -66 16 -127t47 -110.5t81 -79t113 -29.5q165 0 237 192q5 12 17 7l34 -15q9 -5 5 -17q-31 -115 -112 -189t-206 -74
q-110 0 -193 53.5t-124.5 139.5t-41.5 190q0 96 38.5 181t116 141t177.5 56q57 0 123 -15.5t69 -15.5zM347 781l1 180q0 10 10 10h125q5 0 7 -4t0 -8l-92 -180q-4 -9 -14 -9h-26q-11 0 -11 11z" />
    <glyph glyph-name="cacute" unicode="&#x107;" horiz-adv-x="466" 
d="M395 331l-34 -27q-9 -7 -19 -7h-10q-10 0 -13 10q-14 49 -34.5 74.5t-59.5 25.5q-40 0 -63.5 -33t-23.5 -83q0 -89 44.5 -144t122.5 -55q70 0 115 54q9 11 21 4l14 -10q10 -8 4 -19q-23 -56 -74.5 -96t-125.5 -40q-102 0 -166.5 70t-64.5 172q0 108 67 176t169 68
q78 0 124 -41q26 -21 29 -49.5t-22 -49.5zM222 533l1 207q0 10 10 10h120q5 0 6.5 -4t-0.5 -8l-87 -206q-4 -9 -14 -9h-26q-10 0 -10 10z" />
    <glyph glyph-name="Ccircumflex" unicode="&#x108;" horiz-adv-x="718" 
d="M559 710q-3 0 -69 15.5t-123 15.5q-100 0 -177.5 -56t-116 -141t-38.5 -181q0 -104 41.5 -190t124.5 -139.5t193 -53.5q125 0 206 74t112 189q4 12 -5 17l-34 15q-12 5 -17 -7q-72 -192 -237 -192q-63 0 -113 29.5t-81 79t-47 110.5t-16 127q0 110 52.5 182.5t148.5 72.5
q76 0 125 -44t82 -125q6 -13 19 -13h31q14 0 14 14l-2 201q0 11 -11 11h-21q-9 0 -19.5 -5.5t-21.5 -5.5zM335 971h78q11 0 16 -10l80 -177q3 -5 0.5 -9t-7.5 -4h-33q-11 0 -19 9l-75 103l-76 -102q-8 -10 -19 -10h-34q-5 0 -8 4t0 9l81 177q5 10 16 10z" />
    <glyph glyph-name="ccircumflex" unicode="&#x109;" horiz-adv-x="466" 
d="M361 304l34 27q25 21 22 49.5t-29 49.5q-46 41 -124 41q-102 0 -169 -68t-67 -176q0 -102 64.5 -172t166.5 -70q74 0 125.5 40t74.5 96q6 11 -4 19l-14 10q-12 7 -21 -4q-45 -54 -115 -54q-78 0 -122.5 55t-44.5 144q0 50 23.5 83t63.5 33q39 0 59.5 -25.5t34.5 -74.5
q3 -10 13 -10h10q10 0 19 7zM214 750h67q10 0 15 -10l101 -204q2 -5 -0.5 -9t-7.5 -4h-33q-10 0 -18 10l-91 115l-89 -115q-8 -10 -18 -10h-35q-5 0 -7.5 4t-0.5 9l102 204q5 10 15 10z" />
    <glyph glyph-name="Cdotaccent" unicode="&#x10a;" horiz-adv-x="718" 
d="M559 710q-3 0 -69 15.5t-123 15.5q-100 0 -177.5 -56t-116 -141t-38.5 -181q0 -104 41.5 -190t124.5 -139.5t193 -53.5q125 0 206 74t112 189q4 12 -5 17l-34 15q-12 5 -17 -7q-72 -192 -237 -192q-63 0 -113 29.5t-81 79t-47 110.5t-16 127q0 110 52.5 182.5t148.5 72.5
q76 0 125 -44t82 -125q6 -13 19 -13h31q14 0 14 14l-2 201q0 11 -11 11h-21q-9 0 -19.5 -5.5t-21.5 -5.5zM351 944q11 9 22 9q13 0 23 -10q30 -29 57 -57q10 -10 10 -23q0 -12 -9 -21q-33 -35 -58 -57q-10 -10 -22 -10q-13 0 -23 10q-39 37 -56 57q-10 10 -10 23q0 11 9 22
q26 29 57 57z" />
    <glyph glyph-name="cdotaccent" unicode="&#x10b;" horiz-adv-x="466" 
d="M395 331l-34 -27q-9 -7 -19 -7h-10q-10 0 -13 10q-14 49 -34.5 74.5t-59.5 25.5q-40 0 -63.5 -33t-23.5 -83q0 -89 44.5 -144t122.5 -55q70 0 115 54q9 11 21 4l14 -10q10 -8 4 -19q-23 -56 -74.5 -96t-125.5 -40q-102 0 -166.5 70t-64.5 172q0 108 67 176t169 68
q78 0 124 -41q26 -21 29 -49.5t-22 -49.5zM227 725q24 20 45 -1q30 -28 57 -57q21 -21 1 -44q-32 -34 -58 -57q-23 -19 -45 0q-27 22 -56 57q-22 22 -1 45q26 29 57 57z" />
    <glyph glyph-name="Ccaron" unicode="&#x10c;" horiz-adv-x="718" 
d="M559 710q11 0 21.5 5.5t19.5 5.5h21q11 0 11 -11l2 -201q0 -14 -14 -14h-31q-13 0 -19 13q-33 81 -82 125t-125 44q-96 0 -148.5 -72.5t-52.5 -182.5q0 -66 16 -127t47 -110.5t81 -79t113 -29.5q165 0 237 192q5 12 17 7l34 -15q9 -5 5 -17q-31 -115 -112 -189t-206 -74
q-110 0 -193 53.5t-124.5 139.5t-41.5 190q0 96 38.5 181t116 141t177.5 56q57 0 123 -15.5t69 -15.5zM408 771h-78q-11 0 -16 10l-81 177q-3 5 0 9t8 4h34q11 0 19 -10l76 -102l75 103q7 9 19 9h33q5 0 7.5 -4t-0.5 -9l-80 -177q-5 -10 -16 -10z" />
    <glyph glyph-name="ccaron" unicode="&#x10d;" horiz-adv-x="466" 
d="M395 331l-34 -27q-9 -7 -19 -7h-10q-10 0 -13 10q-14 49 -34.5 74.5t-59.5 25.5q-40 0 -63.5 -33t-23.5 -83q0 -89 44.5 -144t122.5 -55q70 0 115 54q9 11 21 4l14 -10q10 -8 4 -19q-23 -56 -74.5 -96t-125.5 -40q-102 0 -166.5 70t-64.5 172q0 108 67 176t169 68
q78 0 124 -41q26 -21 29 -49.5t-22 -49.5zM284 523h-66q-10 0 -15 10l-102 204q-2 5 0.5 9t7.5 4h35q10 0 18 -10l89 -114l91 114q8 10 18 10h33q5 0 7.5 -4t0.5 -9l-102 -204q-5 -10 -15 -10z" />
    <glyph glyph-name="Dcaron" unicode="&#x10e;" horiz-adv-x="769" 
d="M370 0h-323q-12 0 -14 12l-2 26q-2 13 12 15q41 6 61 24t20 57l-1 453q0 39 -19.5 57t-60.5 24q-14 2 -12 15l2 26q2 12 14 12h265q105 0 199.5 -48t158 -145t63.5 -223q0 -79 -28 -139t-78.5 -95.5t-114.5 -53t-142 -17.5zM310 59h57q107 0 170.5 63t63.5 182
q0 158 -79.5 258.5t-212.5 100.5q-26 0 -41.5 -15.5t-15.5 -38.5l1 -494q0 -23 16 -39.5t41 -16.5zM391 771h-78q-11 0 -16 10l-81 177q-3 5 0 9t8 4h34q11 0 19 -10l76 -102l75 103q8 9 19 9h33q5 0 7.5 -4t-0.5 -9l-80 -177q-5 -10 -16 -10z" />
    <glyph glyph-name="dcaron" unicode="&#x10f;" horiz-adv-x="683" 
d="M243 467q72 0 131 -48l-4 132q-2 56 -59 66q-13 3 -13 14v20q0 12 10 16q77 32 136 85q8 8 19 8h17q12 -2 12 -13l-1 -633q0 -33 34 -33q27 0 55 14q5 3 10.5 1.5t6.5 -7.5l4 -28q2 -12 -7 -21q-49 -47 -119 -47q-68 0 -89 67q-24 -33 -62 -54t-83 -21q-96 0 -154 70
t-58 172q0 105 57.5 172.5t156.5 67.5zM153 186q27 -62 75.5 -86t95.5 -7q45 17 58.5 70t-14.5 125q-30 71 -82 97.5t-101 3.5q-44 -20 -53 -76t21 -127zM593 600q0 11 -5.5 21.5t-10 15t-18.5 15.5t-18 14q-21 18 -2 42q20 25 42 44t42 -1q31 -29 49 -51q14 -17 9 -41
q-18 -97 -89 -162q-10 -10 -20 0l-16 16q-10 9 0 19q37 39 37 68z" />
    <glyph glyph-name="Dcroat" unicode="&#x110;" horiz-adv-x="774" 
d="M128 335h-75q-14 0 -14 13v40q0 13 14 13h75v186q0 39 -19.5 57t-60.5 24q-14 2 -12 15l2 26q2 12 14 12h265q105 0 199.5 -48t158 -145t63.5 -223q0 -79 -28 -139t-78.5 -95.5t-114.5 -53t-142 -17.5h-323q-12 0 -14 12l-2 26q-2 13 12 15q41 6 61 24t20 57zM315 59h57
q107 0 170.5 63t63.5 182q0 158 -79.5 258.5t-212.5 100.5q-26 0 -41.5 -15.5t-15.5 -38.5v-208h137q14 0 14 -13v-40q0 -13 -14 -13h-137l1 -220q0 -23 16 -39.5t41 -16.5z" />
    <glyph glyph-name="dcroat" unicode="&#x111;" horiz-adv-x="607" 
d="M243 466q76 0 134 -47l-1 90h-191q-16 0 -11 16l12 33q4 12 18 12h170q-3 17 -13.5 27t-21 13.5t-28.5 6.5q-13 3 -13 14v20q0 12 10 16q77 32 136 85q8 8 19 8h17q12 -2 12 -13l-1 -177h94q16 0 11 -16l-12 -33q-4 -12 -18 -12h-75v-395q0 -33 34 -33q27 0 55 14
q5 3 10.5 1.5t6.5 -7.5l4 -28q2 -12 -7 -21q-49 -47 -119 -47q-68 0 -89 67q-24 -33 -62 -54t-83 -21q-96 0 -154 70t-58 172q0 105 57.5 172t156.5 67zM153 186q27 -62 75.5 -86t95.5 -7q45 17 58.5 70t-14.5 125q-30 71 -82 97.5t-101 3.5q-44 -20 -53 -76t21 -127z" />
    <glyph glyph-name="Emacron" unicode="&#x112;" horiz-adv-x="710" 
d="M47 0h399l166 -2q14 0 17 11q2 7 24 79.5t33 105.5q4 14 4 21v21q0 12 -12 12h-24q-12 0 -19 -10q-60 -92 -119.5 -135t-162.5 -43h-32q-58 0 -58 55v219h101q76 0 88 -69q3 -13 15 -12l26 2q12 2 12 14v197q0 12 -12 14l-26 2q-12 2 -15 -12q-12 -70 -88 -70h-111v221
q0 49 56 49h36q32 0 57.5 -9t45.5 -28t28 -29t22 -30q7 -11 17 -11h14q11 0 18 11q6 9 30 44.5t36 53.5q7 9 5 21l-2 19q-2 12 -14 12q-63 -3 -186 -3h-369q-12 0 -14 -12l-2 -26q-2 -13 12 -15q41 -6 60.5 -24t19.5 -57l1 -453q0 -39 -20 -57t-61 -24q-14 -2 -12 -15l2 -26
q2 -12 14 -12zM460 800h-260q-8 0 -12 5.5t-1 13.5l21 50q7 15 22 15h259q8 0 12 -5.5t1 -13.5l-20 -50q-7 -15 -22 -15z" />
    <glyph glyph-name="emacron" unicode="&#x113;" horiz-adv-x="470" 
d="M297 318l-154 -70q-18 65 5.5 114t79.5 49q38 0 57 -27t12 -66zM258 -15q74 1 125.5 42t74.5 97q6 11 -4 19l-14 10q-12 7 -21 -4q-48 -57 -119 -59q-57 -1 -95.5 28t-54.5 80l258 98q10 3 10 15v14q0 8 -2 16q-14 55 -53.5 92.5t-107.5 37.5q-98 0 -161.5 -70
t-63.5 -175q0 -100 64.5 -171t163.5 -70zM364 577h-254q-8 0 -12 5.5t-1 13.5l21 50q7 15 22 15h253q8 0 12 -5.5t1 -13.5l-20 -50q-7 -15 -22 -15z" />
    <glyph glyph-name="Ebreve" unicode="&#x114;" horiz-adv-x="710" 
d="M446 0h-399q-12 0 -14 12l-2 26q-2 13 12 15q41 6 61 24t20 57l-1 453q0 39 -19.5 57t-60.5 24q-14 2 -12 15l2 26q2 12 14 12h369l186 3q12 0 14 -12l2 -19q2 -12 -5 -21q-12 -18 -36 -53.5t-30 -44.5q-7 -11 -18 -11h-14q-10 0 -17 11q-14 20 -22 30t-28 29t-45.5 28
t-57.5 9h-36q-56 0 -56 -49v-221h111q76 0 88 70q3 14 15 12l26 -2q12 -2 12 -14v-197q0 -12 -12 -14l-26 -2q-12 -1 -15 12q-12 69 -88 69h-101v-219q0 -55 58 -55h32q103 0 162.5 43t119.5 135q7 10 19 10h24q12 0 12 -12v-21q0 -7 -4 -21q-11 -33 -33 -105.5t-24 -79.5
q-3 -11 -17 -11q-53 2 -166 2zM346 774q-80 0 -116 47t-35 114q0 12 12 12h31q11 0 13 -12q11 -74 95 -74q85 0 96 74q2 12 13 12h29q12 0 12 -12q1 -66 -35 -113.5t-115 -47.5z" />
    <glyph glyph-name="ebreve" unicode="&#x115;" horiz-adv-x="470" 
d="M143 248l154 70q7 39 -12 66t-57 27q-56 0 -79.5 -49t-5.5 -114zM258 -15q-99 -1 -163.5 70t-64.5 171q0 105 63.5 175t161.5 70q68 0 107.5 -37.5t53.5 -92.5q2 -8 2 -16v-14q0 -12 -10 -15l-258 -98q16 -51 54.5 -80t95.5 -28q71 2 119 59q9 11 21 4l14 -10
q10 -8 4 -19q-23 -56 -74.5 -97t-125.5 -42zM237 537q-43 0 -74 14.5t-47 39t-23 52t-7 58.5q0 12 11 12h31q11 0 13 -12q8 -71 96 -71t96 71q2 12 13 12h29q11 0 11 -12q1 -68 -34 -116t-115 -48z" />
    <glyph glyph-name="Edotaccent" unicode="&#x116;" horiz-adv-x="710" 
d="M47 0h399l166 -2q14 0 17 11q2 7 24 79.5t33 105.5q4 14 4 21v21q0 12 -12 12h-24q-12 0 -19 -10q-60 -92 -119.5 -135t-162.5 -43h-32q-58 0 -58 55v219h101q76 0 88 -69q3 -13 15 -12l26 2q12 2 12 14v197q0 12 -12 14l-26 2q-12 2 -15 -12q-12 -70 -88 -70h-111v221
q0 49 56 49h36q32 0 57.5 -9t45.5 -28t28 -29t22 -30q7 -11 17 -11h14q11 0 18 11q6 9 30 44.5t36 53.5q7 9 5 21l-2 19q-2 12 -14 12q-63 -3 -186 -3h-369q-12 0 -14 -12l-2 -26q-2 -13 12 -15q41 -6 60.5 -24t19.5 -57l1 -453q0 -39 -20 -57t-61 -24q-14 -2 -12 -15l2 -26
q2 -12 14 -12zM332 944q10 9 22 9q13 0 23 -10q30 -29 57 -57q10 -10 10 -23q0 -12 -9 -21q-33 -35 -58 -57q-10 -10 -22 -10q-13 0 -23 10q-39 37 -56 57q-10 10 -10 23q0 11 9 22q26 29 57 57z" />
    <glyph glyph-name="edotaccent" unicode="&#x117;" horiz-adv-x="470" 
d="M143 248l154 70q7 39 -12 66t-57 27q-56 0 -79.5 -49t-5.5 -114zM258 -15q-99 -1 -163.5 70t-64.5 171q0 105 63.5 175t161.5 70q68 0 107.5 -37.5t53.5 -92.5q2 -8 2 -16v-14q0 -12 -10 -15l-258 -98q16 -51 54.5 -80t95.5 -28q71 2 119 59q9 11 21 4l14 -10
q10 -8 4 -19q-23 -56 -74.5 -97t-125.5 -42zM209 725q24 20 45 -1q30 -28 57 -57q21 -21 1 -44q-32 -34 -58 -57q-23 -19 -45 0q-27 22 -56 57q-22 22 -1 45q26 29 57 57z" />
    <glyph glyph-name="Eogonek" unicode="&#x118;" horiz-adv-x="710" 
d="M446 0h-399q-12 0 -14 12l-2 26q-2 13 12 15q41 6 61 24t20 57l-1 453q0 39 -19.5 57t-60.5 24q-14 2 -12 15l2 26q2 12 14 12h369l186 3q12 0 14 -12l2 -19q2 -12 -5 -21q-12 -18 -36 -53.5t-30 -44.5q-7 -11 -18 -11h-14q-10 0 -17 11q-14 20 -22 30t-28 29t-45.5 28
t-57.5 9h-36q-56 0 -56 -49v-221h111q76 0 88 70q3 14 15 12l26 -2q12 -2 12 -14v-197q0 -12 -12 -14l-26 -2q-12 -1 -15 12q-12 69 -88 69h-101v-219q0 -55 58 -55h32q103 0 162.5 43t119.5 135q7 10 19 10h24q12 0 12 -12v-21q0 -7 -4 -21q-11 -33 -33 -105.5t-24 -79.5
q-3 -11 -17 -11q-12 1 -35 1q-101 -84 -100 -138q1 -33 39 -33q40 0 97 36q12 8 18 -3l9 -16q5 -10 -3 -18q-74 -74 -151 -74q-44 0 -71 22.5t-27 63.5q0 43 38 86.5t85 74.5h-65z" />
    <glyph glyph-name="eogonek" unicode="&#x119;" horiz-adv-x="470" 
d="M30 226q0 105 63.5 175t161.5 70q68 0 107.5 -37.5t53.5 -92.5q2 -8 2 -16v-14q0 -12 -10 -15l-258 -98q16 -51 54.5 -80t95.5 -28q71 2 119 59q9 11 21 4l14 -10q10 -8 4 -19q-37 -88 -119 -123l-1 -1q-102 -85 -101 -139q1 -33 39 -33q40 0 97 36q12 8 18 -3l9 -16
q5 -10 -3 -18q-74 -74 -151 -74q-44 0 -71 22.5t-27 63.5q0 68 102 146q-97 2 -158.5 72.5t-61.5 168.5zM143 248l154 70q7 39 -12 66t-57 27q-56 0 -79.5 -49t-5.5 -114z" />
    <glyph glyph-name="Ecaron" unicode="&#x11a;" horiz-adv-x="710" 
d="M446 0h-399q-12 0 -14 12l-2 26q-2 13 12 15q41 6 61 24t20 57l-1 453q0 39 -19.5 57t-60.5 24q-14 2 -12 15l2 26q2 12 14 12h369l186 3q12 0 14 -12l2 -19q2 -12 -5 -21q-12 -18 -36 -53.5t-30 -44.5q-7 -11 -18 -11h-14q-10 0 -17 11q-14 20 -22 30t-28 29t-45.5 28
t-57.5 9h-36q-56 0 -56 -49v-221h111q76 0 88 70q3 14 15 12l26 -2q12 -2 12 -14v-197q0 -12 -12 -14l-26 -2q-12 -1 -15 12q-12 69 -88 69h-101v-219q0 -55 58 -55h32q103 0 162.5 43t119.5 135q7 10 19 10h24q12 0 12 -12v-21q0 -7 -4 -21q-11 -33 -33 -105.5t-24 -79.5
q-3 -11 -17 -11q-53 2 -166 2zM376 771h-78q-11 0 -16 10l-81 177q-3 5 0 9t8 4h34q11 0 19 -10l76 -102l75 103q7 9 19 9h33q5 0 7.5 -4t-0.5 -9l-80 -177q-5 -10 -16 -10z" />
    <glyph glyph-name="ecaron" unicode="&#x11b;" horiz-adv-x="470" 
d="M143 248l154 70q7 39 -12 66t-57 27q-56 0 -79.5 -49t-5.5 -114zM258 -15q-99 -1 -163.5 70t-64.5 171q0 105 63.5 175t161.5 70q68 0 107.5 -37.5t53.5 -92.5q2 -8 2 -16v-14q0 -12 -10 -15l-258 -98q16 -51 54.5 -80t95.5 -28q71 2 119 59q9 11 21 4l14 -10
q10 -8 4 -19q-23 -56 -74.5 -97t-125.5 -42zM272 523h-66q-10 0 -15 10l-102 204q-2 5 0.5 9t7.5 4h35q10 0 18 -10l89 -114l91 114q8 10 18 10h33q5 0 7.5 -4t0.5 -9l-102 -204q-5 -10 -15 -10z" />
    <glyph glyph-name="Gcircumflex" unicode="&#x11c;" horiz-adv-x="753" 
d="M658 65l-2 156q0 41 13 58t51 23q14 2 12 15l-2 26q-2 12 -14 12h-299q-12 0 -14 -12l-2 -31q-2 -13 12 -15q32 -5 51.5 -11t36.5 -24t17 -46v-107q0 -13 -9 -21q-35 -30 -94 -30q-54 0 -98 20t-72.5 53.5t-47.5 79.5t-27 95t-8 103q0 112 57 190t156 78q141 0 222 -163
q6 -12 18 -12h27q14 0 14 14l-2 194q0 11 -11 11h-21q-9 0 -19.5 -5.5t-21.5 -5.5q-3 0 -73 15.5t-127 15.5q-79 0 -146 -32.5t-110 -86.5t-66.5 -121t-23.5 -138q0 -158 101.5 -270.5t261.5 -112.5q135 0 249 67q11 7 11 18zM341 971h78q11 0 16 -10l80 -177q3 -5 0.5 -9
t-7.5 -4h-33q-12 0 -19 9l-75 103l-76 -102q-8 -10 -19 -10h-34q-5 0 -8 4t0 9l81 177q5 10 16 10z" />
    <glyph glyph-name="gcircumflex" unicode="&#x11d;" horiz-adv-x="532" 
d="M31 288q0 -107 88 -156q-38 -10 -64.5 -32.5t-26.5 -53.5q0 -51 60 -83q-79 -27 -79 -82q0 -50 61.5 -82.5t173.5 -32.5q107 0 182 43t75 112q0 54 -36.5 84t-98.5 35q-25 2 -88.5 3t-91.5 5q-46 7 -46 32q0 20 32 32q27 -7 62 -7q85 0 143.5 52t58.5 135q0 25 -8 51
q16 35 34 35q10 0 14.5 -6.5t2.5 -14.5q23 0 39.5 14.5t16.5 36.5t-14 35t-37 13q-45 0 -77 -68q-28 40 -74.5 62.5t-101.5 22.5q-84 0 -142 -52.5t-58 -132.5zM329 248q0 -44 -25 -67t-63 -23q-53 0 -88.5 45.5t-35.5 98.5q0 44 25 68t63 24q54 0 89 -45.5t35 -100.5z
M107 -109q0 32 28 53l21 -6q45 -10 191 -14q23 -1 36 -11.5t13 -27.5q0 -30 -44 -47.5t-108 -17.5q-137 0 -137 71zM214 750h67q10 0 15 -10l101 -204q2 -5 -0.5 -9t-7.5 -4h-33q-10 0 -18 10l-91 115l-89 -115q-8 -10 -18 -10h-35q-5 0 -7.5 4t-0.5 9l102 204q5 10 15 10z
" />
    <glyph glyph-name="Gbreve" unicode="&#x11e;" horiz-adv-x="753" 
d="M656 221l2 -156q0 -11 -11 -18q-114 -67 -249 -67q-160 0 -261.5 112.5t-101.5 270.5q0 71 23.5 138t66.5 121t110 86.5t146 32.5q57 0 127 -15.5t73 -15.5q11 0 21.5 5.5t19.5 5.5h21q11 0 11 -11l2 -194q0 -14 -14 -14h-27q-12 0 -18 12q-81 163 -222 163
q-99 0 -156 -78t-57 -190q0 -54 8 -103t27 -95t47.5 -79.5t72.5 -53.5t98 -20q59 0 94 30q9 8 9 21v107q0 40 -27.5 56.5t-77.5 24.5q-14 2 -12 15l2 31q2 12 14 12h299q12 0 14 -12l2 -26q2 -13 -12 -15q-38 -6 -51 -23t-13 -58zM386 774q-80 0 -116 47t-35 114q0 12 12 12
h31q11 0 13 -12q11 -74 95 -74q85 0 96 74q2 12 13 12h29q12 0 12 -12q1 -66 -35 -113.5t-115 -47.5z" />
    <glyph glyph-name="gbreve" unicode="&#x11f;" horiz-adv-x="532" 
d="M31 288q0 80 58 132.5t142 52.5q55 0 101.5 -22.5t74.5 -62.5q32 68 77 68q23 0 37 -13t14 -35t-16.5 -36.5t-39.5 -14.5q2 8 -2.5 14.5t-14.5 6.5q-18 0 -34 -35q8 -26 8 -51q0 -83 -58.5 -135t-143.5 -52q-35 0 -62 7q-32 -12 -32 -32q0 -25 46 -32q28 -4 91.5 -5
t88.5 -3q62 -5 98.5 -35t36.5 -84q0 -69 -75 -112t-182 -43q-112 0 -173.5 32.5t-61.5 82.5q0 55 79 82q-60 32 -60 83q0 31 26.5 53.5t64.5 32.5q-88 49 -88 156zM329 248q0 55 -35 100.5t-89 45.5q-38 0 -63 -24t-25 -68q0 -53 35.5 -98.5t88.5 -45.5q38 0 63 23t25 67z
M107 -109q0 -71 137 -71q64 0 108 17.5t44 47.5q0 17 -13 27.5t-36 11.5q-146 4 -191 14l-21 6q-28 -21 -28 -53zM246 537q-43 0 -74 14.5t-47 39t-23 52t-7 58.5q0 12 11 12h31q11 0 13 -12q8 -71 96 -71t96 71q2 12 13 12h29q11 0 11 -12q1 -68 -34 -116t-115 -48z" />
    <glyph glyph-name="Gdotaccent" unicode="&#x120;" horiz-adv-x="753" 
d="M658 65l-2 156q0 41 13 58t51 23q14 2 12 15l-2 26q-2 12 -14 12h-299q-12 0 -14 -12l-2 -31q-2 -13 12 -15q32 -5 51.5 -11t36.5 -24t17 -46v-107q0 -13 -9 -21q-35 -30 -94 -30q-54 0 -98 20t-72.5 53.5t-47.5 79.5t-27 95t-8 103q0 112 57 190t156 78q141 0 222 -163
q6 -12 18 -12h27q14 0 14 14l-2 194q0 11 -11 11h-21q-9 0 -19.5 -5.5t-21.5 -5.5q-3 0 -73 15.5t-127 15.5q-79 0 -146 -32.5t-110 -86.5t-66.5 -121t-23.5 -138q0 -158 101.5 -270.5t261.5 -112.5q135 0 249 67q11 7 11 18zM362 944q10 9 22 9q13 0 23 -10q30 -29 57 -57
q10 -10 10 -23q0 -12 -9 -21q-33 -35 -58 -57q-10 -10 -22 -10q-13 0 -23 10q-39 37 -56 57q-10 10 -10 23q0 11 9 22q26 29 57 57z" />
    <glyph glyph-name="gdotaccent" unicode="&#x121;" horiz-adv-x="532" 
d="M31 288q0 80 58 132.5t142 52.5q55 0 101.5 -22.5t74.5 -62.5q32 68 77 68q23 0 37 -13t14 -35t-16.5 -36.5t-39.5 -14.5q2 8 -2.5 14.5t-14.5 6.5q-18 0 -34 -35q8 -26 8 -51q0 -83 -58.5 -135t-143.5 -52q-35 0 -62 7q-32 -12 -32 -32q0 -25 46 -32q28 -4 91.5 -5
t88.5 -3q62 -5 98.5 -35t36.5 -84q0 -69 -75 -112t-182 -43q-112 0 -173.5 32.5t-61.5 82.5q0 55 79 82q-60 32 -60 83q0 31 26.5 53.5t64.5 32.5q-88 49 -88 156zM329 248q0 55 -35 100.5t-89 45.5q-38 0 -63 -24t-25 -68q0 -53 35.5 -98.5t88.5 -45.5q38 0 63 23t25 67z
M107 -109q0 -71 137 -71q64 0 108 17.5t44 47.5q0 17 -13 27.5t-36 11.5q-146 4 -191 14l-21 6q-28 -21 -28 -53zM222 725q24 20 45 -1q30 -28 57 -57q21 -21 1 -44q-32 -34 -58 -57q-23 -19 -45 0q-27 22 -56 57q-22 22 -1 45q26 29 57 57z" />
    <glyph glyph-name="Gcommaaccent" unicode="&#x122;" horiz-adv-x="753" 
d="M656 221l2 -156q0 -11 -11 -18q-114 -67 -249 -67q-160 0 -261.5 112.5t-101.5 270.5q0 71 23.5 138t66.5 121t110 86.5t146 32.5q57 0 127 -15.5t73 -15.5q11 0 21.5 5.5t19.5 5.5h21q11 0 11 -11l2 -194q0 -14 -14 -14h-27q-12 0 -18 12q-81 163 -222 163
q-99 0 -156 -78t-57 -190q0 -54 8 -103t27 -95t47.5 -79.5t72.5 -53.5t98 -20q59 0 94 30q9 8 9 21v107q0 40 -27.5 56.5t-77.5 24.5q-14 2 -12 15l2 31q2 12 14 12h299q12 0 14 -12l2 -26q2 -13 -12 -15q-38 -6 -51 -23t-13 -58zM394 -205q0 11 -5.5 21.5t-10 15
t-18.5 15.5t-18 14q-21 18 -2 42q20 25 42 44t42 -1q31 -29 49 -51q13 -15 8 -40q-18 -98 -88 -162q-10 -10 -20 0l-16 16q-9 9 0 19q37 39 37 67z" />
    <glyph glyph-name="gcommaaccent" unicode="&#x123;" horiz-adv-x="532" 
d="M31 288q0 80 58 132.5t142 52.5q55 0 101.5 -22.5t74.5 -62.5q32 68 77 68q23 0 37 -13t14 -35t-16.5 -36.5t-39.5 -14.5q2 8 -2.5 14.5t-14.5 6.5q-18 0 -34 -35q8 -26 8 -51q0 -83 -58.5 -135t-143.5 -52q-35 0 -62 7q-32 -12 -32 -32q0 -25 46 -32q28 -4 91.5 -5
t88.5 -3q62 -5 98.5 -35t36.5 -84q0 -69 -75 -112t-182 -43q-112 0 -173.5 32.5t-61.5 82.5q0 55 79 82q-60 32 -60 83q0 31 26.5 53.5t64.5 32.5q-88 49 -88 156zM329 248q0 55 -35 100.5t-89 45.5q-38 0 -63 -24t-25 -68q0 -53 35.5 -98.5t88.5 -45.5q38 0 63 23t25 67z
M107 -109q0 -71 137 -71q64 0 108 17.5t44 47.5q0 17 -13 27.5t-36 11.5q-146 4 -191 14l-21 6q-28 -21 -28 -53zM244 669q0 -11 5.5 -21.5t10 -15t18.5 -15.5t18 -14q21 -18 2 -42q-20 -25 -42 -44q-20 -17 -42 1q-26 23 -49 51q-13 16 -8 40q18 99 88 163q10 10 20 0
l16 -16q9 -10 0 -19q-37 -39 -37 -68z" />
    <glyph glyph-name="Hcircumflex" unicode="&#x124;" horiz-adv-x="956" 
d="M833 134l-1 453q0 39 20 57t61 24q14 2 12 15l-2 26q-2 12 -14 12h-282q-12 0 -14 -12l-2 -26q-2 -13 12 -15q41 -6 60.5 -24t19.5 -57v-178h-450v178q0 39 19.5 57t60.5 24q14 2 12 15l-2 26q-2 12 -14 12h-282q-12 0 -14 -12l-2 -26q-2 -13 12 -15q41 -6 60.5 -24
t19.5 -57l1 -453q0 -39 -20 -57t-61 -24q-14 -2 -12 -15l2 -26q2 -12 14 -12h291q12 0 14 12l2 26q2 13 -12 15q-41 6 -60.5 24t-19.5 57v199h432v-199q0 -39 -19.5 -57t-60.5 -24q-14 -2 -12 -15l2 -26q2 -12 14 -12h291q12 0 14 12l2 26q2 13 -12 15q-41 6 -60.5 24
t-19.5 57zM443 971h78q11 0 16 -10l80 -177q3 -5 0.5 -9t-7.5 -4h-33q-11 0 -19 9l-75 103l-76 -102q-8 -10 -19 -10h-34q-5 0 -8 4t0 9l81 177q5 10 16 10z" />
    <glyph glyph-name="hcircumflex" unicode="&#x125;" horiz-adv-x="600" 
d="M192 954h48q11 0 18 -10l106 -171q3 -4 0.5 -8.5t-7.5 -4.5h-30q-11 0 -22 9l-89 94l-90 -94q-11 -9 -22 -9h-30q-5 0 -7.5 4.5t0.5 8.5l107 171q7 10 18 10zM212 296v-167q0 -42 11 -58.5t49 -22.5q14 -2 12 -15l-2 -21q-2 -12 -14 -12h-236q-12 0 -14 12l-2 21
q-2 13 12 15q39 6 53 23t14 58l-1 422q0 27 -16 44t-42 22q-13 3 -13 14v20q0 12 10 16q77 32 136 85q8 8 19 8h17q12 -2 12 -13l-5 -386q43 46 82 70.5t89 24.5q57 0 90.5 -39t33.5 -97v-191q0 -41 13.5 -58t51.5 -23q14 -2 12 -15l-2 -21q-2 -12 -14 -12h-241
q-12 0 -14 12l-2 21q-2 13 12 15q38 6 49.5 22.5t11.5 58.5v187q0 26 -14.5 41.5t-38.5 15.5q-63 0 -119 -77z" />
    <glyph glyph-name="Hbar" unicode="&#x126;" horiz-adv-x="956" 
d="M832 492l1 -358q0 -39 19.5 -57t60.5 -24q14 -2 12 -15l-2 -26q-2 -12 -14 -12h-291q-12 0 -14 12l-2 26q-2 13 12 15q41 6 60.5 24t19.5 57v199h-432v-199q0 -39 19.5 -57t60.5 -24q14 -2 12 -15l-2 -26q-2 -12 -14 -12h-291q-12 0 -14 12l-2 26q-2 13 12 15q41 6 61 24
t20 57l-1 358h-77q-14 0 -14 13v40q0 13 14 13h77v29q0 39 -19.5 57t-60.5 24q-14 2 -12 15l2 26q2 12 14 12h282q12 0 14 -12l2 -26q2 -13 -12 -15q-41 -6 -60.5 -24t-19.5 -57v-29h450v29q0 39 -19.5 57t-60.5 24q-14 2 -12 15l2 26q2 12 14 12h282q12 0 14 -12l2 -26
q2 -13 -12 -15q-41 -6 -61 -24t-20 -57v-29h79q14 0 14 -13v-40q0 -13 -14 -13h-79zM253 409h450v83h-450v-83z" />
    <glyph glyph-name="hbar" unicode="&#x127;" horiz-adv-x="600" 
d="M212 296v-167q0 -42 11 -58.5t49 -22.5q14 -2 12 -15l-2 -21q-2 -12 -14 -12h-236q-12 0 -14 12l-2 21q-2 13 12 15q39 6 53 23t14 58l-1 378h-70q-16 0 -11 16l12 34q4 12 18 12h49q-11 40 -56 48q-13 3 -13 14v20q0 12 10 16q77 32 136 85q8 8 19 8h17q12 -2 12 -13
l-2 -178h206q16 0 11 -16l-12 -34q-4 -12 -18 -12h-188l-2 -146q43 46 82 70.5t89 24.5q57 0 90.5 -39t33.5 -97v-191q0 -41 13.5 -58t51.5 -23q14 -2 12 -15l-2 -21q-2 -12 -14 -12h-241q-12 0 -14 12l-2 21q-2 13 12 15q38 6 49.5 22.5t11.5 58.5v187q0 26 -14.5 41.5
t-38.5 15.5q-63 0 -119 -77z" />
    <glyph glyph-name="Itilde" unicode="&#x128;" horiz-adv-x="396" 
d="M264 587l1 -453q0 -38 20.5 -56.5t62.5 -24.5q14 -2 12 -15l-2 -26q-2 -12 -14 -12h-292q-12 0 -14 12l-2 26q-2 13 12 15q42 6 63 24.5t21 56.5l-1 453q0 38 -20.5 56.5t-62.5 24.5q-14 2 -12 15l2 26q2 12 14 12h292q12 0 14 -12l2 -26q2 -13 -12 -15q-42 -6 -63 -24.5
t-21 -56.5zM120 867q25 0 46.5 14.5t45 29.5t53.5 15q42 0 67 -28t33 -75q2 -13 -6 -18l-19 -11q-13 -7 -18 5q-16 37 -44 37q-21 0 -41.5 -14.5t-45.5 -29.5t-57 -15q-42 0 -67.5 28t-33.5 75q-2 13 6 18l19 11q13 7 18 -5q16 -37 44 -37z" />
    <glyph glyph-name="itilde" unicode="&#x129;" horiz-adv-x="325" 
d="M44 378q78 29 158 91q10 8 16 8q9 0 9 -8l-1 -340q0 -40 15.5 -57.5t55.5 -23.5q14 -2 12 -15l-2 -21q-2 -12 -14 -12h-256q-12 0 -14 12l-2 21q-2 13 12 15q40 6 58 24t18 57l-1 139q0 27 -17 43.5t-44 21.5q-13 3 -13 14v15q0 12 10 16zM80 646q26 0 49 16t47.5 32
t54.5 16q43 0 71.5 -36t31.5 -91q0 -13 -8 -18l-20 -12q-5 -3 -10.5 -1t-6.5 7q-10 51 -51 51q-24 0 -69 -31.5t-85 -31.5q-44 0 -71 35.5t-30 90.5q0 14 8 19l20 11q14 8 17 -6q14 -51 52 -51z" />
    <glyph glyph-name="Imacron" unicode="&#x12a;" horiz-adv-x="396" 
d="M265 134l-1 453q0 38 21 56.5t63 24.5q14 2 12 15l-2 26q-2 12 -14 12h-292q-12 0 -14 -12l-2 -26q-2 -13 12 -15q42 -6 62.5 -24.5t20.5 -56.5l1 -453q0 -38 -21 -56.5t-63 -24.5q-14 -2 -12 -15l2 -26q2 -12 14 -12h292q12 0 14 12l2 26q2 13 -12 15q-42 6 -62.5 24.5
t-20.5 56.5zM322 800h-260q-8 0 -12 5.5t-1 13.5l21 50q7 15 22 15h259q8 0 12 -5.5t1 -13.5l-20 -50q-7 -15 -22 -15z" />
    <glyph glyph-name="imacron" unicode="&#x12b;" horiz-adv-x="325" 
d="M44 378q-10 -4 -10 -16v-15q0 -11 13 -14q27 -5 44 -21.5t17 -43.5l1 -139q0 -39 -18 -57t-58 -24q-14 -2 -12 -15l2 -21q2 -12 14 -12h256q12 0 14 12l2 21q2 13 -12 15q-40 6 -55.5 23.5t-15.5 57.5l1 340q0 8 -9 8q-6 0 -16 -8q-80 -62 -158 -91zM278 577h-254
q-8 0 -12 5.5t-1 13.5l21 50q7 15 22 15h253q8 0 12 -5.5t1 -13.5l-20 -50q-7 -15 -22 -15z" />
    <glyph glyph-name="Ibreve" unicode="&#x12c;" horiz-adv-x="396" 
d="M264 587l1 -453q0 -38 20.5 -56.5t62.5 -24.5q14 -2 12 -15l-2 -26q-2 -12 -14 -12h-292q-12 0 -14 12l-2 26q-2 13 12 15q42 6 63 24.5t21 56.5l-1 453q0 38 -20.5 56.5t-62.5 24.5q-14 2 -12 15l2 26q2 12 14 12h292q12 0 14 -12l2 -26q2 -13 -12 -15q-42 -6 -63 -24.5
t-21 -56.5zM199 774q-80 0 -116 47t-35 114q0 12 12 12h31q11 0 13 -12q11 -74 95 -74q85 0 96 74q2 12 13 12h29q12 0 12 -12q1 -66 -35 -113.5t-115 -47.5z" />
    <glyph glyph-name="ibreve" unicode="&#x12d;" horiz-adv-x="325" 
d="M44 378q78 29 158 91q10 8 16 8q9 0 9 -8l-1 -340q0 -40 15.5 -57.5t55.5 -23.5q14 -2 12 -15l-2 -21q-2 -12 -14 -12h-256q-12 0 -14 12l-2 21q-2 13 12 15q40 6 58 24t18 57l-1 139q0 27 -17 43.5t-44 21.5q-13 3 -13 14v15q0 12 10 16zM166 537q-43 0 -74 14.5t-47 39
t-23 52t-7 58.5q0 12 11 12h31q11 0 13 -12q8 -71 96 -71t96 71q2 12 13 12h29q11 0 11 -12q1 -68 -34 -116t-115 -48z" />
    <glyph glyph-name="Iogonek" unicode="&#x12e;" horiz-adv-x="396" 
d="M264 587l1 -453q0 -38 20.5 -56.5t62.5 -24.5q14 -2 12 -15l-2 -26q-2 -12 -14 -12h-105q-102 -85 -101 -139q1 -33 39 -33q40 0 97 36q12 8 18 -3l9 -16q5 -10 -3 -18q-74 -74 -151 -74q-44 0 -71 22.5t-27 63.5q0 43 38 86.5t85 74.5h-120q-12 0 -14 12l-2 26
q-2 13 12 15q42 6 63 24.5t21 56.5l-1 453q0 38 -20.5 56.5t-62.5 24.5q-14 2 -12 15l2 26q2 12 14 12h292q12 0 14 -12l2 -26q2 -13 -12 -15q-42 -6 -63 -24.5t-21 -56.5z" />
    <glyph glyph-name="iogonek" unicode="&#x12f;" horiz-adv-x="325" 
d="M44 378q78 29 158 91q10 8 16 8q9 0 9 -8l-1 -340q0 -40 15.5 -57.5t55.5 -23.5q14 -2 12 -15l-2 -21q-2 -12 -14 -12h-86q-102 -85 -101 -139q1 -33 39 -33q40 0 97 36q12 8 18 -3l9 -16q5 -10 -3 -18q-74 -74 -151 -74q-44 0 -71 22.5t-27 63.5q0 43 38 86.5t85 74.5
h-103q-12 0 -14 12l-2 21q-2 13 12 15q40 6 58 24t18 57l-1 139q0 27 -17 43.5t-44 21.5q-13 3 -13 14v15q0 12 10 16zM137 725q23 21 45 -1q30 -28 57 -57q23 -23 1 -44q-25 -29 -58 -57q-22 -22 -45 0q-39 37 -56 57q-22 22 -1 45q26 29 57 57z" />
    <glyph glyph-name="Idotaccent" unicode="&#x130;" horiz-adv-x="396" 
d="M265 134l-1 453q0 38 21 56.5t63 24.5q14 2 12 15l-2 26q-2 12 -14 12h-292q-12 0 -14 -12l-2 -26q-2 -13 12 -15q42 -6 62.5 -24.5t20.5 -56.5l1 -453q0 -38 -21 -56.5t-63 -24.5q-14 -2 -12 -15l2 -26q2 -12 14 -12h292q12 0 14 12l2 26q2 13 -12 15q-42 6 -62.5 24.5
t-20.5 56.5zM175 944q11 9 22 9q13 0 23 -10q30 -29 57 -57q10 -10 10 -23q0 -12 -9 -21q-33 -35 -58 -57q-10 -10 -22 -10q-13 0 -23 10q-39 37 -56 57q-10 10 -10 23q0 11 9 22q26 29 57 57z" />
    <glyph glyph-name="dotlessi" unicode="&#x131;" horiz-adv-x="325" 
d="M44 378q78 29 158 91q10 8 16 8q9 0 9 -8l-1 -340q0 -40 15.5 -57.5t55.5 -23.5q14 -2 12 -15l-2 -21q-2 -12 -14 -12h-256q-12 0 -14 12l-2 21q-2 13 12 15q40 6 58 24t18 57l-1 139q0 27 -17 43.5t-44 21.5q-13 3 -13 14v15q0 12 10 16z" />
    <glyph glyph-name="Jcircumflex" unicode="&#x134;" horiz-adv-x="536" 
d="M82 143l-70 -78q-6 -6 -6.5 -17t7.5 -19q46 -44 134 -44q106 0 186 69t80 178l-1 355q0 39 19.5 57t60.5 24q14 2 12 15l-2 26q-2 12 -14 12h-302q-12 0 -14 -12l-2 -26q-2 -13 12 -15q40 -6 65 -31.5t25 -64.5l1 -366q0 -147 -79 -147q-34 0 -45 38l-9 38q-3 13 -15 14
l-23 2q-9 1 -20 -8zM297 971h78q11 0 16 -10l80 -177q3 -5 0.5 -9t-7.5 -4h-33q-11 0 -19 9l-75 103l-76 -102q-8 -10 -19 -10h-34q-5 0 -8 4t0 9l81 177q5 10 16 10z" />
    <glyph glyph-name="jcircumflex" unicode="&#x135;" horiz-adv-x="310" 
d="M104 268l1 -334q0 -57 -18.5 -86t-48.5 -29t-44 38l-14 36q-3 13 -15 14l-13 2q-12 1 -20 -8l-54 -62q-7 -8 -7 -20t7 -21q38 -42 110 -42q102 0 170 84.5t68 219.5l1 409q0 8 -9 8q-6 0 -16 -8q-79 -62 -159 -91q-10 -4 -10 -16v-15q0 -11 13 -14q26 -5 42 -21.5
t16 -43.5zM120 750h67q10 0 15 -10l101 -204q2 -5 -0.5 -9t-7.5 -4h-33q-10 0 -18 10l-91 115l-89 -115q-8 -10 -18 -10h-35q-5 0 -7.5 4t-0.5 9l102 204q5 10 15 10z" />
    <glyph glyph-name="Kcommaaccent" unicode="&#x136;" horiz-adv-x="789" 
d="M258 342l231 238q24 25 17.5 51.5t-40.5 35.5q-13 3 -11 16l2 26q2 12 14 12h252q12 0 14 -12l2 -25q2 -12 -9 -16q-75 -24 -152 -98l-171 -167l249 -260q58 -60 118 -91q10 -6 9 -17l-3 -22q-2 -13 -15 -13h-290q-12 0 -14 12l-2 26q-1 11 11 15q18 5 30 16.5t14 29
t-16 37.5l-176 184l-69 -68v-118q0 -40 15.5 -57.5t54.5 -23.5q14 -2 12 -15l-2 -26q-2 -12 -14 -12h-272q-12 0 -14 12l-2 26q-2 13 12 15q41 6 61 24t20 57l-1 453q0 39 -19.5 57t-60.5 24q-14 2 -12 15l2 26q2 12 14 12h278q12 0 14 -12l2 -26q2 -13 -12 -15
q-40 -6 -55.5 -23.5t-15.5 -57.5v-245zM387 -205q0 11 -5.5 21.5t-10 15t-18.5 15.5t-18 14q-21 18 -2 42q20 25 42 44t42 -1q31 -29 49 -51q13 -15 8 -40q-18 -98 -88 -162q-10 -10 -20 0l-16 16q-10 9 0 19q37 39 37 67z" />
    <glyph glyph-name="kcommaaccent" unicode="&#x137;" horiz-adv-x="600" 
d="M212 244l93 97q20 21 16.5 40t-24.5 27q-11 4 -10 16l2 20q2 12 14 12h213q12 0 14 -12l2 -20q2 -12 -10 -16q-52 -18 -91 -40.5t-85 -65.5l-23 -22l121 -120q83 -83 143 -112q11 -5 9 -16l-4 -20q-2 -12 -15 -12h-242q-12 0 -14 12l-2 19q-1 10 10 16q21 10 26.5 27
t-12.5 38l-95 97l-35 -33v-47q0 -42 10.5 -58.5t42.5 -22.5q14 -3 12 -15l-2 -21q-2 -12 -14 -12h-230q-12 0 -14 12l-2 21q-2 13 12 15q39 6 53 23t14 58l-1 422q0 27 -16 44t-42 22q-13 3 -13 14v20q0 12 10 16q77 32 136 85q8 8 19 8h17q12 -2 12 -13zM286 -205
q0 11 -5.5 21.5t-10 15t-18.5 15.5t-18 14q-21 18 -2 42q20 25 42 44t42 -1q31 -29 49 -51q13 -15 8 -40q-18 -98 -88 -162q-10 -10 -20 0l-16 16q-9 9 0 19q37 39 37 67z" />
    <glyph glyph-name="Lacute" unicode="&#x139;" horiz-adv-x="665" 
d="M560 11q-6 -11 -17 -11q-35 2 -148 2l-348 -2q-12 0 -14 12l-2 26q-2 13 12 15q41 6 61 24t20 57l-1 453q0 39 -19.5 57t-60.5 24q-14 2 -12 15l2 26q2 12 14 12h292q12 0 14 -12l2 -26q2 -13 -12 -15q-42 -6 -63 -24.5t-21 -56.5l1 -467q0 -55 53 -55q46 0 86.5 11.5
t76.5 37.5t56 43.5t54 51.5l7 7l6 6q10 10 19 10h15q12 0 12 -12v-42q0 -13 -7 -25q-74 -134 -78 -142zM171 781l1 180q0 10 10 10h125q5 0 7 -4t0 -8l-92 -180q-4 -9 -14 -9h-26q-11 0 -11 11z" />
    <glyph glyph-name="lacute" unicode="&#x13a;" horiz-adv-x="320" 
d="M38 667q77 32 136 85q8 8 19 8h17q12 -2 12 -13l-1 -618q0 -40 15.5 -57.5t55.5 -23.5q14 -2 12 -15l-2 -21q-2 -12 -14 -12h-256q-12 0 -14 12l-2 21q-2 13 12 15q40 6 56.5 23.5t16.5 57.5l-1 422q0 27 -16.5 44t-42.5 22q-13 3 -13 14v20q0 12 10 16zM108 791l1 180
q0 10 10 10h125q5 0 7 -4t0 -8l-92 -180q-4 -9 -14 -9h-26q-11 0 -11 11z" />
    <glyph glyph-name="Lcommaaccent" unicode="&#x13b;" horiz-adv-x="665" 
d="M560 11q-6 -11 -17 -11q-35 2 -148 2l-348 -2q-12 0 -14 12l-2 26q-2 13 12 15q41 6 61 24t20 57l-1 453q0 39 -19.5 57t-60.5 24q-14 2 -12 15l2 26q2 12 14 12h292q12 0 14 -12l2 -26q2 -13 -12 -15q-42 -6 -63 -24.5t-21 -56.5l1 -467q0 -55 53 -55q46 0 86.5 11.5
t76.5 37.5t56 43.5t54 51.5l7 7l6 6q10 10 19 10h15q12 0 12 -12v-42q0 -13 -7 -25q-74 -134 -78 -142zM314 -205q0 11 -5.5 21.5t-10 15t-18.5 15.5t-18 14q-21 18 -2 42q20 25 42 44t42 -1q31 -29 49 -51q13 -15 8 -40q-18 -98 -88 -162q-10 -10 -20 0l-16 16q-9 9 0 19
q37 39 37 67z" />
    <glyph glyph-name="lcommaaccent" unicode="&#x13c;" horiz-adv-x="320" 
d="M38 667q77 32 136 85q8 8 19 8h17q12 -2 12 -13l-1 -618q0 -40 15.5 -57.5t55.5 -23.5q14 -2 12 -15l-2 -21q-2 -12 -14 -12h-256q-12 0 -14 12l-2 21q-2 13 12 15q40 6 56.5 23.5t16.5 57.5l-1 422q0 27 -16.5 44t-42.5 22q-13 3 -13 14v20q0 12 10 16zM145 -205
q0 -28 -37 -67q-10 -10 0 -19l16 -16q10 -10 20 0q70 64 88 162q5 25 -8 40q-18 22 -49 51q-20 20 -42 1t-42 -44q-19 -24 2 -42q4 -3 18 -14t18.5 -15.5t10 -15t5.5 -21.5z" />
    <glyph glyph-name="Lcaron" unicode="&#x13d;" horiz-adv-x="665" 
d="M560 11q-6 -11 -17 -11q-35 2 -148 2l-348 -2q-12 0 -14 12l-2 26q-2 13 12 15q41 6 61 24t20 57l-1 453q0 39 -19.5 57t-60.5 24q-14 2 -12 15l2 26q2 12 14 12h292q12 0 14 -12l2 -26q2 -13 -12 -15q-42 -6 -63 -24.5t-21 -56.5l1 -467q0 -55 53 -55q46 0 86.5 11.5
t76.5 37.5t56 43.5t54 51.5l7 7l6 6q10 10 19 10h15q12 0 12 -12v-42q0 -13 -7 -25q-74 -134 -78 -142zM458 600q0 11 -5.5 21.5t-10 15t-18.5 15.5t-18 14q-21 18 -2 42q20 25 42 44t42 -1q31 -29 49 -51q14 -17 9 -41q-18 -97 -89 -162q-10 -10 -20 0l-16 16q-9 9 0 19
q37 39 37 68z" />
    <glyph glyph-name="lcaron" unicode="&#x13e;" horiz-adv-x="412" 
d="M38 667q77 32 136 85q8 8 19 8h17q12 -2 12 -13l-1 -618q0 -40 15.5 -57.5t55.5 -23.5q14 -2 12 -15l-2 -21q-2 -12 -14 -12h-256q-12 0 -14 12l-2 21q-2 13 12 15q40 6 56.5 23.5t16.5 57.5l-1 422q0 27 -16.5 44t-42.5 22q-13 3 -13 14v20q0 12 10 16zM322 600
q0 11 -5.5 21.5t-10 15t-18.5 15.5t-18 14q-21 18 -2 42q20 25 42 44t42 -1q31 -29 49 -51q14 -17 9 -41q-18 -97 -89 -162q-10 -10 -20 0l-16 16q-9 9 0 19q37 39 37 68z" />
    <glyph glyph-name="Ldot" unicode="&#x13f;" horiz-adv-x="665" 
d="M560 11q-6 -11 -17 -11q-35 2 -148 2l-348 -2q-12 0 -14 12l-2 26q-2 13 12 15q41 6 61 24t20 57l-1 453q0 39 -19.5 57t-60.5 24q-14 2 -12 15l2 26q2 12 14 12h292q12 0 14 -12l2 -26q2 -13 -12 -15q-42 -6 -63 -24.5t-21 -56.5l1 -467q0 -55 53 -55q46 0 86.5 11.5
t76.5 37.5t56 43.5t54 51.5l7 7l6 6q10 10 19 10h15q12 0 12 -12v-42q0 -13 -7 -25q-74 -134 -78 -142zM422 492q25 23 49 -1q32 -30 61 -61q24 -24 1 -49q-25 -28 -61 -60q-25 -23 -50 0q-41 38 -60 60q-24 26 -1 50q28 31 61 61z" />
    <glyph glyph-name="ldot" unicode="&#x140;" horiz-adv-x="436" 
d="M38 667q77 32 136 85q8 8 19 8h17q12 -2 12 -13l-1 -618q0 -40 15.5 -57.5t55.5 -23.5q14 -2 12 -15l-2 -21q-2 -12 -14 -12h-256q-12 0 -14 12l-2 21q-2 13 12 15q40 6 56.5 23.5t16.5 57.5l-1 422q0 27 -16.5 44t-42.5 22q-13 3 -13 14v20q0 12 10 16zM341 457
q25 23 49 -1q32 -30 61 -61q24 -24 1 -49q-25 -28 -61 -60q-25 -23 -50 0q-41 38 -60 60q-24 26 -1 50q28 31 61 61z" />
    <glyph glyph-name="Lslash" unicode="&#x141;" horiz-adv-x="670" 
d="M123 283l-67 -37q-5 -3 -10.5 -1t-5.5 8v42q0 14 10 20l73 41v231q0 39 -19.5 57t-60.5 24q-14 2 -12 15l2 26q2 12 14 12h292q12 0 14 -12l2 -26q2 -13 -12 -15q-42 -6 -63 -24.5t-21 -56.5v-155l97 54q5 3 10.5 1t5.5 -8v-44q0 -14 -11 -20l-102 -56l1 -239
q0 -55 53 -55q49 0 92 13t83 42.5t58.5 46t57.5 55.5q10 10 19 10h15q12 0 12 -12v-42q0 -13 -7 -25q-74 -134 -78 -142q-5 -11 -17 -11q-40 2 -153 2l-348 -2q-12 0 -14 12l-2 26q-2 13 12 15q41 6 61 24t20 57z" />
    <glyph glyph-name="lslash" unicode="&#x142;" horiz-adv-x="330" 
d="M304 417l-79 -48v-240q0 -40 15.5 -57.5t55.5 -23.5q14 -2 12 -15l-2 -21q-2 -12 -14 -12h-256q-12 0 -14 12l-2 21q-2 13 12 15q40 6 56.5 23.5t16.5 57.5l-1 166l-73 -45q-5 -4 -10.5 -2t-5.5 8v36q0 15 11 21l78 49v189q0 27 -16.5 44t-42.5 22q-13 3 -13 14v20
q0 12 10 16q77 32 136 85q8 8 19 8h17q12 -2 12 -13l-1 -310l74 46q5 4 10.5 2t5.5 -8v-39q0 -15 -11 -21z" />
    <glyph glyph-name="Nacute" unicode="&#x143;" horiz-adv-x="878" 
d="M761 0h-36q-9 0 -18 9l-509 561l1 -436q0 -39 19.5 -57t60.5 -24q14 -2 12 -15l-2 -26q-2 -12 -14 -12h-228q-12 0 -14 12l-2 26q-2 13 12 15q41 6 61 24t20 57l-1 450q0 39 -19.5 58.5t-60.5 25.5q-14 2 -12 15l2 26q2 12 14 12h191q10 0 18 -8l444 -486l-1 360
q0 39 -19.5 57t-60.5 24q-14 2 -12 15l2 26q2 12 14 12h228q12 0 14 -12l2 -26q2 -13 -12 -15q-41 -6 -61 -24t-20 -57l1 -575q0 -12 -14 -12zM428 781l1 180q0 10 10 10h125q5 0 7 -4t0 -8l-92 -180q-4 -9 -14 -9h-26q-11 0 -11 11z" />
    <glyph glyph-name="nacute" unicode="&#x144;" horiz-adv-x="595" 
d="M212 296v-167q0 -42 11 -58.5t49 -22.5q14 -2 12 -15l-2 -21q-2 -12 -14 -12h-236q-12 0 -14 12l-2 21q-2 13 12 15q39 6 53 23t14 58l-1 151q0 27 -16 44t-42 22q-13 3 -13 14v21q0 12 10 15q84 25 164 70q11 7 22 7t9 -11l-22 -102q90 96 177 96q57 0 90.5 -39
t33.5 -97v-191q0 -41 13.5 -58t51.5 -23q14 -2 12 -15l-2 -21q-2 -12 -14 -12h-241q-12 0 -14 12l-2 21q-2 13 12 15q38 6 49.5 22.5t11.5 58.5v187q0 26 -14.5 41.5t-38.5 15.5q-63 0 -119 -77zM268 533l1 207q0 10 10 10h120q5 0 6.5 -4t-0.5 -8l-87 -206q-4 -9 -14 -9
h-26q-10 0 -10 10z" />
    <glyph glyph-name="Ncommaaccent" unicode="&#x145;" horiz-adv-x="878" 
d="M761 0h-36q-9 0 -18 9l-509 561l1 -436q0 -39 19.5 -57t60.5 -24q14 -2 12 -15l-2 -26q-2 -12 -14 -12h-228q-12 0 -14 12l-2 26q-2 13 12 15q41 6 61 24t20 57l-1 450q0 39 -19.5 58.5t-60.5 25.5q-14 2 -12 15l2 26q2 12 14 12h191q10 0 18 -8l444 -486l-1 360
q0 39 -19.5 57t-60.5 24q-14 2 -12 15l2 26q2 12 14 12h228q12 0 14 -12l2 -26q2 -13 -12 -15q-41 -6 -61 -24t-20 -57l1 -575q0 -12 -14 -12zM463 -205q0 -28 -37 -67q-10 -10 0 -19l16 -16q10 -10 20 0q70 64 88 162q5 25 -8 40q-18 22 -49 51q-20 20 -42 1t-42 -44
q-19 -24 2 -42q4 -3 18 -14t18.5 -15.5t10 -15t5.5 -21.5z" />
    <glyph glyph-name="ncommaaccent" unicode="&#x146;" horiz-adv-x="595" 
d="M212 296v-167q0 -42 11 -58.5t49 -22.5q14 -2 12 -15l-2 -21q-2 -12 -14 -12h-236q-12 0 -14 12l-2 21q-2 13 12 15q39 6 53 23t14 58l-1 151q0 27 -16 44t-42 22q-13 3 -13 14v21q0 12 10 15q84 25 164 70q11 7 22 7t9 -11l-22 -102q90 96 177 96q57 0 90.5 -39
t33.5 -97v-191q0 -41 13.5 -58t51.5 -23q14 -2 12 -15l-2 -21q-2 -12 -14 -12h-241q-12 0 -14 12l-2 21q-2 13 12 15q38 6 49.5 22.5t11.5 58.5v187q0 26 -14.5 41.5t-38.5 15.5q-63 0 -119 -77zM286 -205q0 -28 -37 -67q-9 -10 0 -19l16 -16q10 -10 20 0q70 64 88 162
q5 25 -8 40q-18 22 -49 51q-20 20 -42 1t-42 -44q-19 -24 2 -42q4 -3 18 -14t18.5 -15.5t10 -15t5.5 -21.5z" />
    <glyph glyph-name="Ncaron" unicode="&#x147;" horiz-adv-x="878" 
d="M761 0h-36q-9 0 -18 9l-509 561l1 -436q0 -39 19.5 -57t60.5 -24q14 -2 12 -15l-2 -26q-2 -12 -14 -12h-228q-12 0 -14 12l-2 26q-2 13 12 15q41 6 61 24t20 57l-1 450q0 39 -19.5 58.5t-60.5 25.5q-14 2 -12 15l2 26q2 12 14 12h191q10 0 18 -8l444 -486l-1 360
q0 39 -19.5 57t-60.5 24q-14 2 -12 15l2 26q2 12 14 12h228q12 0 14 -12l2 -26q2 -13 -12 -15q-41 -6 -61 -24t-20 -57l1 -575q0 -12 -14 -12zM488 771h-78q-11 0 -16 10l-81 177q-3 5 0 9t8 4h34q11 0 19 -10l76 -102l75 103q7 9 19 9h33q5 0 7.5 -4t-0.5 -9l-80 -177
q-5 -10 -16 -10z" />
    <glyph glyph-name="ncaron" unicode="&#x148;" horiz-adv-x="595" 
d="M212 296v-167q0 -42 11 -58.5t49 -22.5q14 -2 12 -15l-2 -21q-2 -12 -14 -12h-236q-12 0 -14 12l-2 21q-2 13 12 15q39 6 53 23t14 58l-1 151q0 27 -16 44t-42 22q-13 3 -13 14v21q0 12 10 15q84 25 164 70q11 7 22 7t9 -11l-22 -102q90 96 177 96q57 0 90.5 -39
t33.5 -97v-191q0 -41 13.5 -58t51.5 -23q14 -2 12 -15l-2 -21q-2 -12 -14 -12h-241q-12 0 -14 12l-2 21q-2 13 12 15q38 6 49.5 22.5t11.5 58.5v187q0 26 -14.5 41.5t-38.5 15.5q-63 0 -119 -77zM333 523h-66q-10 0 -15 10l-102 204q-2 5 0.5 9t7.5 4h35q10 0 18 -10
l89 -114l91 114q8 10 18 10h33q5 0 7.5 -4t0.5 -9l-102 -204q-5 -10 -15 -10z" />
    <glyph glyph-name="Eng" unicode="&#x14a;" horiz-adv-x="878" 
d="M402 -160l70 78q8 9 20 8l23 -2q12 -1 15 -14l9 -38q9 -38 45 -38q41 0 71.5 37.5t30.5 109.5v51l-488 535l1 -433q0 -39 19.5 -57t60.5 -24q14 -2 12 -15l-2 -26q-2 -12 -14 -12h-228q-12 0 -14 12l-2 26q-2 13 12 15q41 6 61 24t20 57l-1 450q0 39 -19.5 58.5
t-60.5 25.5q-14 2 -12 15l2 26q2 12 14 12h191q10 0 18 -8l444 -495l-1 369q0 39 -19.5 57t-60.5 24q-14 2 -12 15l2 26q2 12 14 12h228q12 0 14 -12l2 -26q2 -13 -12 -15q-41 -6 -61 -24t-20 -57l1 -577q1 -111 -67.5 -180.5t-170.5 -69.5q-88 0 -134 44q-8 8 -7.5 19
t6.5 17z" />
    <glyph glyph-name="eng" unicode="&#x14b;" horiz-adv-x="570" 
d="M212 296v-167q0 -42 11 -58.5t49 -22.5q14 -2 12 -15l-2 -21q-2 -12 -14 -12h-236q-12 0 -14 12l-2 21q-2 13 12 15q39 6 53 23t14 58l-1 151q0 27 -16 44t-42 22q-13 3 -13 14v21q0 12 10 15q84 25 164 70q11 7 22 7t9 -11l-22 -102q90 96 177 96q57 0 90.5 -39
t33.5 -97l-1 -260q0 -135 -68 -219.5t-170 -84.5q-72 0 -110 42q-7 9 -7 21t7 20l54 62q8 9 20 8l13 -2q12 -1 15 -14l14 -36q14 -38 44 -38t49 29t19 86l-1 382q0 26 -15 41.5t-39 15.5q-63 0 -119 -77z" />
    <glyph glyph-name="Omacron" unicode="&#x14c;" horiz-adv-x="844" 
d="M35 355q0 -159 113 -267t272 -108q161 0 275 109.5t114 275.5q0 159 -115.5 267.5t-275.5 108.5q-159 0 -271 -110.5t-112 -275.5zM392 664q117 0 199 -96t82 -250q0 -115 -59.5 -183t-166.5 -68q-117 0 -199 96t-82 250q0 115 59.5 183t166.5 68zM532 800h-260
q-8 0 -12 5.5t-1 13.5l21 50q7 15 22 15h259q8 0 12 -5.5t1 -13.5l-20 -50q-7 -15 -22 -15z" />
    <glyph glyph-name="omacron" unicode="&#x14d;" horiz-adv-x="548" 
d="M517 228q0 104 -71.5 173.5t-173.5 69.5q-107 0 -174 -68t-67 -174q0 -104 68.5 -175.5t172.5 -71.5q107 0 176 68.5t69 177.5zM159 182q-31 71 -22 130.5t59 81.5t103.5 -10.5t85.5 -105.5q32 -70 22.5 -130t-60.5 -81q-54 -23 -105.5 9.5t-82.5 105.5zM383 577h-254
q-8 0 -12 5.5t-1 13.5l21 50q7 15 22 15h253q8 0 12 -5.5t1 -13.5l-20 -50q-7 -15 -22 -15z" />
    <glyph glyph-name="Obreve" unicode="&#x14e;" horiz-adv-x="844" 
d="M35 355q0 165 112 275.5t271 110.5q160 0 275.5 -108.5t115.5 -267.5q0 -166 -114 -275.5t-275 -109.5q-159 0 -272 108t-113 267zM392 664q-107 0 -166.5 -68t-59.5 -183q0 -154 82 -250t199 -96q107 0 166.5 68t59.5 183q0 154 -82 250t-199 96zM423 774q-80 0 -116 47
t-35 114q0 12 12 12h31q11 0 13 -12q11 -74 95 -74q85 0 96 74q2 12 13 12h29q12 0 12 -12q1 -66 -35 -113.5t-115 -47.5z" />
    <glyph glyph-name="obreve" unicode="&#x14f;" horiz-adv-x="548" 
d="M517 228q0 -109 -69 -177.5t-176 -68.5q-104 0 -172.5 71.5t-68.5 175.5q0 106 67 174t174 68q102 0 173.5 -69.5t71.5 -173.5zM159 182q31 -73 82.5 -105.5t105.5 -9.5q51 21 60.5 81t-22.5 130q-32 73 -85.5 105.5t-103.5 10.5t-59 -81.5t22 -130.5zM267 537
q-43 0 -74 14.5t-47 39t-23 52t-7 58.5q0 12 11 12h31q11 0 13 -12q8 -71 96 -71t96 71q2 12 13 12h29q11 0 11 -12q1 -68 -34 -116t-115 -48z" />
    <glyph glyph-name="Ohungarumlaut" unicode="&#x150;" horiz-adv-x="844" 
d="M35 355q0 165 112 275.5t271 110.5q160 0 275.5 -108.5t115.5 -267.5q0 -166 -114 -275.5t-275 -109.5q-159 0 -272 108t-113 267zM392 664q-107 0 -166.5 -68t-59.5 -183q0 -154 82 -250t199 -96q107 0 166.5 68t59.5 183q0 154 -82 250t-199 96zM293 780l1 181
q0 10 10 10h105q5 0 7.5 -3.5t0.5 -8.5l-76 -180q-4 -9 -14 -9h-24q-10 0 -10 10zM466 780l1 181q0 10 10 10h102q5 0 7.5 -3.5t0.5 -8.5l-73 -180q-4 -9 -14 -9h-24q-10 0 -10 10z" />
    <glyph glyph-name="ohungarumlaut" unicode="&#x151;" horiz-adv-x="548" 
d="M517 228q0 -109 -69 -177.5t-176 -68.5q-104 0 -172.5 71.5t-68.5 175.5q0 106 67 174t174 68q102 0 173.5 -69.5t71.5 -173.5zM159 182q31 -73 82.5 -105.5t105.5 -9.5q51 21 60.5 81t-22.5 130q-32 73 -85.5 105.5t-103.5 10.5t-59 -81.5t22 -130.5zM162 533l1 207
q0 10 10 10h105q5 0 7.5 -3.5t0.5 -8.5l-76 -206q-4 -9 -14 -9h-24q-10 0 -10 10zM326 533l1 207q0 10 10 10h102q5 0 7.5 -3.5t0.5 -8.5l-73 -206q-4 -9 -14 -9h-24q-10 0 -10 10z" />
    <glyph glyph-name="OE" unicode="&#x152;" horiz-adv-x="1076" 
d="M533 721h259l186 3q12 0 14 -12l2 -19q2 -12 -5 -21q-12 -18 -36 -53.5t-30 -44.5q-7 -11 -18 -11h-14q-10 0 -17 11q-66 96 -158 96h-10q-56 0 -56 -49v-221h77q76 0 88 70q3 14 15 12l26 -2q12 -2 12 -14v-197q0 -12 -12 -14l-26 -2q-12 -1 -15 12q-12 69 -88 69h-67
v-219q0 -55 58 -55h6q54 0 95.5 12t74.5 39t55 54t52 73q7 10 19 10h24q12 0 12 -12v-21q0 -7 -4 -21q-18 -53 -57 -185q-3 -11 -17 -11q-48 2 -161 2h-286q-51 -20 -122 -20q-159 0 -269 107.5t-110 267.5q0 167 104 276.5t261 109.5q68 0 138 -20zM374 666
q-104 0 -160.5 -68.5t-56.5 -184.5q0 -155 76.5 -250.5t191.5 -95.5q103 0 103 73v468q-26 26 -69 42t-85 16z" />
    <glyph glyph-name="oe" unicode="&#x153;" horiz-adv-x="836" 
d="M624 -15q-107 0 -168 86q-67 -88 -184 -88q-106 0 -174 69.5t-68 176.5q0 106 67.5 174t174.5 68q113 0 181 -86q60 86 168 86q68 0 107.5 -37.5t53.5 -92.5q2 -8 2 -16v-14q0 -12 -10 -15l-259 -98q34 -108 155 -107q68 2 115 58q9 11 21 4l14 -10q10 -8 4 -19
q-23 -56 -74.5 -97t-125.5 -42zM157 182q31 -73 82.5 -106t105.5 -10q51 21 61.5 81t-21.5 131q-31 73 -85 105.5t-103 10.5q-51 -23 -61 -82t21 -130zM509 248l154 70q7 39 -12 65.5t-57 26.5q-56 0 -79.5 -48.5t-5.5 -113.5z" />
    <glyph glyph-name="Racute" unicode="&#x154;" horiz-adv-x="817" 
d="M273 311v-177q0 -38 23.5 -56t66.5 -25q14 -2 12 -15l-2 -26q-2 -12 -14 -12h-312q-12 0 -14 12l-2 26q-2 13 12 15q91 14 91 81l-1 453q0 39 -19.5 57t-60.5 24q-14 2 -12 15l2 26q2 12 15 12h304q120 0 198.5 -55.5t78.5 -154.5q0 -55 -35 -96t-97 -59q2 -3 35.5 -51
t52.5 -71t55.5 -64.5t76.5 -73.5t84 -56q11 -6 6 -19l-12 -25q-6 -13 -21 -7q-100 37 -234 171q-10 9 -15 14q-77 77 -133.5 107.5t-128.5 29.5zM263 613v-227h64q75 0 125 32.5t50 97.5q0 70 -41.5 110.5t-111.5 40.5h-25q-26 0 -43.5 -15t-17.5 -39zM297 781l1 180
q0 10 10 10h125q5 0 7 -4t0 -8l-92 -180q-4 -9 -14 -9h-26q-11 0 -11 11z" />
    <glyph glyph-name="racute" unicode="&#x155;" horiz-adv-x="425" 
d="M176 288q37 66 87 115.5t89 49.5q31 0 49.5 -17.5t18.5 -47.5q0 -36 -28 -57l-45 -34q-5 -3 -9.5 -1.5t-6.5 6.5q-12 35 -44 35q-44 0 -75 -73v-135q0 -41 18.5 -58t60.5 -23q14 -2 12 -15l-2 -21q-2 -12 -14 -12h-255q-12 0 -14 12l-2 21q-2 13 12 15q39 6 53 23t14 58
l-1 151q0 27 -16 44t-42 22q-13 3 -13 14v21q0 11 10 15q98 35 182 100q11 8 19 8q5 0 8 -4t1 -9q-45 -106 -67 -203zM258 533l1 207q0 10 10 10h120q5 0 6.5 -4t-0.5 -8l-87 -206q-4 -9 -14 -9h-26q-10 0 -10 10z" />
    <glyph glyph-name="Rcommaaccent" unicode="&#x156;" horiz-adv-x="817" 
d="M273 311v-177q0 -38 23.5 -56t66.5 -25q14 -2 12 -15l-2 -26q-2 -12 -14 -12h-312q-12 0 -14 12l-2 26q-2 13 12 15q91 14 91 81l-1 453q0 39 -19.5 57t-60.5 24q-14 2 -12 15l2 26q2 12 15 12h304q120 0 198.5 -55.5t78.5 -154.5q0 -55 -35 -96t-97 -59q2 -3 35.5 -51
t52.5 -71t55.5 -64.5t76.5 -73.5t84 -56q11 -6 6 -19l-12 -25q-6 -13 -21 -7q-100 37 -234 171q-10 9 -15 14q-77 77 -133.5 107.5t-128.5 29.5zM263 613v-227h64q75 0 125 32.5t50 97.5q0 70 -41.5 110.5t-111.5 40.5h-25q-26 0 -43.5 -15t-17.5 -39zM451 -205
q0 11 -5.5 21.5t-10 15t-18.5 15.5t-18 14q-21 18 -2 42q20 25 42 44t42 -1q31 -29 49 -51q13 -15 8 -40q-18 -98 -88 -162q-10 -10 -20 0l-16 16q-10 9 0 19q37 39 37 67z" />
    <glyph glyph-name="rcommaaccent" unicode="&#x157;" horiz-adv-x="425" 
d="M176 288q37 66 87 115.5t89 49.5q31 0 49.5 -17.5t18.5 -47.5q0 -36 -28 -57l-45 -34q-5 -3 -9.5 -1.5t-6.5 6.5q-12 35 -44 35q-44 0 -75 -73v-135q0 -41 18.5 -58t60.5 -23q14 -2 12 -15l-2 -21q-2 -12 -14 -12h-255q-12 0 -14 12l-2 21q-2 13 12 15q39 6 53 23t14 58
l-1 151q0 27 -16 44t-42 22q-13 3 -13 14v21q0 11 10 15q98 35 182 100q11 8 19 8q5 0 8 -4t1 -9q-45 -106 -67 -203zM144 -205q0 11 -5.5 21.5t-10 15t-18.5 15.5t-18 14q-21 18 -2 42q20 25 42 44t42 -1q31 -29 49 -51q13 -15 8 -40q-18 -98 -88 -162q-10 -10 -20 0
l-16 16q-9 9 0 19q37 39 37 67z" />
    <glyph glyph-name="Rcaron" unicode="&#x158;" horiz-adv-x="817" 
d="M273 311v-177q0 -38 23.5 -56t66.5 -25q14 -2 12 -15l-2 -26q-2 -12 -14 -12h-312q-12 0 -14 12l-2 26q-2 13 12 15q91 14 91 81l-1 453q0 39 -19.5 57t-60.5 24q-14 2 -12 15l2 26q2 12 15 12h304q120 0 198.5 -55.5t78.5 -154.5q0 -55 -35 -96t-97 -59q2 -3 35.5 -51
t52.5 -71t55.5 -64.5t76.5 -73.5t84 -56q11 -6 6 -19l-12 -25q-6 -13 -21 -7q-100 37 -234 171q-10 9 -15 14q-77 77 -133.5 107.5t-128.5 29.5zM263 613v-227h64q75 0 125 32.5t50 97.5q0 70 -41.5 110.5t-111.5 40.5h-25q-26 0 -43.5 -15t-17.5 -39zM377 771h-78
q-11 0 -16 10l-81 177q-3 5 0 9t8 4h34q11 0 19 -10l76 -102l75 103q8 9 19 9h33q5 0 7.5 -4t-0.5 -9l-80 -177q-5 -10 -16 -10z" />
    <glyph glyph-name="rcaron" unicode="&#x159;" horiz-adv-x="427" 
d="M280 528h-66q-10 0 -15 10l-102 191q-2 5 0.5 9t7.5 4h35q10 0 18 -10l89 -104l91 104q8 10 18 10h33q5 0 7.5 -4t0.5 -9l-102 -191q-5 -10 -15 -10zM176 288q37 66 87 115.5t89 49.5q31 0 49.5 -17.5t18.5 -47.5q0 -36 -28 -57l-45 -34q-5 -3 -9.5 -1.5t-6.5 6.5
q-12 35 -44 35q-44 0 -75 -73v-135q0 -41 18.5 -58t60.5 -23q14 -2 12 -15l-2 -21q-2 -12 -14 -12h-255q-12 0 -14 12l-2 21q-2 13 12 15q39 6 53 23t14 58l-1 151q0 27 -16 44t-42 22q-13 3 -13 14v21q0 11 10 15q98 35 182 100q11 8 19 8q5 0 8 -4t1 -9q-45 -106 -67 -203
z" />
    <glyph glyph-name="Sacute" unicode="&#x15a;" horiz-adv-x="607" 
d="M58 0q-11 0 -11 11l-2 202q0 14 14 14h23q13 0 18 -12q32 -71 89.5 -115t140.5 -44q52 0 84.5 27.5t32.5 68.5q0 38 -20.5 64t-60.5 49q-137 77 -200 126q-56 44 -83 83.5t-27 90.5q0 77 60 121t152 44q47 0 96.5 -11t64.5 -11q12 0 24.5 6.5t20.5 6.5h21q11 0 11 -11
l2 -156q0 -14 -14 -14h-22q-11 0 -18 12q-14 24 -24.5 39t-33 38t-54.5 35t-72 12q-44 0 -73 -22t-29 -59q0 -43 65 -92q70 -53 208 -129q131 -72 131 -189q0 -85 -67 -136t-171 -50q-49 1 -100 3t-68 2zM249 781l1 180q0 10 10 10h125q5 0 7 -4t0 -8l-92 -180q-4 -9 -14 -9
h-26q-11 0 -11 11z" />
    <glyph glyph-name="sacute" unicode="&#x15b;" horiz-adv-x="451" 
d="M132 1q-45 3 -78 -1q-13 -2 -13 11l-2 131q0 14 14 14h17q10 0 18 -11q70 -101 161 -101q29 0 47.5 12.5t18.5 33.5t-15.5 34.5t-55.5 33.5q-52 26 -104 59q-91 57 -91 132q0 56 40 88t104 32q29 0 70 -12.5t51 -12.5q11 0 22.5 6t18.5 6h14q11 0 11 -11l2 -117
q0 -14 -13 -14h-16q-10 0 -18 12q-68 94 -136 94q-21 0 -35 -11.5t-14 -29.5q0 -19 15 -34t45 -34q59 -36 110 -62q97 -50 97 -127q0 -60 -45 -96t-115 -36q-24 0 -73 5.5t-52 5.5zM186 533l1 207q0 10 10 10h120q5 0 6.5 -4t-0.5 -8l-87 -206q-4 -9 -14 -9h-26
q-10 0 -10 10z" />
    <glyph glyph-name="Scircumflex" unicode="&#x15c;" horiz-adv-x="607" 
d="M58 0q62 4 108 4q17 0 68 -2t100 -3q104 -1 171 50t67 136q0 117 -131 189q-138 76 -208 129q-65 49 -65 92q0 37 29 59t73 22q40 0 72 -12t54.5 -35t33 -38t24.5 -39q7 -12 18 -12h22q14 0 14 14l-2 156q0 11 -11 11h-21q-8 0 -20.5 -6.5t-24.5 -6.5q-15 0 -64.5 11
t-96.5 11q-92 0 -152 -44t-60 -121q0 -51 27 -90.5t83 -83.5q63 -49 200 -126q40 -23 60.5 -49t20.5 -64q0 -41 -32.5 -68.5t-84.5 -27.5q-83 0 -140.5 44t-89.5 115q-5 12 -18 12h-23q-14 0 -14 -14l2 -202q0 -11 11 -11zM243 971h78q11 0 16 -10l80 -177q3 -5 0.5 -9
t-7.5 -4h-33q-11 0 -19 9l-75 103l-76 -102q-8 -10 -19 -10h-34q-5 0 -8 4t0 9l81 177q5 10 16 10z" />
    <glyph glyph-name="scircumflex" unicode="&#x15d;" horiz-adv-x="451" 
d="M132 1q3 0 52 -5.5t73 -5.5q70 0 115 36t45 96q0 77 -97 127q-51 26 -110 62q-30 19 -45 34t-15 34q0 18 14 29.5t35 11.5q68 0 136 -94q8 -12 18 -12h16q13 0 13 14l-2 117q0 11 -11 11h-14q-7 0 -18.5 -6t-22.5 -6q-10 0 -51 12.5t-70 12.5q-64 0 -104 -32t-40 -88
q0 -75 91 -132q52 -33 104 -59q40 -20 55.5 -33.5t15.5 -34.5t-18.5 -33.5t-47.5 -12.5q-91 0 -161 101q-8 11 -18 11h-17q-14 0 -14 -14l2 -131q0 -13 13 -11q33 4 78 1zM191 750h67q10 0 15 -10l101 -204q2 -5 -0.5 -9t-7.5 -4h-33q-10 0 -18 10l-91 115l-89 -115
q-8 -10 -18 -10h-35q-5 0 -7.5 4t-0.5 9l102 204q5 10 15 10z" />
    <glyph glyph-name="Scedilla" unicode="&#x15e;" horiz-adv-x="607" 
d="M238 -129l-14 11q-7 5 -4 14l39 104q-82 4 -93 4l-108 -4q-11 0 -11 11l-2 202q0 14 14 14h23q13 0 18 -12q32 -71 89.5 -115t140.5 -44q52 0 84.5 27.5t32.5 68.5q0 38 -20.5 64t-60.5 49q-137 77 -200 126q-56 44 -83 83.5t-27 90.5q0 77 60 121t152 44q47 0 96.5 -11
t64.5 -11q12 0 24.5 6.5t20.5 6.5h21q11 0 11 -11l2 -156q0 -14 -14 -14h-22q-11 0 -18 12q-14 24 -24.5 39t-33 38t-54.5 35t-72 12q-44 0 -73 -22t-29 -59q0 -43 65 -92q70 -53 208 -129q131 -72 131 -189q0 -85 -67 -136t-171 -50h-1l-68 -88q35 25 79 25q40 0 67 -24
t27 -65q0 -46 -38 -75.5t-97 -29.5q-67 0 -109 51q-7 10 2 17l16 15q9 9 17 0q33 -31 68 -31q26 0 42.5 13.5t16.5 35.5t-14.5 34t-35.5 12q-24 0 -51 -18q-9 -6 -17 0z" />
    <glyph glyph-name="scedilla" unicode="&#x15f;" horiz-adv-x="451" 
d="M139 -129l-14 11q-7 5 -4 14l38 103l-27 2q-45 3 -78 -1q-13 -2 -13 11l-2 131q0 14 14 14h17q10 0 18 -11q70 -101 161 -101q29 0 47.5 12.5t18.5 33.5t-15.5 34.5t-55.5 33.5q-52 26 -104 59q-91 57 -91 132q0 56 40 88t104 32q29 0 70 -12.5t51 -12.5q11 0 22.5 6
t18.5 6h14q11 0 11 -11l2 -117q0 -14 -13 -14h-16q-10 0 -18 12q-68 94 -136 94q-21 0 -35 -11.5t-14 -29.5q0 -19 15 -34t45 -34q59 -36 110 -62q97 -50 97 -127q0 -60 -45 -96t-115 -36q-4 0 -14 0.5t-15 0.5l-62 -80q35 25 79 25q40 0 67 -24t27 -65q0 -46 -38 -75.5
t-97 -29.5q-67 0 -109 51q-7 10 2 17l16 15q9 9 17 0q33 -31 68 -31q26 0 42.5 13.5t16.5 35.5t-14.5 34t-35.5 12q-24 0 -51 -18q-8 -6 -17 0z" />
    <glyph glyph-name="Scaron" unicode="&#x160;" horiz-adv-x="607" 
d="M58 0q-11 0 -11 11l-2 202q0 14 14 14h23q13 0 18 -12q32 -71 89.5 -115t140.5 -44q52 0 84.5 27.5t32.5 68.5q0 38 -20.5 64t-60.5 49q-137 77 -200 126q-56 44 -83 83.5t-27 90.5q0 77 60 121t152 44q47 0 96.5 -11t64.5 -11q12 0 24.5 6.5t20.5 6.5h21q11 0 11 -11
l2 -156q0 -14 -14 -14h-22q-11 0 -18 12q-14 24 -24.5 39t-33 38t-54.5 35t-72 12q-44 0 -73 -22t-29 -59q0 -43 65 -92q70 -53 208 -129q131 -72 131 -189q0 -85 -67 -136t-171 -50q-49 1 -100 3t-68 2zM319 771h-78q-11 0 -16 10l-81 177q-3 5 0 9t8 4h34q11 0 19 -10
l76 -102l75 103q8 9 19 9h33q5 0 7.5 -4t-0.5 -9l-80 -177q-5 -10 -16 -10z" />
    <glyph glyph-name="scaron" unicode="&#x161;" horiz-adv-x="451" 
d="M132 1q-45 3 -78 -1q-13 -2 -13 11l-2 131q0 14 14 14h17q10 0 18 -11q70 -101 161 -101q29 0 47.5 12.5t18.5 33.5t-15.5 34.5t-55.5 33.5q-52 26 -104 59q-91 57 -91 132q0 56 40 88t104 32q29 0 70 -12.5t51 -12.5q11 0 22.5 6t18.5 6h14q11 0 11 -11l2 -117
q0 -14 -13 -14h-16q-10 0 -18 12q-68 94 -136 94q-21 0 -35 -11.5t-14 -29.5q0 -19 15 -34t45 -34q59 -36 110 -62q97 -50 97 -127q0 -60 -45 -96t-115 -36q-24 0 -73 5.5t-52 5.5zM255 523h-66q-10 0 -15 10l-102 204q-2 5 0.5 9t7.5 4h35q10 0 18 -10l89 -114l91 114
q8 10 18 10h33q5 0 7.5 -4t0.5 -9l-102 -204q-5 -10 -15 -10z" />
    <glyph glyph-name="Tcedilla" unicode="&#x162;" horiz-adv-x="810" 
d="M339 -129l-14 11q-7 5 -4 14l38 104h-120q-12 0 -14 12l-2 26q-2 13 12 15q91 14 91 81l-1 525h-53q-47 0 -82.5 -8.5t-59.5 -24.5t-37.5 -30.5t-28.5 -36.5q-8 -12 -20 -12h-28q-6 0 -9 4.5t-1 9.5l53 166q5 13 17 13h25q8 0 18 -10q9 -9 30 -9h562q24 0 37 11
q10 8 19 8h27q6 0 9 -4.5t1 -10.5l-52 -167q-5 -11 -15 -11h-18q-12 0 -16 11q-12 31 -28.5 50.5t-57 35t-103.5 15.5h-50l1 -525q0 -38 23.5 -56t66.5 -25q14 -2 12 -15l-2 -26q-2 -12 -14 -12h-116l-69 -89q35 25 79 25q40 0 67 -24t27 -65q0 -46 -38 -75.5t-97 -29.5
q-67 0 -109 51q-7 10 2 17l16 15q9 9 17 0q33 -31 68 -31q26 0 42.5 13.5t16.5 35.5t-14.5 34t-35.5 12q-24 0 -51 -18q-8 -6 -17 0z" />
    <glyph glyph-name="tcedilla" unicode="&#x163;" horiz-adv-x="365" 
d="M124 -129l-14 11q-7 5 -4 14l37 99q-58 23 -56 98v242q0 25 -11 37.5t-36 18.5q-13 3 -14 15l-5 31q-1 12 9 19q93 61 150 164q6 11 19 11h33q14 0 11 -14l-35 -161h129q6 0 9 -4t2 -10l-8 -37q-3 -12 -16 -12h-98l-17 1l-1 -280q0 -41 36 -41q14 0 36 13t35 26
q5 5 11.5 4t9.5 -6l18 -25q7 -12 -3 -20q-75 -68 -141 -77l-59 -77q35 25 79 25q40 0 67 -24t27 -65q0 -46 -38 -75.5t-97 -29.5q-67 0 -109 51q-7 10 2 17l16 15q9 9 17 0q33 -31 68 -31q26 0 42.5 13.5t16.5 35.5t-14.5 34t-35.5 12q-24 0 -51 -18q-9 -6 -17 0z" />
    <glyph glyph-name="Tcaron" unicode="&#x164;" horiz-adv-x="810" 
d="M464 659l1 -525q0 -38 23.5 -56t66.5 -25q14 -2 12 -15l-2 -26q-2 -12 -14 -12h-312q-12 0 -14 12l-2 26q-2 13 12 15q91 14 91 81l-1 525h-53q-47 0 -82.5 -8.5t-59.5 -24.5t-37.5 -30.5t-28.5 -36.5q-8 -12 -20 -12h-28q-6 0 -9 4.5t-1 9.5l53 166q5 13 17 13h25
q8 0 18 -10q9 -9 30 -9h562q24 0 37 11q10 8 19 8h27q6 0 9 -4.5t1 -10.5l-52 -167q-5 -11 -15 -11h-18q-12 0 -16 11q-12 31 -28.5 50.5t-57 35t-103.5 15.5h-50zM435 771h-78q-11 0 -16 10l-81 177q-3 5 0 9t8 4h34q11 0 19 -10l76 -102l75 103q8 9 19 9h33q5 0 7.5 -4
t-0.5 -9l-80 -177q-5 -10 -16 -10z" />
    <glyph glyph-name="tcaron" unicode="&#x165;" horiz-adv-x="407" 
d="M208 456h129q6 0 9 -4t2 -10l-8 -37q-3 -12 -16 -12h-98l-17 1l-1 -280q0 -41 36 -41q14 0 36 13t35 26q5 5 11.5 4t9.5 -6l18 -25q7 -12 -3 -20q-87 -79 -159 -79q-50 0 -78 29t-27 78v242q0 25 -11 37.5t-36 18.5q-13 3 -14 15l-5 31q-1 12 9 19q93 61 150 164
q6 11 19 11h33q14 0 11 -14zM317 599q0 11 -5.5 21.5t-10 15t-18.5 15.5t-18 14q-21 18 -2 42q20 25 42 44t42 -1q31 -29 49 -51q14 -17 9 -41q-18 -97 -89 -162q-10 -10 -20 0l-16 16q-10 10 0 19q37 39 37 68z" />
    <glyph glyph-name="Tbar" unicode="&#x166;" horiz-adv-x="810" 
d="M464 325l1 -191q0 -38 23.5 -56t66.5 -25q14 -2 12 -15l-2 -26q-2 -12 -14 -12h-312q-12 0 -14 12l-2 26q-2 13 12 15q91 14 91 81l-1 191h-120q-14 0 -14 13v40q0 13 14 13h120v268h-53q-47 0 -82.5 -8.5t-59.5 -24.5t-37.5 -30.5t-28.5 -36.5q-8 -12 -20 -12h-28
q-6 0 -9 4.5t-1 9.5l53 166q5 13 17 13h25q8 0 18 -10q9 -9 30 -9h562q24 0 37 11q10 8 19 8h27q6 0 9 -4.5t1 -10.5l-52 -167q-5 -11 -15 -11h-18q-12 0 -16 11q-12 31 -28.5 50.5t-57 35t-103.5 15.5h-50v-268h122q14 0 14 -13v-40q0 -13 -14 -13h-122z" />
    <glyph glyph-name="tbar" unicode="&#x167;" horiz-adv-x="375" 
d="M213 456h129q14 0 11 -14l-8 -37q-3 -12 -16 -12h-98l-17 1l-1 -119h127q16 0 11 -16l-12 -34q-5 -12 -18 -12h-108v-99q0 -41 36 -41q14 0 36 13t35 26q5 5 11.5 4t9.5 -6l18 -25q7 -12 -3 -20q-87 -79 -159 -79q-50 0 -78 29t-27 78v120h-54q-16 0 -11 16l12 34
q5 12 18 12h35v60q0 25 -11 37.5t-36 18.5q-13 3 -14 15l-5 31q-1 12 9 19q93 61 150 164q6 11 19 11h33q14 0 11 -14z" />
    <glyph glyph-name="Utilde" unicode="&#x168;" horiz-adv-x="786" 
d="M668 587v-368q0 -114 -75.5 -174t-198.5 -60q-122 0 -199 62.5t-77 176.5v363q0 39 -19.5 57t-60.5 24q-14 2 -12 15l2 26q2 12 14 12h282q12 0 14 -12l2 -26q2 -13 -12 -15q-41 -6 -60.5 -24t-19.5 -57v-369q0 -74 49.5 -117t127.5 -43q82 0 129.5 44.5t47.5 114.5v370
q0 39 -19.5 57t-60.5 24q-14 2 -12 15l2 26q2 12 14 12h218q12 0 14 -12l2 -26q2 -13 -12 -15q-41 -6 -60.5 -24t-19.5 -57zM347 867q25 0 46.5 14.5t45 29.5t53.5 15q42 0 67 -28t33 -75q2 -13 -6 -18l-19 -11q-13 -7 -18 5q-16 37 -44 37q-21 0 -41.5 -14.5t-45.5 -29.5
t-57 -15q-42 0 -67.5 28t-33.5 75q-2 13 6 18l19 11q13 7 18 -5q16 -37 44 -37z" />
    <glyph glyph-name="utilde" unicode="&#x169;" horiz-adv-x="590" 
d="M470 -10q-89 0 -104 81q-94 -86 -173 -86q-54 0 -86 31.5t-31 87.5q0 46 4 117t4 107q0 37 -13.5 55.5t-47.5 24.5q-13 3 -12 15l2 21q2 12 14 12h164q13 0 13 -12q0 -88 -10 -300q-1 -30 16 -46.5t47 -16.5q47 0 109 66v180q0 38 -13.5 56.5t-47.5 24.5q-13 3 -12 15
l2 21q2 12 14 12h164q13 0 13 -12l-1 -336q0 -15 9.5 -24t25.5 -9q17 0 44 10q14 6 16 -8l4 -24q1 -12 -7 -20q-43 -43 -107 -43zM200 646q26 0 49 16t47.5 32t54.5 16q43 0 71.5 -36t31.5 -91q0 -13 -8 -18l-20 -12q-5 -3 -10.5 -1t-6.5 7q-10 51 -51 51q-24 0 -69 -31.5
t-85 -31.5q-44 0 -71 35.5t-30 90.5q0 14 8 19l20 11q14 8 17 -6q14 -51 52 -51z" />
    <glyph glyph-name="Umacron" unicode="&#x16a;" horiz-adv-x="786" 
d="M668 219v368q0 39 19.5 57t60.5 24q14 2 12 15l-2 26q-2 12 -14 12h-218q-12 0 -14 -12l-2 -26q-2 -13 12 -15q41 -6 60.5 -24t19.5 -57v-370q0 -70 -47.5 -114.5t-129.5 -44.5q-78 0 -127.5 43t-49.5 117v369q0 39 19.5 57t60.5 24q14 2 12 15l-2 26q-2 12 -14 12h-282
q-12 0 -14 -12l-2 -26q-2 -13 12 -15q41 -6 60.5 -24t19.5 -57v-363q0 -114 77 -176.5t199 -62.5q123 0 198.5 60t75.5 174zM555 800h-260q-8 0 -12 5.5t-1 13.5l21 50q7 15 22 15h259q8 0 12 -5.5t1 -13.5l-20 -50q-7 -15 -22 -15z" />
    <glyph glyph-name="umacron" unicode="&#x16b;" horiz-adv-x="590" 
d="M470 -10q64 0 107 43q8 8 7 20l-4 24q-2 14 -16 8q-27 -10 -44 -10q-16 0 -25.5 9t-9.5 24l1 336q0 12 -13 12h-164q-12 0 -14 -12l-2 -21q-1 -12 12 -15q34 -6 47.5 -24.5t13.5 -56.5v-180q-62 -66 -109 -66q-30 0 -47 16.5t-16 46.5q10 212 10 300q0 12 -13 12h-164
q-12 0 -14 -12l-2 -21q-1 -12 12 -15q34 -6 47.5 -24.5t13.5 -55.5q0 -36 -4 -107t-4 -117q-1 -56 31 -87.5t86 -31.5q79 0 173 86q15 -81 104 -81zM403 577h-254q-8 0 -12 5.5t-1 13.5l21 50q7 15 22 15h253q8 0 12 -5.5t1 -13.5l-20 -50q-7 -15 -22 -15z" />
    <glyph glyph-name="Ubreve" unicode="&#x16c;" horiz-adv-x="786" 
d="M668 587v-368q0 -114 -75.5 -174t-198.5 -60q-122 0 -199 62.5t-77 176.5v363q0 39 -19.5 57t-60.5 24q-14 2 -12 15l2 26q2 12 14 12h282q12 0 14 -12l2 -26q2 -13 -12 -15q-41 -6 -60.5 -24t-19.5 -57v-369q0 -74 49.5 -117t127.5 -43q82 0 129.5 44.5t47.5 114.5v370
q0 39 -19.5 57t-60.5 24q-14 2 -12 15l2 26q2 12 14 12h218q12 0 14 -12l2 -26q2 -13 -12 -15q-41 -6 -60.5 -24t-19.5 -57zM428 774q-80 0 -116 47t-35 114q0 12 12 12h31q11 0 13 -12q11 -74 95 -74q85 0 96 74q2 12 13 12h29q12 0 12 -12q1 -66 -35 -113.5t-115 -47.5z
" />
    <glyph glyph-name="ubreve" unicode="&#x16d;" horiz-adv-x="590" 
d="M470 -10q-89 0 -104 81q-94 -86 -173 -86q-54 0 -86 31.5t-31 87.5q0 46 4 117t4 107q0 37 -13.5 55.5t-47.5 24.5q-13 3 -12 15l2 21q2 12 14 12h164q13 0 13 -12q0 -88 -10 -300q-1 -30 16 -46.5t47 -16.5q47 0 109 66v180q0 38 -13.5 56.5t-47.5 24.5q-13 3 -12 15
l2 21q2 12 14 12h164q13 0 13 -12l-1 -336q0 -15 9.5 -24t25.5 -9q17 0 44 10q14 6 16 -8l4 -24q1 -12 -7 -20q-43 -43 -107 -43zM276 537q-43 0 -74 14.5t-47 39t-23 52t-7 58.5q0 12 11 12h31q11 0 13 -12q8 -71 96 -71t96 71q2 12 13 12h29q11 0 11 -12q1 -68 -34 -116
t-115 -48z" />
    <glyph glyph-name="Uring" unicode="&#x16e;" horiz-adv-x="786" 
d="M668 219v368q0 39 19.5 57t60.5 24q14 2 12 15l-2 26q-2 12 -14 12h-218q-12 0 -14 -12l-2 -26q-2 -13 12 -15q41 -6 60.5 -24t19.5 -57v-370q0 -70 -47.5 -114.5t-129.5 -44.5q-78 0 -127.5 43t-49.5 117v369q0 39 19.5 57t60.5 24q14 2 12 15l-2 26q-2 12 -14 12h-282
q-12 0 -14 -12l-2 -26q-2 -13 12 -15q41 -6 60.5 -24t19.5 -57v-363q0 -114 77 -176.5t199 -62.5q123 0 198.5 60t75.5 174zM424 968q44 0 74.5 -29t30.5 -72q0 -44 -30.5 -72.5t-74.5 -28.5t-74.5 28.5t-30.5 72.5q0 43 30.5 72t74.5 29zM424 817q21 0 35.5 14.5t14.5 35.5
t-14.5 35t-35.5 14t-35.5 -14t-14.5 -35t14.5 -35.5t35.5 -14.5z" />
    <glyph glyph-name="uring" unicode="&#x16f;" horiz-adv-x="590" 
d="M470 -10q64 0 107 43q8 8 7 20l-4 24q-2 14 -16 8q-27 -10 -44 -10q-16 0 -25.5 9t-9.5 24l1 336q0 12 -13 12h-164q-12 0 -14 -12l-2 -21q-1 -12 12 -15q34 -6 47.5 -24.5t13.5 -56.5v-180q-62 -66 -109 -66q-30 0 -47 16.5t-16 46.5q10 212 10 300q0 12 -13 12h-164
q-12 0 -14 -12l-2 -21q-1 -12 12 -15q34 -6 47.5 -24.5t13.5 -55.5q0 -36 -4 -107t-4 -117q-1 -56 31 -87.5t86 -31.5q79 0 173 86q15 -81 104 -81zM277 753q49 0 83 -32t34 -80t-34 -80t-83 -32t-83 32t-34 80t34 80t83 32zM277 580q25 0 43.5 17.5t18.5 43.5t-18.5 43.5
t-43.5 17.5t-43.5 -17.5t-18.5 -43.5t18.5 -43.5t43.5 -17.5z" />
    <glyph glyph-name="Uhungarumlaut" unicode="&#x170;" horiz-adv-x="786" 
d="M668 587v-368q0 -114 -75.5 -174t-198.5 -60q-122 0 -199 62.5t-77 176.5v363q0 39 -19.5 57t-60.5 24q-14 2 -12 15l2 26q2 12 14 12h282q12 0 14 -12l2 -26q2 -13 -12 -15q-41 -6 -60.5 -24t-19.5 -57v-369q0 -74 49.5 -117t127.5 -43q82 0 129.5 44.5t47.5 114.5v370
q0 39 -19.5 57t-60.5 24q-14 2 -12 15l2 26q2 12 14 12h218q12 0 14 -12l2 -26q2 -13 -12 -15q-41 -6 -60.5 -24t-19.5 -57zM317 780l1 181q0 10 10 10h105q5 0 7.5 -3.5t0.5 -8.5l-76 -180q-4 -9 -14 -9h-24q-10 0 -10 10zM490 780l1 181q0 10 10 10h102q5 0 7.5 -3.5
t0.5 -8.5l-73 -180q-4 -9 -14 -9h-24q-10 0 -10 10z" />
    <glyph glyph-name="uhungarumlaut" unicode="&#x171;" horiz-adv-x="590" 
d="M470 -10q-89 0 -104 81q-94 -86 -173 -86q-54 0 -86 31.5t-31 87.5q0 46 4 117t4 107q0 37 -13.5 55.5t-47.5 24.5q-13 3 -12 15l2 21q2 12 14 12h164q13 0 13 -12q0 -88 -10 -300q-1 -30 16 -46.5t47 -16.5q47 0 109 66v180q0 38 -13.5 56.5t-47.5 24.5q-13 3 -12 15
l2 21q2 12 14 12h164q13 0 13 -12l-1 -336q0 -15 9.5 -24t25.5 -9q17 0 44 10q14 6 16 -8l4 -24q1 -12 -7 -20q-43 -43 -107 -43zM163 533l1 207q0 10 10 10h105q5 0 7.5 -3.5t0.5 -8.5l-76 -206q-4 -9 -14 -9h-24q-10 0 -10 10zM327 533l1 207q0 10 10 10h102q5 0 7.5 -3.5
t0.5 -8.5l-73 -206q-4 -9 -14 -9h-24q-10 0 -10 10z" />
    <glyph glyph-name="Uogonek" unicode="&#x172;" horiz-adv-x="786" 
d="M668 587v-368q0 -84 -43 -140t-118 -79h-1q-102 -85 -101 -139q1 -33 39 -33q40 0 97 36q12 8 18 -3l9 -16q5 -10 -3 -18q-74 -74 -151 -74q-44 0 -71 22.5t-27 63.5q0 69 103 147q-8 -1 -25 -1q-122 0 -199 62.5t-77 176.5v363q0 39 -19.5 57t-60.5 24q-14 2 -12 15
l2 26q2 12 14 12h282q12 0 14 -12l2 -26q2 -13 -12 -15q-41 -6 -60.5 -24t-19.5 -57v-369q0 -74 49.5 -117t127.5 -43q82 0 129.5 44.5t47.5 114.5v370q0 39 -19.5 57t-60.5 24q-14 2 -12 15l2 26q2 12 14 12h218q12 0 14 -12l2 -26q2 -13 -12 -15q-41 -6 -60.5 -24
t-19.5 -57z" />
    <glyph glyph-name="uogonek" unicode="&#x173;" horiz-adv-x="590" 
d="M366 71q-94 -86 -173 -86q-54 0 -86 31.5t-31 87.5q0 46 4 117t4 107q0 37 -13.5 55.5t-47.5 24.5q-13 3 -12 15l2 21q2 12 14 12h164q13 0 13 -12q0 -88 -10 -300q-1 -30 16 -46.5t47 -16.5q47 0 109 66v180q0 38 -13.5 56.5t-47.5 24.5q-13 3 -12 15l2 21q2 12 14 12
h164q13 0 13 -12l-1 -336q0 -15 9.5 -24t25.5 -9q17 0 44 10q14 6 16 -8l4 -24q1 -12 -7 -20q-34 -34 -84 -41q-92 -81 -91 -131q1 -33 39 -33q40 0 97 36q12 8 18 -3l9 -16q5 -10 -3 -18q-74 -74 -151 -74q-44 0 -71 22.5t-27 63.5q0 73 116 157q-54 15 -63 75z" />
    <glyph glyph-name="Wcircumflex" unicode="&#x174;" horiz-adv-x="1147" 
d="M693 597l146 -406l127 406q11 29 2 47t-43 24q-13 3 -12 15l2 26q2 12 14 12h196q12 0 14 -12l2 -26q2 -13 -12 -15q-35 -6 -55 -24.5t-34 -56.5l-199 -576q-4 -11 -15 -11h-38q-11 0 -15 11l-203 524l-195 -524q-4 -11 -15 -11h-38q-11 0 -15 11l-207 576q-15 39 -32 57
t-50 24q-14 3 -12 15l2 26q2 12 14 12h256q12 0 14 -12l2 -26q2 -12 -12 -15q-61 -10 -40 -71l131 -406l142 406q11 29 2 47t-43 24q-14 3 -12 15l2 26q2 12 14 12h251q12 0 14 -12l2 -26q1 -12 -12 -15q-61 -10 -40 -71zM564 971h78q11 0 16 -10l80 -177q3 -5 0.5 -9
t-7.5 -4h-33q-12 0 -19 9l-75 103l-76 -102q-8 -10 -19 -10h-34q-5 0 -8 4t0 9l81 177q5 10 16 10z" />
    <glyph glyph-name="wcircumflex" unicode="&#x175;" horiz-adv-x="818" 
d="M716 321l-122 -310q-5 -11 -16 -11h-25q-11 0 -16 12l-127 270l-114 -271q-5 -11 -16 -11h-25q-11 0 -16 12l-141 309q-19 37 -35 55.5t-47 31.5q-12 4 -10 16l2 20q2 12 14 12h223q12 0 14 -12l2 -20q1 -12 -10 -16q-22 -8 -31 -26.5t2 -46.5l75 -182l73 182
q10 26 -1.5 45.5t-33.5 27.5q-11 4 -10 16l2 20q2 12 14 12h197q12 0 14 -12l2 -20q1 -12 -10 -16q-22 -8 -31 -26.5t2 -46.5l80 -181l68 181q9 28 0.5 46.5t-29.5 26.5q-11 4 -10 16l2 20q2 12 14 12h156q12 0 14 -12l2 -20q2 -12 -10 -16q-33 -14 -53 -33.5t-33 -53.5z
M396 750h67q10 0 15 -10l101 -204q2 -5 -0.5 -9t-7.5 -4h-33q-10 0 -18 10l-91 115l-89 -115q-8 -10 -18 -10h-35q-5 0 -7.5 4t-0.5 9l102 204q5 10 15 10z" />
    <glyph glyph-name="Ycircumflex" unicode="&#x176;" horiz-adv-x="665" 
d="M274 346v-212q0 -39 -20 -57t-61 -24q-14 -2 -12 -15l2 -26q2 -12 14 -12h289q12 0 14 12l2 26q2 13 -12 15q-41 6 -61 24t-20 57l-1 233l125 220q40 70 114 81q14 2 12 15l-2 26q-2 12 -14 12h-216q-12 0 -14 -12l-2 -26q-2 -13 12 -15q73 -11 41 -71l-98 -181l-105 181
q-18 24 -9 44.5t46 26.5q14 2 12 15l-2 26q-2 12 -14 12h-272q-12 0 -14 -12l-2 -26q-2 -12 12 -15q53 -11 97 -81zM323 971h78q11 0 16 -10l80 -177q3 -5 0.5 -9t-7.5 -4h-33q-11 0 -19 9l-75 103l-76 -102q-8 -10 -19 -10h-34q-5 0 -8 4t0 9l81 177q5 10 16 10z" />
    <glyph glyph-name="ycircumflex" unicode="&#x177;" horiz-adv-x="525" 
d="M154 -172q13 -7 20 5l249 488q18 35 36.5 54.5t49.5 32.5q12 4 10 16l-2 20q-2 12 -14 12h-163q-12 0 -14 -12l-2 -20q-1 -12 10 -16q21 -8 29.5 -27t-2.5 -46l-63 -140l-71 138q-13 26 -5 46.5t29 28.5q11 4 10 16l-2 20q-2 12 -14 12h-223q-12 0 -14 -12l-2 -20
q-1 -10 10 -16q27 -15 44.5 -33.5t37.5 -53.5l134 -242l-117 -213q-7 -13 5 -20zM246 750h67q10 0 15 -10l101 -204q2 -5 -0.5 -9t-7.5 -4h-33q-10 0 -18 10l-91 115l-89 -115q-8 -10 -18 -10h-35q-5 0 -7.5 4t-0.5 9l102 204q5 10 15 10z" />
    <glyph glyph-name="Ydieresis" unicode="&#x178;" horiz-adv-x="665" 
d="M274 346v-212q0 -39 -20 -57t-61 -24q-14 -2 -12 -15l2 -26q2 -12 14 -12h289q12 0 14 12l2 26q2 13 -12 15q-41 6 -61 24t-20 57l-1 233l125 220q40 70 114 81q14 2 12 15l-2 26q-2 12 -14 12h-216q-12 0 -14 -12l-2 -26q-2 -13 12 -15q73 -11 41 -71l-98 -181l-105 181
q-18 24 -9 44.5t46 26.5q14 2 12 15l-2 26q-2 12 -14 12h-272q-12 0 -14 -12l-2 -26q-2 -12 12 -15q53 -11 97 -81zM226 932q22 19 42 0q13 -11 50 -51q21 -23 1 -44q-34 -36 -51 -51q-23 -18 -42 0q-20 16 -50 51q-19 22 -1 45q32 35 51 50zM450 932q22 19 42 0
q23 -20 50 -51q21 -23 1 -44q-24 -27 -51 -51q-23 -18 -42 0q-23 20 -50 51q-20 23 -1 45q25 29 51 50z" />
    <glyph glyph-name="Zacute" unicode="&#x179;" horiz-adv-x="696" 
d="M472 663l-108 -3q-94 -6 -146.5 -30t-101.5 -95q-8 -12 -21 -6l-20 10q-13 5 -6 19l92 174q7 14 22 3q16 -14 59 -14h420q5 0 7 -4.5t-1 -8.5l-482 -644l192 10q154 10 257 140q9 13 22 6l20 -11q14 -6 7 -20l-107 -211q-2 -6 -9.5 -6t-11.5 5q-22 23 -61 23h-468
q-12 0 -12 12v20q0 9 8 21zM345 781l1 180q0 10 10 10h125q5 0 7 -4t0 -8l-92 -180q-4 -9 -14 -9h-26q-11 0 -11 11z" />
    <glyph glyph-name="zacute" unicode="&#x17a;" horiz-adv-x="482" 
d="M17 49l293 356q-90 0 -148.5 -20t-94.5 -68q-9 -13 -23 -4l-17 10q-12 7 -6 19l63 125q3 6 10 7t13 -4q20 -14 55 -14h297q7 0 10 -5t-1 -11l-310 -381q195 0 262 89q10 13 23 6l19 -10q13 -8 6 -21l-64 -134q-7 -13 -23 -3q-22 14 -70 14h-290q-12 0 -12 12v15
q0 10 8 22zM223 533l1 207q0 10 10 10h120q5 0 6.5 -4t-0.5 -8l-87 -206q-5 -9 -14 -9h-26q-10 0 -10 10z" />
    <glyph glyph-name="Zdotaccent" unicode="&#x17b;" horiz-adv-x="696" 
d="M472 663l-108 -3q-94 -6 -146.5 -30t-101.5 -95q-8 -12 -21 -6l-20 10q-13 5 -6 19l92 174q7 14 22 3q16 -14 59 -14h420q5 0 7 -4.5t-1 -8.5l-482 -644l192 10q154 10 257 140q9 13 22 6l20 -11q14 -6 7 -20l-107 -211q-2 -6 -9.5 -6t-11.5 5q-22 23 -61 23h-468
q-12 0 -12 12v20q0 9 8 21zM375 944q10 9 22 9q13 0 23 -10q30 -29 57 -57q10 -10 10 -23q0 -12 -9 -21q-33 -35 -58 -57q-10 -10 -22 -10q-13 0 -23 10q-39 37 -56 57q-10 10 -10 23q0 11 9 22q26 29 57 57z" />
    <glyph glyph-name="zdotaccent" unicode="&#x17c;" horiz-adv-x="482" 
d="M17 49l293 356q-90 0 -148.5 -20t-94.5 -68q-9 -13 -23 -4l-17 10q-12 7 -6 19l63 125q3 6 10 7t13 -4q20 -14 55 -14h297q7 0 10 -5t-1 -11l-310 -381q195 0 262 89q10 13 23 6l19 -10q13 -8 6 -21l-64 -134q-7 -13 -23 -3q-22 14 -70 14h-290q-12 0 -12 12v15
q0 10 8 22zM242 725q24 20 45 -1q30 -28 57 -57q21 -21 1 -44q-32 -34 -58 -57q-23 -19 -45 0q-27 22 -56 57q-22 22 -1 45q26 29 57 57z" />
    <glyph glyph-name="Zcaron" unicode="&#x17d;" horiz-adv-x="696" 
d="M472 663l-108 -3q-94 -6 -146.5 -30t-101.5 -95q-8 -12 -21 -6l-20 10q-13 5 -6 19l92 174q7 14 22 3q16 -14 59 -14h420q5 0 7 -4.5t-1 -8.5l-482 -644l192 10q154 10 257 140q9 13 22 6l20 -11q14 -6 7 -20l-107 -211q-2 -6 -9.5 -6t-11.5 5q-22 23 -61 23h-468
q-12 0 -12 12v20q0 9 8 21zM427 771h-78q-11 0 -16 10l-81 177q-3 5 0 9t8 4h34q11 0 19 -10l76 -102l75 103q8 9 19 9h33q5 0 7.5 -4t-0.5 -9l-80 -177q-5 -10 -16 -10z" />
    <glyph glyph-name="zcaron" unicode="&#x17e;" horiz-adv-x="482" 
d="M17 49l293 356q-90 0 -148.5 -20t-94.5 -68q-9 -13 -23 -4l-17 10q-12 7 -6 19l63 125q3 6 10 7t13 -4q20 -14 55 -14h297q7 0 10 -5t-1 -11l-310 -381q195 0 262 89q10 13 23 6l19 -10q13 -8 6 -21l-64 -134q-7 -13 -23 -3q-22 14 -70 14h-290q-12 0 -12 12v15
q0 10 8 22zM291 523h-66q-10 0 -15 10l-102 204q-2 5 0.5 9t7.5 4h35q10 0 18 -10l89 -114l91 114q8 10 18 10h33q5 0 7.5 -4t0.5 -9l-102 -204q-5 -10 -15 -10z" />
    <glyph glyph-name="florin" unicode="&#x192;" horiz-adv-x="467" 
d="M430 393h-151v-623q0 -14 -13 -14h-96q-14 0 -14 14v521q0 51 -24 74.5t-74 33.5q-13 3 -13 17v27q0 13 14 13h97q0 75 25.5 143.5t79 114.5t123.5 46q49 0 83 -27.5t34 -67.5t-40 -59l-77 -36q-5 -2 -10 0.5t-5 7.5v19q0 12 7 24q17 28 6.5 53t-41.5 25q-70 0 -70 -123
v-120h159q14 0 14 -13v-37q0 -13 -14 -13z" />
    <glyph glyph-name="Aringacute" unicode="&#x1fa;" horiz-adv-x="731" 
d="M474 124l-26 88h-222l-30 -88q-10 -30 1 -47.5t49 -23.5q14 -2 12 -15l-2 -26q-2 -12 -14 -12h-220q-12 0 -14 12l-2 26q-2 13 12 15q78 12 104 81l215 576q4 11 15 11h64q11 0 15 -11l185 -576q14 -37 36.5 -56t60.5 -25q14 -2 12 -15l-2 -26q-2 -12 -14 -12h-281
q-12 0 -14 12l-2 26q-2 13 12 15q71 11 50 71zM347 560l-99 -276h186zM385 956q44 0 74.5 -29t30.5 -72q0 -44 -30.5 -72.5t-74.5 -28.5t-74.5 28.5t-30.5 72.5q0 43 30.5 72t74.5 29zM385 805q21 0 35.5 14.5t14.5 35.5t-14.5 35t-35.5 14t-35.5 -14t-14.5 -35t14.5 -35.5
t35.5 -14.5zM366 995l1 180q0 10 10 10h125q5 0 7 -4t0 -8l-92 -180q-4 -9 -14 -9h-26q-11 0 -11 11z" />
    <glyph glyph-name="aringacute" unicode="&#x1fb;" horiz-adv-x="503" 
d="M272 121l1 114q-52 -18 -96 -44q-47 -29 -47 -66q0 -22 13.5 -35t35.5 -13q43 0 93 44zM113 359q-14 -7 -20 6l-11 24q-5 11 6 18q93 56 200 56q104 0 104 -98l-3 -251q0 -15 9 -24t24 -9q26 0 54 14q5 3 10.5 1.5t6.5 -7.5l4 -28q2 -12 -7 -21q-49 -47 -119 -47t-91 68
q-75 -71 -155 -71q-48 0 -78.5 30.5t-30.5 77.5q0 92 141 145q51 20 112 37l1 69q0 41 -41 41q-54 0 -116 -31zM244 736q49 0 83 -32t34 -80t-34 -80t-83 -32t-83 32t-34 80t34 80t83 32zM244 563q25 0 43.5 17.5t18.5 43.5t-18.5 43.5t-43.5 17.5t-43.5 -17.5t-18.5 -43.5
t18.5 -43.5t43.5 -17.5zM221 793l1 207q0 10 10 10h120q5 0 6.5 -4t-0.5 -8l-87 -206q-5 -9 -14 -9h-26q-10 0 -10 10z" />
    <glyph glyph-name="AEacute" unicode="&#x1fc;" horiz-adv-x="994" 
d="M745 0h-370q-12 0 -14 12l-2 26q-2 13 12 15q41 6 60.5 24t19.5 57v78h-199l-38 -85q-29 -64 35 -74q14 -2 12 -15l-3 -26q-2 -12 -14 -12h-222q-12 0 -14 12l-2 26q-2 13 12 15q87 13 130 102l250 555q6 11 18 11h304l186 3q12 0 14 -12l2 -19q2 -12 -5 -21
q-12 -18 -36 -53.5t-30 -44.5q-7 -11 -18 -11h-14q-10 0 -17 11q-66 96 -158 96h-10q-56 0 -56 -49v-221h53q76 0 88 70q3 14 15 12l26 -2q12 -2 12 -14v-197q0 -12 -12 -14l-26 -2q-12 -1 -15 12q-12 69 -88 69h-43v-219q0 -55 58 -55h6q54 0 95.5 12t74.5 39t55 54t52 73
q7 10 19 10h24q12 0 12 -12v-21q0 -7 -4 -21q-18 -53 -57 -185q-3 -11 -17 -11q-48 2 -161 2zM284 284h172v385zM578 781l1 180q0 10 10 10h125q5 0 7 -4t0 -8l-92 -180q-4 -9 -14 -9h-26q-11 0 -11 11z" />
    <glyph glyph-name="aeacute" unicode="&#x1fd;" horiz-adv-x="712" 
d="M500 -15q-121 0 -181 102q-91 -97 -194 -97q-48 0 -78.5 30.5t-30.5 77.5q0 92 141 145q51 20 112 37l1 69q0 41 -41 41q-54 0 -116 -31q-14 -7 -20 6l-11 24q-5 11 6 18q93 56 194 56q56 0 79 -42q56 50 136 50q68 0 107.5 -37.5t53.5 -92.5q2 -8 2 -16v-14
q0 -12 -10 -15l-259 -98q34 -108 155 -107q68 2 115 58q9 11 21 4l14 -10q10 -8 4 -19q-23 -56 -74.5 -97t-125.5 -42zM385 248l154 70q7 39 -12 65.5t-57 26.5q-56 0 -79.5 -48.5t-5.5 -113.5zM272 121l1 114q-58 -22 -96 -44q-47 -29 -47 -66q0 -22 13.5 -35t35.5 -13
q43 0 93 44zM358 533l1 207q0 10 10 10h120q5 0 6.5 -4t-0.5 -8l-87 -206q-4 -9 -14 -9h-26q-10 0 -10 10z" />
    <glyph glyph-name="Oslashacute" unicode="&#x1fe;" horiz-adv-x="844" 
d="M36 355q0 157 104 268l-77 82q-4 5 -1.5 10.5t8.5 5.5h63q14 0 23 -11l36 -42q100 73 226 73q157 0 273.5 -109.5t116.5 -266.5q0 -156 -104 -265l79 -84q4 -4 1.5 -10t-8.5 -6h-63q-14 0 -24 12l-37 42q-102 -74 -232 -74q-157 0 -270.5 109t-113.5 266zM247 608
l385 -427l7 -10q35 61 35 147q0 154 -82 250t-200 96q-92 0 -150 -52zM165 413q0 -154 82.5 -250.5t199.5 -96.5q91 0 150 51l-6 6l-389 430l-4 5q-33 -60 -33 -145zM390 781l1 180q0 10 10 10h125q5 0 7 -4t0 -8l-92 -180q-4 -9 -14 -9h-26q-11 0 -11 11z" />
    <glyph glyph-name="oslashacute" unicode="&#x1ff;" horiz-adv-x="558" 
d="M524 228q0 -92 -62 -161l50 -51q4 -4 1.5 -10t-8.5 -6h-52q-14 0 -24 12l-14 14q-63 -41 -138 -41q-106 0 -174.5 68.5t-68.5 175.5q0 92 61 161l-48 50q-4 4 -1.5 10t8.5 6h52q14 0 23 -11l13 -14q62 40 135 40q103 0 175 -69t72 -174zM160 183q31 -72 81.5 -104
t104.5 -12q14 6 20 10l-220 255q-22 -66 14 -149zM392 279q-30 73 -83 105t-104 11q-12 -5 -18 -10l218 -256q22 64 -13 150zM248 533l1 207q0 10 10 10h120q5 0 6.5 -4t-0.5 -8l-87 -206q-4 -9 -14 -9h-26q-10 0 -10 10z" />
    <glyph glyph-name="Scommaaccent" unicode="&#x218;" horiz-adv-x="607" 
d="M58 0q-11 0 -11 11l-2 202q0 14 14 14h23q13 0 18 -12q32 -71 89.5 -115t140.5 -44q52 0 84.5 27.5t32.5 68.5q0 38 -20.5 64t-60.5 49q-137 77 -200 126q-56 44 -83 83.5t-27 90.5q0 77 60 121t152 44q47 0 96.5 -11t64.5 -11q12 0 24.5 6.5t20.5 6.5h21q11 0 11 -11
l2 -156q0 -14 -14 -14h-22q-11 0 -18 12q-14 24 -24.5 39t-33 38t-54.5 35t-72 12q-44 0 -73 -22t-29 -59q0 -43 65 -92q70 -53 208 -129q131 -72 131 -189q0 -85 -67 -136t-171 -50q-49 1 -100 3t-68 2zM291 -205q0 11 -5.5 21.5t-10 15t-18.5 15.5t-18 14q-21 18 -2 42
q20 25 42 44t42 -1q31 -29 49 -51q13 -15 8 -40q-18 -98 -88 -162q-10 -10 -20 0l-16 16q-10 9 0 19q37 39 37 67z" />
    <glyph glyph-name="scommaaccent" unicode="&#x219;" horiz-adv-x="451" 
d="M132 1q-45 3 -78 -1q-13 -2 -13 11l-2 131q0 14 14 14h17q10 0 18 -11q70 -101 161 -101q29 0 47.5 12.5t18.5 33.5t-15.5 34.5t-55.5 33.5q-52 26 -104 59q-91 57 -91 132q0 56 40 88t104 32q29 0 70 -12.5t51 -12.5q11 0 22.5 6t18.5 6h14q11 0 11 -11l2 -117
q0 -14 -13 -14h-16q-10 0 -18 12q-68 94 -136 94q-21 0 -35 -11.5t-14 -29.5q0 -19 15 -34t45 -34q59 -36 110 -62q97 -50 97 -127q0 -60 -45 -96t-115 -36q-24 0 -73 5.5t-52 5.5zM214 -205q0 11 -5.5 21.5t-10 15t-18.5 15.5t-18 14q-21 18 -2 42q20 25 42 44t42 -1
q31 -29 49 -51q13 -15 8 -40q-18 -98 -88 -162q-10 -10 -20 0l-16 16q-9 9 0 19q37 39 37 67z" />
    <glyph glyph-name="Tcommaaccent" unicode="&#x21a;" horiz-adv-x="810" 
d="M464 659l1 -525q0 -38 23.5 -56t66.5 -25q14 -2 12 -15l-2 -26q-2 -12 -14 -12h-312q-12 0 -14 12l-2 26q-2 13 12 15q91 14 91 81l-1 525h-53q-47 0 -82.5 -8.5t-59.5 -24.5t-37.5 -30.5t-28.5 -36.5q-8 -12 -20 -12h-28q-6 0 -9 4.5t-1 9.5l53 166q5 13 17 13h25
q8 0 18 -10q9 -9 30 -9h562q24 0 37 11q10 8 19 8h27q6 0 9 -4.5t1 -10.5l-52 -167q-5 -11 -15 -11h-18q-12 0 -16 11q-12 31 -28.5 50.5t-57 35t-103.5 15.5h-50zM389 -205q0 11 -5.5 21.5t-10 15t-18.5 15.5t-18 14q-21 18 -2 42q20 25 42 44t42 -1q31 -29 49 -51
q13 -15 8 -40q-18 -98 -88 -162q-10 -10 -20 0l-16 16q-10 9 0 19q37 39 37 67z" />
    <glyph glyph-name="tcommaaccent" unicode="&#x21b;" horiz-adv-x="365" 
d="M208 456h129q6 0 9 -4t2 -10l-8 -37q-3 -12 -16 -12h-98l-17 1l-1 -280q0 -41 36 -41q14 0 36 13t35 26q5 5 11.5 4t9.5 -6l18 -25q7 -12 -3 -20q-87 -79 -159 -79q-50 0 -78 29t-27 78v242q0 25 -11 37.5t-36 18.5q-13 3 -14 15l-5 31q-1 12 9 19q93 61 150 164
q6 11 19 11h33q14 0 11 -14zM177 -205q0 11 -5.5 21.5t-10 15t-18.5 15.5t-18 14q-21 18 -2 42q20 25 42 44t42 -1q31 -29 49 -51q13 -15 8 -40q-18 -98 -88 -162q-10 -10 -20 0l-16 16q-10 9 0 19q37 39 37 67z" />
    <glyph glyph-name="circumflex" unicode="&#x2c6;" horiz-adv-x="500" 
d="M217 750h67q10 0 15 -10l101 -204q2 -5 -0.5 -9t-7.5 -4h-33q-10 0 -18 10l-91 115l-89 -115q-8 -10 -18 -10h-35q-5 0 -7.5 4t-0.5 9l102 204q5 10 15 10z" />
    <glyph glyph-name="caron" unicode="&#x2c7;" horiz-adv-x="500" 
d="M283 523h-66q-10 0 -15 10l-102 204q-2 5 0.5 9t7.5 4h35q10 0 18 -10l89 -114l91 114q8 10 18 10h33q5 0 7.5 -4t0.5 -9l-102 -204q-5 -10 -15 -10z" />
    <glyph glyph-name="breve" unicode="&#x2d8;" horiz-adv-x="446" 
d="M224 537q-43 0 -74 14.5t-47 39t-23 52t-7 58.5q0 12 11 12h31q11 0 13 -12q8 -71 96 -71t96 71q2 12 13 12h29q11 0 11 -12q1 -68 -34 -116t-115 -48z" />
    <glyph glyph-name="dotaccent" unicode="&#x2d9;" horiz-adv-x="320" 
d="M137 725q24 20 45 -1q30 -28 57 -57q21 -21 1 -44q-32 -34 -58 -57q-22 -19 -45 0q-27 22 -56 57q-22 22 -1 45q26 29 57 57z" />
    <glyph glyph-name="ring" unicode="&#x2da;" horiz-adv-x="354" 
d="M177 753q49 0 83 -32t34 -80t-34 -80t-83 -32t-83 32t-34 80t34 80t83 32zM177 580q25 0 43.5 17.5t18.5 43.5t-18.5 43.5t-43.5 17.5t-43.5 -17.5t-18.5 -43.5t18.5 -43.5t43.5 -17.5z" />
    <glyph glyph-name="ogonek" unicode="&#x2db;" horiz-adv-x="520" 
d="M261 7q12 7 21 7h30q6 0 8 -5t-3 -9q-102 -85 -101 -139q1 -33 39 -33q40 0 97 36q12 8 18 -3l9 -16q5 -10 -3 -18q-74 -74 -151 -74q-44 0 -71 22.5t-27 63.5q0 46 43 92t91 76z" />
    <glyph glyph-name="tilde" unicode="&#x2dc;" horiz-adv-x="487" 
d="M165 646q26 0 49 16t47.5 32t54.5 16q43 0 71.5 -36t31.5 -91q0 -13 -8 -18l-20 -12q-5 -3 -10.5 -1t-6.5 7q-10 51 -51 51q-24 0 -69 -31.5t-85 -31.5q-44 0 -71 35.5t-30 90.5q0 14 8 19l20 11q14 8 17 -6q14 -51 52 -51z" />
    <glyph glyph-name="hungarumlaut" unicode="&#x2dd;" horiz-adv-x="427" 
d="M92 533l1 207q0 10 10 10h105q5 0 7.5 -3.5t0.5 -8.5l-76 -206q-4 -9 -14 -9h-24q-10 0 -10 10zM256 533l1 207q0 10 10 10h102q5 0 7.5 -3.5t0.5 -8.5l-73 -206q-4 -9 -14 -9h-24q-10 0 -10 10z" />
    <glyph glyph-name="Delta" unicode="&#x394;" horiz-adv-x="610" 
d="M257 721h97q13 0 18 -12l199 -633q4 -12 4 -22v-41q0 -13 -14 -13h-512q-14 0 -14 13v41q0 10 4 22l200 633q5 12 18 12zM305 687l-188 -619h376z" />
    <glyph glyph-name="Delta" unicode="&#x2206;" horiz-adv-x="610" 
d="M257 721h97q13 0 18 -12l199 -633q4 -12 4 -22v-41q0 -13 -14 -13h-512q-14 0 -14 13v41q0 10 4 22l200 633q5 12 18 12zM305 687l-188 -619h376z" />
    <glyph glyph-name="Omega" unicode="&#x3a9;" horiz-adv-x="610" 
d="M305 676q-58 0 -95.5 -36t-44.5 -97q-11 -96 3 -181q5 -30 23 -73.5t50.5 -111t47.5 -103.5q4 -9 4 -22v-40q0 -12 -12 -12h-159q-12 0 -19 10l-52 86q-5 8 -5 19v19q0 12 12 12h17q11 0 20 -9q31 -36 77 -36h43q-9 27 -37 72.5t-54.5 86t-48 97t-21.5 108.5
q0 118 68 193.5t183 75.5t183 -75.5t68 -193.5q0 -52 -21.5 -108.5t-48 -97t-54.5 -86t-37 -72.5h43q46 0 77 36q9 9 20 9h17q12 0 12 -12v-19q0 -11 -5 -19l-52 -86q-7 -10 -19 -10h-159q-12 0 -12 12v40q0 13 4 22q15 36 47.5 103.5t50.5 111t23 73.5q14 85 3 181
q-7 61 -44.5 97t-95.5 36z" />
    <glyph glyph-name="Omega" unicode="&#x2126;" horiz-adv-x="610" 
d="M305 676q-58 0 -95.5 -36t-44.5 -97q-11 -96 3 -181q5 -30 23 -73.5t50.5 -111t47.5 -103.5q4 -9 4 -22v-40q0 -12 -12 -12h-159q-12 0 -19 10l-52 86q-5 8 -5 19v19q0 12 12 12h17q11 0 20 -9q31 -36 77 -36h43q-9 27 -37 72.5t-54.5 86t-48 97t-21.5 108.5
q0 118 68 193.5t183 75.5t183 -75.5t68 -193.5q0 -52 -21.5 -108.5t-48 -97t-54.5 -86t-37 -72.5h43q46 0 77 36q9 9 20 9h17q12 0 12 -12v-19q0 -11 -5 -19l-52 -86q-7 -10 -19 -10h-159q-12 0 -12 12v40q0 13 4 22q15 36 47.5 103.5t50.5 111t23 73.5q14 85 3 181
q-7 61 -44.5 97t-95.5 36z" />
    <glyph glyph-name="pi" unicode="&#x3c0;" horiz-adv-x="610" 
d="M449 327l-25 -228q-2 -18 6.5 -29t26.5 -11q27 0 73 40q12 10 20 -3l18 -25q6 -10 -3 -20q-59 -61 -131 -61q-65 0 -93 33t-21 90l33 257l6 18h-155v-374q0 -14 -13 -14h-75q-13 0 -13 12v325q-2 32 -15.5 48.5t-44.5 22.5q-13 3 -12 15l2 21q2 12 14 12h458q12 0 14 -12
l2 -21q1 -12 -12 -15q-30 -6 -42.5 -24t-17.5 -57z" />
    <glyph glyph-name="Wgrave" unicode="&#x1e80;" horiz-adv-x="1147" 
d="M693 597l146 -406l127 406q11 29 2 47t-43 24q-13 3 -12 15l2 26q2 12 14 12h196q12 0 14 -12l2 -26q2 -13 -12 -15q-35 -6 -55 -24.5t-34 -56.5l-199 -576q-4 -11 -15 -11h-38q-11 0 -15 11l-203 524l-195 -524q-4 -11 -15 -11h-38q-11 0 -15 11l-207 576q-15 39 -32 57
t-50 24q-14 3 -12 15l2 26q2 12 14 12h256q12 0 14 -12l2 -26q2 -12 -12 -15q-61 -10 -40 -71l131 -406l142 406q11 29 2 47t-43 24q-14 3 -12 15l2 26q2 12 14 12h251q12 0 14 -12l2 -26q1 -12 -12 -15q-61 -10 -40 -71zM623 961l1 -180q0 -11 -11 -11h-26q-10 0 -14 9
l-92 180q-2 4 0 8t7 4h125q10 0 10 -10z" />
    <glyph glyph-name="wgrave" unicode="&#x1e81;" horiz-adv-x="818" 
d="M716 321l-122 -310q-5 -11 -16 -11h-25q-11 0 -16 12l-127 270l-114 -271q-5 -11 -16 -11h-25q-11 0 -16 12l-141 309q-19 37 -35 55.5t-47 31.5q-12 4 -10 16l2 20q2 12 14 12h223q12 0 14 -12l2 -20q1 -12 -10 -16q-22 -8 -31 -26.5t2 -46.5l75 -182l73 182
q10 26 -1.5 45.5t-33.5 27.5q-11 4 -10 16l2 20q2 12 14 12h197q12 0 14 -12l2 -20q1 -12 -10 -16q-22 -8 -31 -26.5t2 -46.5l80 -181l68 181q9 28 0.5 46.5t-29.5 26.5q-11 4 -10 16l2 20q2 12 14 12h156q12 0 14 -12l2 -20q2 -12 -10 -16q-33 -14 -53 -33.5t-33 -53.5z
M457 740l1 -207q0 -10 -10 -10h-26q-10 0 -14 9l-87 206q-2 4 -0.5 8t6.5 4h120q10 0 10 -10z" />
    <glyph glyph-name="Wacute" unicode="&#x1e82;" horiz-adv-x="1147" 
d="M693 597l146 -406l127 406q11 29 2 47t-43 24q-13 3 -12 15l2 26q2 12 14 12h196q12 0 14 -12l2 -26q2 -13 -12 -15q-35 -6 -55 -24.5t-34 -56.5l-199 -576q-4 -11 -15 -11h-38q-11 0 -15 11l-203 524l-195 -524q-4 -11 -15 -11h-38q-11 0 -15 11l-207 576q-15 39 -32 57
t-50 24q-14 3 -12 15l2 26q2 12 14 12h256q12 0 14 -12l2 -26q2 -12 -12 -15q-61 -10 -40 -71l131 -406l142 406q11 29 2 47t-43 24q-14 3 -12 15l2 26q2 12 14 12h251q12 0 14 -12l2 -26q1 -12 -12 -15q-61 -10 -40 -71zM574 781l1 180q0 10 10 10h125q5 0 7 -4t0 -8
l-92 -180q-4 -9 -14 -9h-26q-11 0 -11 11z" />
    <glyph glyph-name="wacute" unicode="&#x1e83;" horiz-adv-x="818" 
d="M716 321l-122 -310q-5 -11 -16 -11h-25q-11 0 -16 12l-127 270l-114 -271q-5 -11 -16 -11h-25q-11 0 -16 12l-141 309q-19 37 -35 55.5t-47 31.5q-12 4 -10 16l2 20q2 12 14 12h223q12 0 14 -12l2 -20q1 -12 -10 -16q-22 -8 -31 -26.5t2 -46.5l75 -182l73 182
q10 26 -1.5 45.5t-33.5 27.5q-11 4 -10 16l2 20q2 12 14 12h197q12 0 14 -12l2 -20q1 -12 -10 -16q-22 -8 -31 -26.5t2 -46.5l80 -181l68 181q9 28 0.5 46.5t-29.5 26.5q-11 4 -10 16l2 20q2 12 14 12h156q12 0 14 -12l2 -20q2 -12 -10 -16q-33 -14 -53 -33.5t-33 -53.5z
M416 533l1 207q0 10 10 10h120q5 0 6.5 -4t-0.5 -8l-87 -206q-4 -9 -14 -9h-26q-10 0 -10 10z" />
    <glyph glyph-name="Wdieresis" unicode="&#x1e84;" horiz-adv-x="1147" 
d="M693 597l146 -406l127 406q11 29 2 47t-43 24q-13 3 -12 15l2 26q2 12 14 12h196q12 0 14 -12l2 -26q2 -13 -12 -15q-35 -6 -55 -24.5t-34 -56.5l-199 -576q-4 -11 -15 -11h-38q-11 0 -15 11l-203 524l-195 -524q-4 -11 -15 -11h-38q-11 0 -15 11l-207 576q-15 39 -32 57
t-50 24q-14 3 -12 15l2 26q2 12 14 12h256q12 0 14 -12l2 -26q2 -12 -12 -15q-61 -10 -40 -71l131 -406l142 406q11 29 2 47t-43 24q-14 3 -12 15l2 26q2 12 14 12h251q12 0 14 -12l2 -26q1 -12 -12 -15q-61 -10 -40 -71zM471 932q22 19 42 0q13 -11 50 -51q21 -23 1 -44
q-34 -36 -51 -51q-23 -18 -42 0q-20 16 -50 51q-19 22 -1 45q32 35 51 50zM695 932q22 19 42 0q23 -20 50 -51q21 -23 1 -44q-24 -27 -51 -51q-23 -18 -42 0q-23 20 -50 51q-20 23 -1 45q25 29 51 50z" />
    <glyph glyph-name="wdieresis" unicode="&#x1e85;" horiz-adv-x="818" 
d="M716 321l-122 -310q-5 -11 -16 -11h-25q-11 0 -16 12l-127 270l-114 -271q-5 -11 -16 -11h-25q-11 0 -16 12l-141 309q-19 37 -35 55.5t-47 31.5q-12 4 -10 16l2 20q2 12 14 12h223q12 0 14 -12l2 -20q1 -12 -10 -16q-22 -8 -31 -26.5t2 -46.5l75 -182l73 182
q10 26 -1.5 45.5t-33.5 27.5q-11 4 -10 16l2 20q2 12 14 12h197q12 0 14 -12l2 -20q1 -12 -10 -16q-22 -8 -31 -26.5t2 -46.5l80 -181l68 181q9 28 0.5 46.5t-29.5 26.5q-11 4 -10 16l2 20q2 12 14 12h156q12 0 14 -12l2 -20q2 -12 -10 -16q-33 -14 -53 -33.5t-33 -53.5z
M312 713q22 20 43 -1q30 -28 51 -52q19 -23 1 -44q-27 -29 -52 -52q-22 -19 -43 0q-20 18 -51 52q-20 23 -1 45q22 26 52 52zM519 713q22 20 43 -1q30 -28 51 -52q19 -23 1 -44q-27 -29 -52 -52q-22 -19 -43 0q-20 18 -51 52q-20 23 -1 45q22 26 52 52z" />
    <glyph glyph-name="Ygrave" unicode="&#x1ef2;" horiz-adv-x="665" 
d="M274 346v-212q0 -39 -20 -57t-61 -24q-14 -2 -12 -15l2 -26q2 -12 14 -12h289q12 0 14 12l2 26q2 13 -12 15q-41 6 -61 24t-20 57l-1 233l125 220q40 70 114 81q14 2 12 15l-2 26q-2 12 -14 12h-216q-12 0 -14 -12l-2 -26q-2 -13 12 -15q73 -11 41 -71l-98 -181l-105 181
q-18 24 -9 44.5t46 26.5q14 2 12 15l-2 26q-2 12 -14 12h-272q-12 0 -14 -12l-2 -26q-2 -12 12 -15q53 -11 97 -81zM384 961l1 -180q0 -11 -11 -11h-26q-10 0 -14 9l-92 180q-2 4 0 8t7 4h125q10 0 10 -10z" />
    <glyph glyph-name="ygrave" unicode="&#x1ef3;" horiz-adv-x="525" 
d="M154 -172q13 -7 20 5l249 488q18 35 36.5 54.5t49.5 32.5q12 4 10 16l-2 20q-2 12 -14 12h-163q-12 0 -14 -12l-2 -20q-1 -12 10 -16q21 -8 29.5 -27t-2.5 -46l-63 -140l-71 138q-13 26 -5 46.5t29 28.5q11 4 10 16l-2 20q-2 12 -14 12h-223q-12 0 -14 -12l-2 -20
q-1 -10 10 -16q27 -15 44.5 -33.5t37.5 -53.5l134 -242l-117 -213q-7 -13 5 -20zM311 740l1 -207q0 -10 -10 -10h-26q-10 0 -14 9l-87 206q-2 4 -0.5 8t6.5 4h120q10 0 10 -10z" />
    <glyph glyph-name="endash" unicode="&#x2013;" horiz-adv-x="750" 
d="M650 207h-582q-10 0 -15 6.5t-1 16.5l19 55q7 19 29 19h582q10 0 15 -6.5t1 -16.5l-19 -55q-7 -19 -29 -19z" />
    <glyph glyph-name="emdash" unicode="&#x2014;" horiz-adv-x="1065" 
d="M980 207h-927q-10 0 -15 6.5t-1 16.5l19 55q7 19 29 19h927q10 0 15 -6.5t1 -16.5l-19 -55q-7 -19 -29 -19z" />
    <glyph glyph-name="quoteleft" unicode="&#x2018;" horiz-adv-x="256" 
d="M152 565q0 -37 44 -85q21 -25 3 -47q-25 -32 -50 -54q-23 -21 -47 0q-44 37 -61 59q-13 18 -7 45q37 146 148 248q11 11 23 -1l18 -18q11 -12 0 -23q-26 -26 -38 -40t-22.5 -36.5t-10.5 -47.5z" />
    <glyph glyph-name="quoteright" unicode="&#x2019;" horiz-adv-x="256" 
d="M104 539q0 37 -44 85q-21 25 -3 47q25 32 50 54q23 21 47 0q44 -37 61 -59q13 -18 7 -45q-37 -146 -148 -248q-11 -11 -23 1l-18 18q-11 12 0 23q26 26 38 40t22.5 36.5t10.5 47.5z" />
    <glyph glyph-name="quotesinglbase" unicode="&#x201a;" horiz-adv-x="256" 
d="M99 30q0 37 -44 85q-21 25 -3 47q25 32 50 54q23 21 47 0q44 -37 61 -59q13 -18 7 -45q-37 -146 -148 -248q-11 -11 -23 1l-18 18q-12 11 0 23q26 26 38 40t22.5 36.5t10.5 47.5z" />
    <glyph glyph-name="quotedblleft" unicode="&#x201c;" horiz-adv-x="497" 
d="M388 565q0 -37 44 -85q21 -25 3 -47q-25 -32 -50 -54q-23 -21 -47 0q-44 37 -61 59q-13 18 -7 45q37 146 148 248q11 11 23 -1l18 -18q11 -12 0 -23q-26 -26 -38 -40t-22.5 -36.5t-10.5 -47.5zM166 565q0 -37 44 -85q21 -25 3 -47q-25 -32 -50 -54q-23 -21 -47 0
q-44 37 -61 59q-13 18 -7 45q37 146 148 248q11 11 23 -1l18 -18q11 -12 0 -23q-26 -26 -38 -40t-22.5 -36.5t-10.5 -47.5z" />
    <glyph glyph-name="quotedblright" unicode="&#x201d;" horiz-adv-x="497" 
d="M114 539q0 37 -44 85q-21 25 -3 47q25 32 50 54q23 21 47 0q44 -37 61 -59q13 -18 7 -45q-37 -146 -148 -248q-11 -11 -23 1l-18 18q-11 12 0 23q26 26 38 40t22.5 36.5t10.5 47.5zM336 539q0 37 -44 85q-21 25 -3 47q25 32 50 54q23 21 47 0q44 -37 61 -59q13 -18 7 -45
q-37 -146 -148 -248q-11 -11 -23 1l-18 18q-11 12 0 23q26 26 38 40t22.5 36.5t10.5 47.5z" />
    <glyph glyph-name="quotedblbase" unicode="&#x201e;" horiz-adv-x="497" 
d="M109 30q0 37 -44 85q-21 25 -3 47q25 32 50 54q23 21 47 0q44 -37 61 -59q13 -18 7 -45q-37 -146 -148 -248q-11 -11 -23 1l-18 18q-12 11 0 23q26 26 38 40t22.5 36.5t10.5 47.5zM331 30q0 37 -44 85q-21 25 -3 47q25 32 50 54q23 21 47 0q44 -37 61 -59q13 -18 7 -45
q-37 -146 -148 -248q-11 -11 -23 1l-18 18q-12 11 0 23q26 26 38 40t22.5 36.5t10.5 47.5z" />
    <glyph glyph-name="dagger" unicode="&#x2020;" horiz-adv-x="456" 
d="M158 36q10 43 27.5 191.5t17.5 263.5q-32 -7 -59 -17.5t-49.5 -22t-28.5 -14.5q-14 -5 -25 2.5t-11 23.5v99q0 16 11 23.5t25 2.5q6 -3 28.5 -14.5t49.5 -22t59 -17.5q-5 26 -12.5 52t-13 40t-14 34.5t-10.5 24.5q-5 14 2.5 25t23.5 11h99q16 0 23.5 -11t2.5 -25
q-2 -4 -10.5 -24.5t-14 -34.5t-13 -40t-12.5 -52q32 7 58.5 17.5t49 22t28.5 14.5q14 5 25 -2.5t11 -23.5v-99q0 -16 -11 -23.5t-25 -2.5q-8 3 -29 14.5t-48.5 22t-58.5 17.5q0 -115 17.5 -263.5t27.5 -191.5q3 -14 -3.5 -25t-22.5 -11h-89q-16 0 -22.5 11t-3.5 25z" />
    <glyph glyph-name="daggerdbl" unicode="&#x2021;" horiz-adv-x="456" 
d="M153 36q0 1 9.5 23t14.5 35.5t13 39.5t13 52q-32 -7 -59 -17.5t-49.5 -22t-28.5 -14.5q-14 -5 -25 2.5t-11 23.5v99q0 16 11 23.5t25 2.5q6 -2 29 -14t50 -22.5t59 -17.5q-5 22 -5.5 131t5.5 131q-32 -7 -59 -17.5t-50 -22.5t-29 -14q-14 -5 -25 2.5t-11 23.5v99
q0 16 11 23.5t25 2.5q6 -3 28.5 -14.5t49.5 -22t59 -17.5q-5 26 -12.5 52t-13 40t-14 34.5t-10.5 24.5q-5 14 2.5 25t23.5 11h99q16 0 23.5 -11t2.5 -25q-2 -4 -10.5 -24.5t-14 -34.5t-13 -40t-12.5 -52q32 7 58.5 17.5t49 22t28.5 14.5q14 5 25 -2.5t11 -23.5v-99
q0 -16 -11 -23.5t-25 -2.5q-8 3 -29.5 14.5t-49 22t-58.5 17.5q5 -22 5 -130.5t-5 -131.5q32 7 58.5 17.5t49.5 22l29 14.5q14 5 25 -2.5t11 -23.5v-99q0 -16 -11 -23.5t-25 -2.5q-8 3 -29 14.5t-48.5 22t-58.5 17.5q5 -26 13 -52t13 -39.5t14.5 -35.5t9.5 -23
q5 -14 -2.5 -25t-23.5 -11h-99q-16 0 -23.5 11t-2.5 25z" />
    <glyph glyph-name="bullet" unicode="&#x2022;" horiz-adv-x="436" 
d="M218 467q69 0 117.5 -47.5t48.5 -115.5t-48.5 -115.5t-117.5 -47.5t-117.5 47.5t-48.5 115.5t48.5 115.5t117.5 47.5z" />
    <glyph glyph-name="ellipsis" unicode="&#x2026;" horiz-adv-x="1028" 
d="M131 169q25 21 47 -1q32 -31 61 -61q22 -22 1 -47q-22 -23 -61 -60q-23 -22 -48 0l-18 18t-24 23.5t-18 18.5q-22 26 0 48q23 26 60 61zM490 179q25 21 47 -1q32 -30 61 -61q22 -22 1 -47q-22 -23 -61 -60q-23 -22 -48 0l-18 18t-24 23.5t-18 18.5q-22 26 0 48
q23 26 60 61zM849 169q25 21 47 -1q32 -30 61 -61q22 -22 1 -47q-22 -23 -61 -60q-23 -22 -48 0l-18 18t-24 23.5t-18 18.5q-22 26 0 48q23 26 60 61z" />
    <glyph glyph-name="perthousand" unicode="&#x2030;" horiz-adv-x="957" 
d="M553 -10q-62 0 -104.5 53t-42.5 129q0 74 39.5 119t101.5 45q31 0 61.5 -18t51.5 -50q47 68 114 68q62 0 99.5 -43.5t37.5 -117.5q0 -77 -41 -131t-102 -54q-72 0 -108 48q-38 -48 -107 -48zM369 560q0 -76 -47 -124t-120 -48q-72 0 -119 51t-47 128q0 75 46 121t120 46
q69 0 118 -49.5t49 -124.5zM53 16l575 692q10 13 24 13h48q6 0 8.5 -5.5t-1.5 -10.5l-575 -692q-9 -13 -24 -13h-48q-6 0 -8.5 6t1.5 10zM126 529q20 -49 52 -70t68 -8q33 13 40.5 54t-13.5 90q-18 49 -52 70.5t-67 7.5t-41 -54.5t13 -89.5zM491 131q17 -49 42.5 -70
t53.5 -8q26 13 32.5 54t-10.5 90q-15 49 -41.5 70t-54.5 8q-27 -13 -33 -54t11 -90zM830 131q17 49 11 90t-33 54q-28 13 -54.5 -8t-41.5 -70q-16 -49 -10 -90t32 -54q28 -13 53.5 8t42.5 70z" />
    <glyph glyph-name="guilsinglleft" unicode="&#x2039;" 
d="M134 286l200 -149q11 -9 11 -22v-62q0 -6 -5.5 -8t-10.5 2l-266 200q-8 6 -8 15v48q0 9 8 15l266 200q5 4 10.5 2t5.5 -8v-61q0 -13 -11 -22z" />
    <glyph glyph-name="guilsinglright" unicode="&#x203a;" 
d="M66 137l200 149l-200 150q-11 9 -11 22v61q0 6 5.5 8t10.5 -2l266 -200q8 -6 8 -15v-48q0 -9 -8 -15l-266 -200q-5 -4 -10.5 -2t-5.5 8v62q0 13 11 22z" />
    <glyph glyph-name="interrobang" unicode="&#x203d;" horiz-adv-x="461" 
d="M375 376q4 -40 -20.5 -65.5t-64.5 -25.5t-63 25.5t-23 63.5q0 37 13.5 69.5t30.5 53t31 49t14 58.5q0 33 -22 53t-54 20t-50 -22t-16 -54q5 -71 15.5 -168t18.5 -159l8 -61q1 -6 -3 -10t-10 -4h-18q-13 0 -16 13q-64 205 -92 347q-15 76 32 127.5t133 51.5
q81 0 136.5 -37.5t55.5 -103.5q0 -32 -15 -58.5t-37 -45.5t-44 -37t-37 -39t-15 -44q0 -36 31 -36q34 0 31 38q-1 6 3 10.5t11 4.5h22q12 0 14 -14zM205 155q23 21 45 -1q29 -28 55 -55q23 -23 1 -44q-24 -29 -56 -55q-22 -22 -45 0q-38 35 -54 55q-22 22 -1 45q25 28 55 55
z" />
    <glyph glyph-name="asterism" unicode="&#x2042;" horiz-adv-x="965" 
d="M422 417q32 79 40 120q-26 -5 -47.5 -13.5t-39.5 -18t-23 -11.5q-11 -4 -19.5 2t-8.5 19v79q0 13 8.5 19.5t19.5 1.5q5 -2 23 -11.5t39.5 -18t47.5 -13.5q-4 21 -10 41.5t-10.5 32t-11.5 28t-8 19.5q-5 11 1.5 19.5t19.5 8.5h79q13 0 19 -8.5t2 -19.5q-1 -3 -8 -19.5
t-11.5 -28t-10.5 -32t-10 -41.5q25 5 46.5 13.5t39.5 18t23 11.5q11 5 19.5 -1.5t8.5 -19.5v-79q0 -13 -8.5 -19t-19.5 -2q-7 2 -23.5 11t-38.5 18t-47 14q8 -41 40 -120q4 -11 -2 -19.5t-19 -8.5h-79q-13 0 -19.5 8.5t-1.5 19.5zM158 28q32 79 40 120q-26 -5 -47.5 -13.5
t-39.5 -18t-23 -11.5q-11 -4 -19.5 2t-8.5 19v79q0 13 8.5 19.5t19.5 1.5q5 -2 23 -11.5t39.5 -18t47.5 -13.5q-4 21 -10 41.5t-10.5 32t-11.5 28t-8 19.5q-5 11 1.5 19.5t19.5 8.5h79q13 0 19 -8.5t2 -19.5q-1 -3 -8 -19.5t-11.5 -28t-10.5 -32t-10 -41.5q25 5 46.5 13.5
t39.5 18t23 11.5q11 5 19.5 -1.5t8.5 -19.5v-79q0 -13 -8.5 -19t-19.5 -2q-7 2 -23.5 11t-38.5 18t-47 14q8 -41 40 -120q4 -11 -2 -19.5t-19 -8.5h-79q-13 0 -19.5 8.5t-1.5 19.5zM687 28q32 79 40 120q-26 -5 -47.5 -13.5t-39.5 -18t-23 -11.5q-11 -4 -19.5 2t-8.5 19v79
q0 13 8.5 19.5t19.5 1.5q5 -2 23 -11.5t39.5 -18t47.5 -13.5q-4 21 -10 41.5t-10.5 32t-11.5 28t-8 19.5q-5 11 1.5 19.5t19.5 8.5h79q13 0 19 -8.5t2 -19.5q-1 -3 -8 -19.5t-11.5 -28t-10.5 -32t-10 -41.5q25 5 46.5 13.5t39.5 18t23 11.5q11 5 19.5 -1.5t8.5 -19.5v-79
q0 -13 -8.5 -19t-19.5 -2q-7 2 -23.5 11t-38.5 18t-47 14q8 -41 40 -120q4 -11 -2 -19.5t-19 -8.5h-79q-13 0 -19.5 8.5t-1.5 19.5z" />
    <glyph glyph-name="fraction" unicode="&#x2044;" horiz-adv-x="660" 
d="M8 16l572 692q10 13 24 13h43q6 0 8.5 -5.5t-1.5 -10.5l-572 -692q-11 -13 -24 -13h-43q-6 0 -8.5 6t1.5 10z" />
    <glyph glyph-name="zerosuperior" unicode="&#x2070;" 
d="M37 721q0 98 45.5 153.5t117.5 55.5q69 0 116 -57t47 -152q0 -92 -47 -148.5t-116 -56.5q-71 0 -117 55.5t-46 149.5zM101 696q20 -61 60.5 -90t86.5 -14q45 15 57.5 62.5t-8.5 104.5q-21 58 -61 85t-84 13q-45 -15 -58 -59.5t7 -101.5z" />
    <glyph glyph-name="foursuperior" unicode="&#x2074;" 
d="M36 638l-10 39q-3 11 4 20l175 211q7 9 18 9h54q11 0 11 -11v-225h70q11 0 11 -10v-33q0 -10 -11 -10h-70q0 -31 15 -42.5t50 -17.5q10 0 10 -12l-2 -16q-2 -10 -11 -10h-214q-9 0 -11 10l-2 16q-2 12 10 12q36 6 52 18t16 42h-151q-11 0 -14 10zM202 838l-124 -157h124
v157z" />
    <glyph glyph-name="fivesuperior" unicode="&#x2075;" 
d="M72 741l11 167q0 9 10 9h24q4 0 32 -7.5t48 -7.5q45 0 99 27q10 6 17 -1l11 -13q5 -7 0 -15q-77 -103 -201 -43l-7 -90q52 32 100 32q62 0 96 -30.5t34 -85.5q0 -62 -53.5 -112t-121.5 -50q-62 0 -97 23t-42 57q-6 28 18 40l72 37q4 2 8.5 0t4.5 -7v-17q0 -10 -3 -17
q-16 -29 -6 -50.5t48 -21.5q37 0 66.5 29.5t29.5 69.5q0 76 -81 76q-29 0 -84 -30q-9 -4 -16 3l-11 11q-6 8 -6 17z" />
    <glyph glyph-name="sixsuperior" unicode="&#x2076;" 
d="M127 670q0 -46 25 -77t65 -31q29 0 46 19t17 50q0 48 -24 79.5t-64 31.5q-29 0 -47 -20.5t-18 -51.5zM335 884q10 -11 6.5 -23t-15.5 -16l-81 -26q-4 -2 -8 0t-4 6v14q0 10 4 16q11 15 5 27.5t-28 12.5q-50 0 -78 -48t-23 -113q44 61 113 61q58 0 94.5 -37t36.5 -100
q0 -62 -40 -102t-102 -40q-80 0 -128 57.5t-48 139.5q0 95 51.5 156t127.5 61q71 0 117 -46z" />
    <glyph glyph-name="sevensuperior" unicode="&#x2077;" 
d="M202 541q0 -11 -9 -11h-81q-5 0 -8 3.5t-2 7.5q13 60 57 124t87.5 111.5t48.5 58.5l-117 -2q-54 0 -84 -50q-5 -10 -16 -5l-15 8q-6 3 -6 14v122q0 13 16 6q25 -11 68 -11h211q10 0 10 -10v-31q0 -10 -4 -18q-7 -12 -56 -78t-76.5 -125t-23.5 -114z" />
    <glyph glyph-name="eightsuperior" unicode="&#x2078;" 
d="M280 618q0 23 -15.5 37.5t-54.5 30.5t-49 22q-36 -17 -52 -35t-16 -44q0 -28 27 -47t69 -19t66.5 16t24.5 39zM226 785q42 22 42 50q0 25 -21.5 41t-55.5 16q-57 0 -57 -38q0 -9 4 -16t15 -14.5t18.5 -11.5t26.5 -13.5t28 -13.5zM125 732q-76 43 -76 98q0 49 42 74.5
t101 25.5q57 0 97.5 -25.5t40.5 -63.5q0 -50 -67 -76q54 -22 79 -49.5t25 -72.5q0 -52 -52.5 -89.5t-126.5 -37.5q-67 0 -113.5 32t-46.5 77q0 72 97 107z" />
    <glyph glyph-name="ninesuperior" unicode="&#x2079;" 
d="M273 784q0 45 -26 75t-69 30q-31 0 -51 -21t-20 -53q0 -48 26 -77.5t69 -28.5q30 1 50.5 21.5t20.5 53.5zM57 562q-10 11 -7 23t15 16l85 26q4 2 8 0t4 -6v-14q0 -8 -4 -16q-10 -17 -2.5 -27.5t29.5 -10.5q51 0 79 47t24 111q-41 -60 -121 -60q-62 0 -101 37.5t-39 100.5
q0 62 44 101.5t110 39.5q83 0 136.5 -57t53.5 -138q0 -95 -55 -157t-136 -62q-77 0 -123 46z" />
    <glyph glyph-name="zeroinferior" unicode="&#x2080;" 
d="M42 -5q0 98 45.5 153.5t117.5 55.5q69 0 116 -57t47 -152q0 -92 -47 -148.5t-116 -56.5q-71 0 -117 55.5t-46 149.5zM106 -30q20 -61 60.5 -90t86.5 -14q45 15 57.5 62.5t-8.5 104.5q-21 58 -61 85t-84 13q-45 -15 -58 -59.5t7 -101.5z" />
    <glyph glyph-name="oneinferior" unicode="&#x2081;" 
d="M84 114q48 26 97 69q10 8 19 8h40q10 -1 10 -11l-1 -273q0 -31 16 -45t50 -20q10 0 10 -12l-2 -16q-2 -10 -11 -10h-213q-9 0 -11 10l-2 16q-2 12 10 12q33 6 49.5 20t16.5 45v141q0 35 -39 32l-29 -3q-11 -2 -14 9l-3 14q-1 10 7 14z" />
    <glyph glyph-name="twoinferior" unicode="&#x2082;" 
d="M34 -185v15q0 10 5 18q48 81 156 154q59 39 59 79q0 27 -16.5 41.5t-42.5 14.5q-20 0 -40 -10.5t-32.5 -22t-33.5 -33.5q-9 -11 -20 -2l-16 15q-9 7 -1 19q37 48 76.5 74.5t92.5 26.5q57 0 90.5 -28.5t33.5 -77.5q0 -44 -32 -77t-96 -65q-54 -27 -100 -69l105 2
q32 1 48.5 7t40.5 27q7 7 16 7h20q10 0 10 -9v-17q0 -10 -4 -15l-58 -77q-5 -8 -15 -8h-236q-10 0 -10 11z" />
    <glyph glyph-name="threeinferior" unicode="&#x2083;" 
d="M158 -210q-64 0 -97 21t-33 51q0 23 21 38l70 47q4 2 8 0.5t4 -6.5v-17q0 -11 -4 -17q-9 -13 -10.5 -28.5t10 -29t39.5 -13.5q40 0 71 29.5t31 67.5q0 46 -39 55.5t-94 -5.5q-4 -1 -7.5 2t-3.5 8v23q0 10 11 12l20 4q39 8 61.5 28t22.5 44q0 44 -52 44q-46 0 -99 -51
q-10 -9 -19 0l-13 15q-10 10 0 19q39 37 75 55t84 18q46 0 73.5 -20.5t27.5 -58.5q0 -60 -83 -92q58 9 92 -14.5t34 -72.5q0 -62 -63.5 -109t-137.5 -47z" />
    <glyph glyph-name="fourinferior" unicode="&#x2084;" 
d="M36 -88l-10 39q-3 11 4 20l175 211q7 9 18 9h54q11 0 11 -11v-225h70q11 0 11 -10v-33q0 -10 -11 -10h-70q0 -31 15 -42.5t50 -17.5q10 0 10 -12l-2 -16q-2 -10 -11 -10h-214q-9 0 -11 10l-2 16q-2 12 10 12q36 6 52 18t16 42h-151q-11 0 -14 10zM202 112l-124 -157h124
v157z" />
    <glyph glyph-name="fiveinferior" unicode="&#x2085;" 
d="M72 10l11 167q0 9 10 9h24q4 0 32 -7.5t48 -7.5q45 0 99 27q10 6 17 -1l11 -13q5 -7 0 -15q-77 -103 -201 -43l-7 -90q52 32 100 32q62 0 96 -30.5t34 -85.5q0 -62 -53.5 -112t-121.5 -50q-62 0 -97 23t-42 57q-6 28 18 40l72 37q4 2 8.5 0t4.5 -7v-17q0 -9 -3 -17
q-16 -29 -6 -50.5t48 -21.5q37 0 66.5 29.5t29.5 69.5q0 76 -81 76q-29 0 -84 -30q-9 -4 -16 3l-11 11q-6 8 -6 17z" />
    <glyph glyph-name="sixinferior" unicode="&#x2086;" 
d="M126 -56q0 -46 25 -77t65 -31q29 0 46 19t17 50q0 48 -24 79.5t-64 31.5q-29 0 -47 -20.5t-18 -51.5zM334 158q10 -11 6.5 -23t-15.5 -16l-81 -26q-4 -2 -8 0t-4 6v14q0 10 4 16q11 15 5 27.5t-28 12.5q-50 0 -78 -48t-23 -113q44 61 113 61q58 0 94.5 -37t36.5 -100
q0 -62 -40 -102t-102 -40q-80 0 -128 57.5t-48 139.5q0 95 51.5 156t127.5 61q71 0 117 -46z" />
    <glyph glyph-name="seveninferior" unicode="&#x2087;" 
d="M202 -185q0 -11 -9 -11h-81q-5 0 -8 3.5t-2 7.5q13 60 57 124t87.5 111.5t48.5 58.5l-117 -2q-54 0 -84 -50q-5 -10 -16 -5l-15 8q-6 3 -6 14v122q0 13 16 6q25 -11 68 -11h211q10 0 10 -10v-31q0 -10 -4 -18q-7 -12 -56 -78t-76.5 -125t-23.5 -114z" />
    <glyph glyph-name="eightinferior" unicode="&#x2088;" 
d="M280 -108q0 23 -15.5 37.5t-54.5 30.5t-49 22q-36 -17 -52 -35t-16 -44q0 -28 27 -47t69 -19t66.5 16t24.5 39zM226 59q42 22 42 50q0 25 -21.5 41t-55.5 16q-57 0 -57 -38q0 -9 4 -16t15 -14.5t18.5 -11.5t26.5 -13.5t28 -13.5zM125 6q-76 43 -76 98q0 49 42 74.5
t101 25.5q57 0 97.5 -25.5t40.5 -63.5q0 -50 -67 -76q54 -22 79 -49.5t25 -72.5q0 -52 -52.5 -89.5t-126.5 -37.5q-67 0 -113.5 32t-46.5 77q0 72 97 107z" />
    <glyph glyph-name="nineinferior" unicode="&#x2089;" 
d="M272 58q0 45 -26 75t-69 30q-31 0 -51 -21t-20 -53q0 -48 26 -77.5t69 -28.5q30 1 50.5 21.5t20.5 53.5zM56 -164q-10 11 -7 23t15 16l85 26q4 2 8 0t4 -6v-14q0 -8 -4 -16q-10 -17 -2.5 -27.5t29.5 -10.5q51 0 79 47t24 111q-41 -60 -121 -60q-62 0 -101 37.5t-39 100.5
q0 62 44 101.5t110 39.5q83 0 136.5 -57t53.5 -138q0 -95 -55 -157t-136 -62q-77 0 -123 46z" />
    <glyph glyph-name="Euro" unicode="&#x20ac;" horiz-adv-x="660" 
d="M178 456h190q14 0 14 -13v-42q0 -13 -14 -13h-191q1 -31 8 -68h183q14 0 14 -13v-42q0 -13 -14 -13h-167q25 -80 73.5 -127t117.5 -47q82 0 125 49t74 140q5 14 19 8l32 -15q10 -5 7 -17q-15 -57 -35.5 -101.5t-53 -82.5t-81 -58.5t-110.5 -20.5q-107 0 -182 76t-102 196
h-61q-14 0 -14 13v42q0 13 14 13h51q-2 28 -2 43v25h-49q-14 0 -14 13v42q0 13 14 13h56q19 126 90 205.5t189 79.5q57 0 112.5 -15.5t58.5 -15.5q11 0 21.5 5.5t19.5 5.5h21q11 0 11 -11l2 -229q0 -14 -14 -14h-30q-15 0 -19 13q-14 37 -24 60.5t-27 52.5t-34.5 45.5
t-43.5 28t-57 11.5q-80 0 -125.5 -62t-52.5 -160z" />
    <glyph glyph-name="trademark" unicode="&#x2122;" horiz-adv-x="1090" 
d="M370 332q11 -2 9 -11l-2 -19q-2 -8 -9 -8h-217q-9 0 -9 8l-2 20q-2 8 9 10q63 10 63 57v286h-5q-61 -3 -92.5 -23t-50.5 -52q-5 -8 -14 -8h-22q-9 0 -7 10l37 123q4 9 12 9h17q8 0 15 -7q6 -6 21 -6h536q8 0 10 -8l2 -19q2 -9 -9 -11q-26 -3 -34 -15.5t-1 -28.5l98 -221
l94 218q7 16 -1 30t-34 17q-10 2 -8 11l1 19q2 8 10 8h222q9 0 9 -8l2 -19q0 -10 -9 -11q-28 -4 -42 -16.5t-14 -39.5v-240q0 -27 13.5 -39t42.5 -16q9 -1 9 -11l-2 -19q0 -8 -9 -8h-199q-8 0 -10 8l-1 19q-2 9 8 11q29 4 42.5 16t13.5 39v216l-134 -314q-4 -8 -12 -8h-25
q-8 0 -12 8l-136 309v-211q0 -27 13.5 -39t43.5 -16q10 -2 8 -11l-2 -19q-2 -8 -10 -8h-161q-9 0 -9 8l-2 19q-2 9 9 11q29 4 42.5 16t13.5 39v224q-12 31 -40.5 47.5t-89.5 16.5h-50v-286q0 -27 15 -39.5t45 -17.5z" />
    <glyph glyph-name="partialdiff" unicode="&#x2202;" horiz-adv-x="610" 
d="M431 299q0 54 -30 90.5t-82 36.5q-77 0 -123 -68.5t-46 -173.5q0 -56 28 -91t79 -35q75 0 124.5 71.5t49.5 169.5zM101 639q41 102 170 102q87 0 152 -54t96 -139t30 -187q-2 -164 -83.5 -272.5t-206.5 -108.5q-102 0 -159 67t-57 177q0 112 73 197t185 85q53 0 93 -23
t61 -57q8 99 -42 178t-122 79q-34 0 -52 -22.5t-2 -58.5q4 -9 4 -21v-18q0 -5 -5 -8t-11 -1l-101 37q-16 5 -23 18t0 30z" />
    <glyph glyph-name="product" unicode="&#x220f;" horiz-adv-x="610" 
d="M430 653h-250v-761q0 -14 -13 -14h-76q-13 0 -13 12v818q0 13 14 13h426q14 0 14 -13v-818q0 -12 -13 -12h-76q-13 0 -13 14v761z" />
    <glyph glyph-name="summation" unicode="&#x2211;" horiz-adv-x="610" 
d="M390 289l-243 -354h137q85 0 138 30t109 100q9 13 22 6l20 -11q14 -6 7 -20l-97 -184q-3 -6 -10 -6t-11 5q-22 23 -61 23h-379q-12 0 -12 12v20q0 9 8 21l246 368l-246 369q-8 12 -8 21v20q0 12 12 12h379q39 0 61 23q4 5 11 5t10 -6l97 -184q7 -14 -7 -20l-20 -11
q-13 -7 -22 6q-56 71 -109.5 101.5t-137.5 30.5h-137l243 -357q8 -10 0 -20z" />
    <glyph glyph-name="minus" unicode="&#x2212;" horiz-adv-x="722" 
d="M74 366h574q14 0 14 -13v-42q0 -13 -14 -13h-574q-14 0 -14 13v42q0 13 14 13z" />
    <glyph glyph-name="radical" unicode="&#x221a;" horiz-adv-x="610" 
d="M17 456h122q15 0 18 -13l144 -509l228 773q3 14 17 14h52q6 0 9.5 -5t1.5 -11l-248 -815q-3 -12 -18 -12h-86q-15 0 -18 12l-143 487l-19 -1h-42q-15 0 -18 13l-11 53q-1 6 2 10t9 4z" />
    <glyph glyph-name="infinity" unicode="&#x221e;" horiz-adv-x="722" 
d="M361 269q-74 -94 -156 -94q-69 0 -110.5 45t-41.5 113t41 112.5t111 44.5q83 0 156 -94q73 94 155 94q70 0 111.5 -44.5t41.5 -112.5t-41.5 -113t-111.5 -45q-81 0 -155 94zM325 333q-55 92 -120 92q-39 0 -61 -26t-22 -66t22 -66.5t61 -26.5q67 0 120 93zM397 333
q53 -93 119 -93q39 0 61.5 26.5t22.5 66.5t-22.5 66t-61.5 26q-64 0 -119 -92z" />
    <glyph glyph-name="integral" unicode="&#x222b;" horiz-adv-x="610" 
d="M259 -67l-10 545q-2 73 21 134.5t74.5 102t121.5 40.5q45 0 72.5 -24.5t27.5 -64.5q0 -39 -38 -60l-62 -36q-5 -2 -10 0.5t-5 7.5v19q0 12 7 24q17 28 8 54t-40 26q-35 0 -55.5 -36.5t-19.5 -100.5l10 -545q2 -73 -21 -134.5t-74.5 -102t-121.5 -40.5q-45 0 -72.5 24.5
t-27.5 64.5q0 39 38 60l62 36q5 2 10 -0.5t5 -7.5v-19q0 -12 -7 -24q-17 -28 -8 -54t40 -26q35 0 55.5 35.5t19.5 101.5z" />
    <glyph glyph-name="therefore" unicode="&#x2234;" horiz-adv-x="965" 
d="M155 177q25 23 49 -1q34 -32 64 -64q24 -24 1 -49q-27 -30 -64 -63q-25 -23 -50 0q-43 40 -63 63q-24 26 -1 50q29 33 64 64zM760 177q25 23 49 -1q34 -32 64 -64q24 -24 1 -49q-27 -30 -64 -63q-25 -23 -50 0q-43 40 -63 63q-24 26 -1 50q29 33 64 64zM458 711
q25 23 49 -1q34 -32 64 -64q24 -24 1 -49q-27 -30 -64 -63q-25 -23 -50 0q-43 40 -63 63q-24 26 -1 50q29 33 64 64z" />
    <glyph glyph-name="because" unicode="&#x2235;" horiz-adv-x="965" 
d="M155 533q-35 31 -64 64q-23 24 1 50q20 23 63 63q25 23 50 0q37 -33 64 -63q23 -25 -1 -49q-30 -32 -64 -64q-24 -24 -49 -1zM760 533q-35 31 -64 64q-23 24 1 50q20 23 63 63q25 23 50 0q37 -33 64 -63q23 -25 -1 -49q-30 -32 -64 -64q-24 -24 -49 -1zM458 -1
q-35 31 -64 64q-23 24 1 50q20 23 63 63q25 23 50 0q37 -33 64 -63q23 -25 -1 -49q-30 -32 -64 -64q-24 -24 -49 -1z" />
    <glyph glyph-name="approxequal" unicode="&#x2248;" horiz-adv-x="722" 
d="M504 342q-45 0 -149 44.5t-142 44.5q-62 0 -74 -79q-2 -13 -15 -10l-29 6q-12 3 -10 17q5 76 34.5 116t99.5 40q57 0 160 -44.5t131 -44.5q64 0 74 79q2 13 15 10l29 -6q12 -3 10 -17q-5 -76 -34.5 -116t-99.5 -40zM504 152q-45 0 -149 44.5t-142 44.5q-62 0 -74 -79
q-2 -13 -15 -10l-29 6q-12 3 -10 17q5 76 34.5 116t99.5 40q57 0 160 -44.5t131 -44.5q64 0 74 79q2 13 15 10l29 -6q12 -3 10 -17q-5 -76 -34.5 -116t-99.5 -40z" />
    </font>
</defs>
</svg>
